
<svg width="623" height="311" viewBox="0 0 623 311" fill="none" xmlns="http://www.w3.org/2000/svg">
<path d="M51.8291 261.266C50.7832 258.926 49.7697 256.543 48.8166 254.183L51.7669 253.773C52.7144 256.119 53.7217 258.488 54.7614 260.814L51.8291 261.266ZM581.851 261.532L578.831 261.341C579.232 258.927 579.605 256.497 579.938 254.121L582.962 254.285C582.627 256.67 582.253 259.109 581.851 261.532ZM46.0932 247.06C45.2333 244.677 44.416 242.269 43.6641 239.9L46.6458 239.578C47.393 241.932 48.2052 244.326 49.0598 246.693L46.0932 247.06ZM583.884 247.027L580.856 246.892C581.13 244.478 581.372 242.043 581.575 239.654L584.606 239.759C584.401 242.158 584.158 244.603 583.884 247.027ZM41.5394 232.707C40.8813 230.297 40.2733 227.867 39.7326 225.484L42.7397 225.256C43.2769 227.623 43.8807 230.037 44.5345 232.431L41.5394 232.707ZM585.12 232.484L582.087 232.41C582.222 229.984 582.321 227.546 582.38 225.161L585.414 225.201C585.355 227.597 585.256 230.047 585.12 232.484ZM38.26 218.235C37.8245 215.802 37.4477 213.355 37.1401 210.963L40.1657 210.839C40.4712 213.213 40.8451 215.641 41.2775 218.057L38.26 218.235ZM582.443 217.911C582.424 215.482 582.363 213.043 582.263 210.661L585.296 210.63C585.397 213.024 585.458 215.475 585.478 217.916L582.443 217.911ZM36.395 203.675C36.2107 201.23 36.0942 198.775 36.0488 196.379L39.0833 196.372C39.128 198.748 39.2436 201.182 39.4263 203.608L36.395 203.675ZM581.825 203.416C581.634 200.99 581.394 198.555 581.114 196.179L584.141 196.066C584.423 198.456 584.664 200.905 584.856 203.345L581.825 203.416ZM39.1622 189.137L36.1286 189.078C36.2301 186.628 36.4101 184.175 36.6637 181.786L39.6923 181.914C39.4411 184.279 39.2627 186.709 39.1622 189.137ZM580.112 188.954C579.723 186.527 579.281 184.102 578.798 181.747L581.81 181.541C582.296 183.912 582.741 186.353 583.133 188.796L580.112 188.954ZM40.7047 174.713L37.6866 174.512C38.1157 172.073 38.6351 169.637 39.2307 167.269L42.2318 167.55C41.6428 169.891 41.129 172.301 40.7047 174.713ZM577.148 174.565C576.534 172.151 575.857 169.746 575.138 167.417L578.122 167.103C578.848 169.451 579.53 171.875 580.149 174.308L577.148 174.565ZM218.267 171.818C214.054 171.393 211.012 170.23 206.8 168.228L208.728 166.843C212.417 168.592 215.083 169.644 218.603 170.025L218.267 171.818ZM228.825 167.596L226.128 166.756C227.529 165.147 228.772 162.91 229.825 160.106L232.787 160.512C231.662 163.508 230.366 165.825 228.825 167.596ZM197.931 162.989C195.524 161.37 192.954 159.509 190.072 157.299L192.464 156.199C195.305 158.378 197.835 160.209 200.197 161.798L197.931 162.989ZM44.3081 160.441L41.3315 160.077C42.1343 157.672 43.0404 155.276 44.0247 152.953L46.9676 153.407C45.9955 155.7 45.1008 158.067 44.3081 160.441ZM572.735 160.313C571.853 157.922 570.9 155.552 569.902 153.267L572.839 152.825C573.846 155.132 574.808 157.526 575.698 159.939L572.735 160.313ZM234.879 153.261L231.871 153.009C232.352 150.858 232.786 148.501 233.198 145.804L236.22 145.981C235.804 148.703 235.365 151.084 234.879 153.261ZM182.68 151.431C180.227 149.432 177.684 147.319 175.492 145.496L177.955 144.453C180.143 146.272 182.682 148.381 185.127 150.373L182.68 151.431ZM404.843 152.825C402.48 152.809 400.164 152.373 397.961 151.529L399.589 150.013C402.9 151.282 406.165 151.308 409.698 150.338L410.992 151.977C408.903 152.554 406.835 152.839 404.843 152.825ZM50.2436 146.472L47.3454 145.924C48.5675 143.587 49.9064 141.263 51.3253 139.017L54.1666 139.664C52.7682 141.877 51.4485 144.168 50.2436 146.472ZM420.948 147.326L418.727 146.086C421.038 144.619 423.517 142.807 426.306 140.547L428.757 141.623C425.896 143.941 423.342 145.807 420.948 147.326ZM389.371 145.865C387.42 144.049 385.489 141.913 383.467 139.335L386.215 138.582C388.179 141.086 390.047 143.153 391.925 144.901L389.371 145.865ZM566.598 146.296C565.392 143.949 564.103 141.637 562.768 139.425L565.624 138.827C566.975 141.065 568.279 143.405 569.499 145.781L566.598 146.296ZM168.341 139.56C165.581 137.283 163.28 135.414 161.1 133.677L163.527 132.604C165.717 134.349 168.027 136.226 170.798 138.511L168.341 139.56ZM237.183 138.696L234.156 138.559C234.401 136.445 234.651 134.069 234.922 131.296L237.951 131.414C237.68 134.194 237.429 136.576 237.183 138.696ZM58.7616 133.013L55.9905 132.264C57.6719 130.031 59.4623 127.84 61.3636 125.697L64.0486 126.551C62.1778 128.658 60.4163 130.815 58.7616 133.013ZM435.75 135.63L433.222 134.621C435.392 132.685 437.633 130.634 439.902 128.562L442.449 129.556C440.174 131.633 437.93 133.686 435.75 135.63ZM378.629 132.564C377.269 130.503 375.864 128.255 374.334 125.692L377.193 125.099C378.711 127.643 380.105 129.873 381.452 131.915L378.629 132.564ZM558.351 132.686C556.735 130.414 555.025 128.205 553.267 126.122L555.977 125.322C557.765 127.44 559.503 129.685 561.144 131.993L558.351 132.686ZM153.648 127.905C150.908 125.852 148.358 124.024 145.851 122.317L148.129 121.135C150.668 122.864 153.249 124.713 156.019 126.788L153.648 127.905ZM238.633 124.136L235.603 124.024C235.824 121.613 236.044 119.201 236.278 116.747L239.308 116.863C239.074 119.316 238.854 121.726 238.633 124.136ZM449.144 123.505L446.619 122.492C449.17 120.227 451.452 118.268 453.594 116.504L456.058 117.568C453.937 119.316 451.675 121.257 449.144 123.505ZM70.1099 120.363L67.559 119.373C69.959 117.168 72.4316 115.178 74.9081 113.46L77.2182 114.641C74.8287 116.299 72.4371 118.224 70.1099 120.363ZM370.331 118.775C368.956 116.339 367.607 113.902 366.47 111.839L369.352 111.288C370.488 113.348 371.835 115.781 373.207 118.211L370.331 118.775ZM137.544 117.032C134.455 115.214 131.416 113.605 128.512 112.252L130.373 110.834C133.369 112.231 136.497 113.886 139.669 115.753L137.544 117.032ZM547.419 119.801C545.26 117.675 542.993 115.663 540.684 113.82L543.112 112.748C545.48 114.638 547.802 116.699 550.013 118.876L547.419 119.801ZM85.7634 109.788L83.9329 108.34C87.5682 106.721 91.3479 105.561 95.1671 104.893L96.0431 106.625C92.5693 107.233 89.1107 108.297 85.7634 109.788ZM463.417 111.859L461.067 110.706C463.928 108.637 466.637 106.858 469.349 105.268L471.487 106.558C468.85 108.104 466.21 109.838 463.417 111.859ZM240.038 109.598L237.01 109.469C237.291 106.847 237.568 104.466 237.858 102.189L240.884 102.339C240.595 104.608 240.318 106.983 240.038 109.598ZM118.506 108.376C114.728 107.228 111.008 106.487 107.451 106.172L107.876 104.386C111.76 104.73 115.795 105.532 119.87 106.769L118.506 108.376ZM532.916 108.335C530.007 106.534 526.993 104.942 523.958 103.601L525.755 102.154C528.926 103.555 532.069 105.215 535.096 107.089L532.916 108.335ZM362.647 104.904C361.156 102.207 359.927 100.008 358.78 97.984L361.654 97.4186C362.804 99.4474 364.035 101.65 365.529 104.351L362.647 104.904ZM480.601 102.013L478.872 100.522C482.615 98.9943 486.392 97.8702 490.099 97.1805L491.025 98.9041C487.604 99.5404 484.097 100.587 480.601 102.013ZM513.726 100.031C509.975 99.0622 506.174 98.4522 502.431 98.218L502.726 96.4224C506.778 96.6759 510.88 97.3332 514.917 98.3761L513.726 100.031ZM241.905 95.0979L238.883 94.9172C239.279 92.3868 239.707 89.9434 240.156 87.6547L243.171 87.8776C242.724 90.1521 242.298 92.5814 241.905 95.0979ZM354.79 91.0894C353.341 88.6443 351.974 86.4089 350.613 84.2555L353.452 83.631C354.821 85.7962 356.194 88.0432 357.651 90.5002L354.79 91.0894ZM244.766 80.6894L241.764 80.4105C242.395 77.887 243.087 75.4609 243.82 73.1995L246.799 73.5538C246.075 75.7904 245.391 78.191 244.766 80.6894ZM346.152 77.4835C344.537 75.1389 342.91 72.8948 341.313 70.8141L344.071 70.0745C345.685 72.1769 347.329 74.4431 348.959 76.81L346.152 77.4835ZM249.425 66.507L246.484 66.0491C247.56 63.5354 248.743 61.169 250.001 59.0152L252.868 59.6192C251.639 61.7251 250.48 64.0424 249.425 66.507ZM335.969 64.2974C333.988 62.0473 331.964 59.9338 329.952 58.0155L332.523 57.068C334.576 59.025 336.638 61.1787 338.655 63.4694L335.969 64.2974ZM257.471 53.0366L254.756 52.2186C256.765 49.8306 258.989 47.7222 261.367 45.9518L263.743 47.0854C261.497 48.7581 259.386 50.7603 257.471 53.0366ZM323.038 52.1119C320.4 50.1159 317.676 48.3451 314.94 46.8489L316.985 45.524C319.841 47.0865 322.679 48.9299 325.418 51.0028L323.038 52.1119ZM272.242 42.465L270.616 40.933C274.22 39.5892 278.187 38.7267 282.406 38.3695L282.856 40.1569C279.058 40.4787 275.487 41.2551 272.242 42.465ZM305.394 42.6942C301.867 41.5359 298.191 40.7353 294.466 40.3146L295.011 38.5408C299.053 38.9975 303.035 39.8637 306.845 41.1151L305.394 42.6942Z" fill="#A2C2FF"/>
<path d="M181.171 215.124V268.122C181.171 269.922 180.821 271.629 180.191 273.167H132.639C132.008 271.629 131.657 269.922 131.657 268.122V215.124C131.657 208.404 136.551 202.952 142.586 202.952H170.242C176.281 202.952 181.171 208.405 181.171 215.124Z" fill="#4F69B2"/>
<path d="M227.121 267.066C224.592 267.066 222.131 265.755 220.773 263.408L184.133 200.123C182.105 196.621 183.301 192.138 186.803 190.11C190.306 188.083 194.789 189.278 196.817 192.78L233.456 256.065C235.484 259.567 234.288 264.05 230.786 266.078C229.63 266.747 228.367 267.066 227.121 267.066Z" fill="#F8FDFF"/>
<path d="M201.777 196.452C201.711 211.233 179.237 211.232 179.173 196.451C179.239 181.671 201.713 181.672 201.777 196.452Z" fill="#1D3F70"/>
<path d="M157.759 105.414H155.065V121.785H157.759V105.414Z" fill="#F8FDFF"/>
<path d="M149.438 123.355C149.533 121.755 148.805 118.218 151.387 118.267L161.437 118.267C162.509 118.267 163.385 119.144 163.385 120.215C163.29 121.815 164.019 125.352 161.437 125.303L151.387 125.303C150.315 125.303 149.438 124.426 149.438 123.355Z" fill="#4F69B2"/>
<path d="M122.423 163.676C120.308 163.598 115.906 164.402 115.966 161.068L115.965 146.887C115.906 143.566 120.31 144.338 122.423 144.278C123.857 144.278 125.031 145.452 125.031 146.887V161.068C125.031 162.502 123.857 163.676 122.423 163.676Z" fill="#4F69B2"/>
<path d="M194.25 163.676C192.136 163.598 187.734 164.402 187.793 161.068C187.793 161.068 187.793 146.887 187.793 146.887C187.733 143.566 192.137 144.338 194.25 144.278C195.685 144.278 196.858 145.452 196.858 146.887V161.068C196.858 162.502 195.685 163.676 194.25 163.676Z" fill="#4F69B2"/>
<path d="M145.777 129.544C145.922 127.105 144.811 121.711 148.749 121.785C148.749 121.785 164.075 121.785 164.075 121.785C167.997 121.71 166.923 127.108 167.047 129.544C167.047 131.179 165.71 132.516 164.075 132.516H148.749C147.115 132.516 145.777 131.178 145.777 129.544Z" fill="#F8FDFF"/>
<path d="M154.018 170.169C156.458 170.314 161.851 169.203 161.777 173.141L161.777 188.467C161.853 192.389 156.455 191.315 154.018 191.439C152.384 191.439 151.047 190.101 151.047 188.467V173.141C151.047 171.507 152.384 170.169 154.018 170.169Z" fill="#4F69B2"/>
<path d="M177.001 180.804H135.824C127.395 180.804 120.498 173.908 120.498 165.479C121.17 152.396 115.619 127.579 135.824 127.151C135.824 127.151 177.001 127.151 177.001 127.151C185.43 127.151 192.326 134.047 192.326 142.476C191.654 155.558 197.205 180.375 177.001 180.804Z" fill="#F8FDFF"/>
<path d="M173.043 171.862H139.781C134.161 171.862 129.564 167.264 129.564 161.645C130.013 152.923 126.31 136.379 139.781 136.093C139.781 136.093 173.043 136.093 173.043 136.093C178.663 136.093 183.26 140.69 183.26 146.309C182.811 155.032 186.515 171.575 173.043 171.862Z" fill="#1D3F70"/>
<path d="M161.502 105.414C161.472 112.071 151.351 112.07 151.322 105.413C151.352 98.7568 161.473 98.7574 161.502 105.414Z" fill="#4F69B2"/>
<path d="M149.579 153.977C149.555 159.416 141.285 159.416 141.261 153.977C141.285 148.538 149.556 148.538 149.579 153.977Z" fill="#FFDE00"/>
<path d="M171.563 153.977C171.539 159.416 163.268 159.416 163.245 153.977C163.269 148.538 171.539 148.538 171.563 153.977Z" fill="#FFDE00"/>
<path d="M181.171 213.089V245.354H131.657V213.089C131.657 207.493 136.552 202.953 142.586 202.953H170.242C176.28 202.953 181.171 207.493 181.171 213.089Z" fill="#1D3F70"/>
<path d="M196.859 199.958V225.882C196.859 232.397 191.577 237.678 185.062 237.678H127.768C121.253 237.678 115.971 232.397 115.971 225.882V199.958C115.971 193.443 121.253 188.162 127.768 188.162H185.062C191.577 188.162 196.859 193.443 196.859 199.958Z" fill="#F8FDFF"/>
<path d="M129.418 193.154C129.352 207.935 106.878 207.934 106.813 193.153C106.88 178.373 129.354 178.374 129.418 193.154Z" fill="#1D3F70"/>
<path d="M81.4693 263.768C76.0149 263.896 72.2315 257.472 75.1345 252.767L111.774 189.483C116.722 181.247 129.15 188.389 124.457 196.826C124.457 196.826 87.8179 260.111 87.8179 260.111C86.4596 262.457 83.9986 263.768 81.4693 263.768Z" fill="#F8FDFF"/>
<path d="M92.7786 256.439C92.7122 271.22 70.2382 271.219 70.1738 256.438C70.2401 241.658 92.7142 241.659 92.7786 256.439Z" fill="#1D3F70"/>
<path d="M148.425 249.001L137.085 249.02L139.466 246.411C142.721 242.946 137.206 237.913 134.053 241.471L127.149 249.037L81.7647 249.111C77.7177 249.111 74.4368 252.392 74.4368 256.439C74.4368 260.486 77.7177 263.767 81.7647 263.767L148.45 263.752C158.145 263.571 158.118 249.148 148.425 249.001Z" fill="#F8FDFF"/>
<path d="M281.156 259.638H198.746L215.154 199.231H297.067L281.156 259.638Z" fill="#163260"/>
<path d="M281.157 259.339H198.746V263.441H281.157V259.339Z" fill="#234270"/>
<path d="M216.392 199.231H213.444L197.373 259.339H158.264V263.441H200.118V259.772L216.392 199.231Z" fill="#0B274F"/>
<path d="M480.555 166.288C480.555 166.288 465.27 166.288 450.429 181.257C438 193.793 426.77 213.885 426.77 213.885L466.937 220.285C466.937 220.285 482.415 175.533 480.555 166.288Z" fill="#CE4ABF"/>
<path d="M547.577 263.226C547.378 266.505 547.038 269.82 546.549 273.167H446.743C446.469 270.391 446.421 267.006 446.563 263.226C447.223 245.656 451.973 219.561 457.104 206.613C463.917 189.055 476.261 174.8 485.961 166.258C485.964 166.255 501.174 165.219 501.179 165.215C526.655 180.075 550.332 218.138 547.577 263.226Z" fill="#CE4ABF"/>
<path d="M455.875 210.573C456.115 210.573 456.333 210.409 456.392 210.165C457.882 202.911 463.091 196.768 462.198 195.8C460.894 195.523 457.371 203.002 455.357 209.918C455.274 210.246 455.537 210.577 455.875 210.573Z" fill="#A523A2"/>
<path d="M514.793 203.677C525.095 211.97 548.283 229.504 540.445 243.516C530.458 249.216 512.605 248.972 499.144 250.885C495.264 251.157 494.717 257.018 498.416 258.04C511.101 261.79 524.284 264.139 537.639 263.445C543.678 263.009 550.268 261.668 554.893 257.199C561.051 251.038 564.644 241.763 563.995 232.984C562.12 211.868 545.898 195.674 529.778 183.834C516.248 173.456 501.044 193.627 514.793 203.677Z" fill="#F99370"/>
<path d="M511.379 201.575C536.861 232.834 540.004 237.697 503.366 250.483C507.333 255.177 504.636 259.767 504.636 259.767C607.202 289.846 573.86 163.428 501.179 165.215C501.687 173.165 505.356 193.253 511.379 201.575Z" fill="#CE4ABF"/>
<path d="M477.341 259.205C477.341 259.205 481.644 246.172 499.526 250.871L502.981 259.218L477.341 259.205Z" fill="#F99370"/>
<path d="M478.299 258.949C478.828 258.934 483.103 254.372 489.474 253.709C489.748 253.681 489.947 253.436 489.919 253.161C486.849 251.193 475.13 258.982 478.299 258.949Z" fill="#E57D61"/>
<path d="M483.108 259.125C487.915 257.335 488.353 257.059 491.909 256.381C491.877 256.134 491.789 255.641 491.733 255.398C487.999 256.171 487.999 256.171 483.024 258.123C482.439 258.238 482.511 259.131 483.108 259.125Z" fill="#E57D61"/>
<path d="M508.805 261.059C507.398 260.639 505.858 260.135 504.635 259.768C504.635 259.768 507.333 255.179 503.365 250.485C503.365 250.485 505.344 249.842 508.159 248.849C508.159 248.849 513.013 255.073 508.805 261.059Z" fill="#A523A2"/>
<path d="M508.065 249.965C507.304 250.073 532.107 242.03 531.792 231.54C531.797 219.284 511.728 201.38 510.874 200.623C510.368 200.176 509.643 200.957 510.169 201.42C510.126 201.656 539.265 226.686 528.127 237.454C519.832 245.583 505.032 248.802 508.065 249.965Z" fill="#A523A2"/>
<path d="M517 263.188C517.62 263.204 517.724 262.24 517.102 262.134C512.616 261.255 508.553 259.82 508.512 259.805C505.513 260.591 512.404 262.219 517 263.188Z" fill="#A523A2"/>
<path d="M480.193 176.129C484.453 186.465 505.494 180.251 508.805 165.748C508.805 165.748 508.801 165.748 508.801 165.744C504.115 165.114 501.179 165.215 501.179 165.215C501.175 165.219 485.964 166.254 485.96 166.258C484.109 166.165 482.309 166.18 480.555 166.288C478.7 168.829 479.325 174.023 480.193 176.129Z" fill="#A523A2"/>
<path d="M485.96 166.258C484.162 158.214 484.188 146.336 484.809 141.378C485.844 131.628 501.352 133.711 499.836 143.348C499.316 143.093 499.591 160.534 501.178 165.214C503.148 172.261 480.003 181.519 485.96 166.258Z" fill="#F99370"/>
<path d="M499.897 142.547C499.888 142.813 499.87 143.085 499.836 143.348C499.46 143.153 499.489 152.788 500.215 159.707C494.029 163.353 486.644 162.823 485.288 162.692C484.216 153.944 484.172 145.876 484.927 140.726C486.825 131.924 500.161 133.562 499.897 142.547Z" fill="#E57D61"/>
<path d="M474.581 130.805C474.581 130.805 474.698 122.925 477.147 117.487L481.658 119.685L474.581 130.805Z" fill="#1D3F70"/>
<path d="M474.503 153.861C479.871 159.29 488.143 160.817 494.749 159.378C496.811 158.961 498.772 158.234 500.518 157.142L500.52 157.142C501.11 156.774 501.669 156.371 502.202 155.927L502.21 155.928C527.306 130.551 493.05 89.1808 477.543 125.386C472.297 135.583 463.137 141.063 474.503 153.861Z" fill="#F99370"/>
<path d="M485.292 133.308C485.038 132.813 485.234 132.205 485.73 131.952C486.226 131.698 486.834 131.894 487.088 132.39C487.342 132.885 487.146 133.492 486.65 133.746C486.154 134 485.546 133.803 485.292 133.308Z" fill="#C16256"/>
<path d="M476.806 131.909C476.552 131.413 476.748 130.806 477.244 130.553C477.74 130.299 478.348 130.495 478.602 130.991C478.856 131.486 478.66 132.093 478.163 132.347C477.668 132.6 477.06 132.404 476.806 131.909Z" fill="#C16256"/>
<path d="M479.457 140.63C480.048 140.698 480.652 140.664 481.161 140.5C481.362 140.435 481.472 140.219 481.407 140.02C481.342 139.818 481.124 139.711 480.926 139.774C479.648 140.187 477.834 139.552 477.583 138.974C477.495 138.77 477.769 138.568 478.014 138.434C480.175 137.258 481.615 133.161 481.675 132.988C481.744 132.788 481.639 132.571 481.439 132.502C481.233 132.43 481.022 132.539 480.953 132.738C480.939 132.777 479.55 136.728 477.649 137.764C476.612 138.329 476.768 139.009 476.882 139.275C477.181 139.969 478.298 140.495 479.457 140.63Z" fill="#C16256"/>
<path d="M478.706 122.883C484.17 119.988 494.096 122.591 498.967 122.542C498.967 122.542 497.95 130.872 506.371 136.787C507.099 144.443 508.366 147.783 500.518 157.142L500.52 157.142C501.11 156.774 501.669 156.371 502.202 155.927L502.21 155.928C526.378 131.73 494.741 90.587 478.706 122.883Z" fill="#E57D61"/>
<path d="M474.533 106.297C477.66 100.1 486.965 96.714 495.022 104.349C501.226 110.228 507.911 110.167 507.789 116.372C520.221 121.984 514.086 135.675 514.086 135.675L507.86 134.951C500.736 129.213 500.934 120.756 500.934 120.756L500.936 120.754C499.35 120.836 497.68 120.771 496.201 120.397C491.617 119.236 484.836 118.685 479.674 120.598C474.511 122.511 471.039 113.222 474.533 106.297Z" fill="#1D3F70"/>
<path d="M514.984 140.69C514.318 143.887 511.69 146.045 509.114 145.509C506.538 144.973 504.99 141.947 505.656 138.749C506.322 135.552 508.95 133.394 511.526 133.93C514.102 134.466 515.65 137.492 514.984 140.69Z" fill="#F99370"/>
<path d="M508.863 136.47C508.963 136.431 511.321 135.515 512.651 136.74C512.989 137.051 513.216 137.473 513.344 137.99C513.344 137.991 513.344 137.992 513.345 137.993C513.357 138.041 513.374 138.084 513.384 138.134C513.384 138.135 513.384 138.136 513.384 138.137C513.384 138.137 513.384 138.137 513.384 138.137C513.578 139.099 513.434 140.385 512.95 141.989C512.895 142.168 512.72 142.279 512.54 142.258C512.518 142.255 512.496 142.25 512.474 142.244C512.272 142.183 512.157 141.97 512.218 141.768C512.611 140.468 512.76 139.412 512.679 138.614C510.479 139.013 509.381 141.479 509.371 141.505C509.303 141.665 509.139 141.755 508.974 141.736C508.94 141.732 508.905 141.722 508.87 141.707C508.675 141.626 508.585 141.403 508.666 141.208C508.719 141.085 509.913 138.329 512.495 137.847C512.404 137.631 512.289 137.443 512.135 137.302C511.158 136.401 509.163 137.172 509.145 137.179C508.946 137.256 508.727 137.159 508.649 136.964C508.572 136.768 508.668 136.548 508.863 136.47Z" fill="#C16256"/>
<path d="M385.388 259.506H468.151L451.673 198.84H369.41L385.388 259.506Z" fill="#163260"/>
<path d="M468.151 259.205H385.388V263.325H468.151V259.205Z" fill="#234270"/>
<path d="M450.429 198.84H453.39L469.53 259.205H508.806V263.325H466.773V259.64L450.429 198.84Z" fill="#0B274F"/>
<path d="M490.095 131.625C489.964 131.625 489.835 131.562 489.756 131.444C489.698 131.359 488.312 129.381 484.641 129.333C484.416 129.33 484.236 129.145 484.238 128.92C484.241 128.696 484.423 128.517 484.646 128.517C484.648 128.517 484.65 128.517 484.652 128.517C488.778 128.571 490.369 130.892 490.435 130.991C490.56 131.178 490.509 131.432 490.321 131.556C490.252 131.603 490.173 131.625 490.095 131.625Z" fill="#C16256"/>
<path d="M480.844 128.76C480.793 128.76 480.741 128.751 480.691 128.731C480.663 128.719 478.619 127.922 476.622 128.73C476.413 128.815 476.175 128.714 476.09 128.505C476.006 128.296 476.107 128.058 476.316 127.974C478.63 127.037 480.901 127.935 480.997 127.974C481.206 128.058 481.307 128.296 481.222 128.505C481.158 128.664 481.005 128.76 480.844 128.76Z" fill="#C16256"/>
<path d="M480.305 143.606C479.878 143.606 479.428 143.572 478.956 143.495C478.733 143.459 478.582 143.25 478.618 143.027C478.654 142.805 478.864 142.654 479.086 142.69C482.689 143.274 484.865 141.061 484.887 141.039C485.043 140.876 485.301 140.871 485.464 141.028C485.626 141.184 485.631 141.442 485.475 141.605C485.386 141.696 483.507 143.606 480.305 143.606Z" fill="#C16256"/>
<path d="M596.515 268.888C596.515 272.016 594.454 274.55 591.912 274.55H30.3968C29.1267 274.55 27.9746 273.915 27.1422 272.891C26.3098 271.867 25.7942 270.453 25.7942 268.888C25.7942 265.761 27.8552 263.226 30.3968 263.226H591.912C593.182 263.226 594.335 263.861 595.167 264.885C595.999 265.909 596.515 267.323 596.515 268.888Z" fill="#4D58AA"/>
<path d="M340.372 234.038H332.909C311.861 156.988 362.086 172.74 340.372 234.038Z" fill="#8A9EDD"/>
<path d="M340.372 234.038C340.372 234.038 334.785 235.358 335.012 234.038C340.793 200.421 335.329 182.005 335.329 182.005C355.656 180.641 340.372 234.038 340.372 234.038Z" fill="#3A72AA"/>
<path d="M361.109 200.419C359.975 212.796 352.256 223.869 345.85 234.035H337.327C338.084 222.314 339.982 209.602 346.5 199.505C349.535 192.255 361.127 190.487 361.109 200.419Z" fill="#7689D6"/>
<path d="M361.109 200.419C361.109 200.876 360.973 201.842 360.973 201.842C354.91 200.876 351.362 197.959 349.452 195.674C349.791 195.271 350.132 194.998 350.513 194.735C352.258 196.82 355.562 199.517 361.109 200.419Z" fill="#8A9EDD"/>
<path d="M359.791 207.559C359.65 208.004 359.498 208.461 359.334 208.918C350.668 207.864 346.867 202.907 345.656 200.858C345.92 200.401 346.207 199.95 346.5 199.505C347.307 201.099 351.185 206.625 359.791 207.559Z" fill="#8A9EDD"/>
<path d="M357.465 213.616C357.266 214.061 357.061 214.512 356.856 214.957C348.615 214.582 344.186 210.634 342.218 208.039C342.417 207.512 342.622 206.985 342.845 206.47C344.453 208.932 349.321 213.324 357.465 213.616Z" fill="#8A9EDD"/>
<path d="M353.728 221.149C353.482 221.594 353.242 222.027 353.002 222.461C346.154 221.957 341.965 219.065 339.674 216.552C339.747 215.961 340.027 215.525 340.156 215.016C342.663 217.566 346.528 220.686 353.728 221.149Z" fill="#8A9EDD"/>
<path d="M349.37 228.523C349.089 228.968 348.814 229.408 348.539 229.841C343.431 229.009 340.139 226.772 338.188 224.862C338.27 224.265 338.353 223.667 338.452 223.064C340.233 224.938 344.075 227.744 349.37 228.523Z" fill="#8A9EDD"/>
<path d="M325.331 234.038H316.904C290.39 198.729 323.205 191.919 325.331 234.038Z" fill="#7689D6"/>
<path d="M325.331 234.038H320.209C310.989 221.183 308.983 210.631 308.973 205.533C321.004 199.118 325.358 234.01 325.331 234.038Z" fill="#8A9EDD"/>
<path d="M334.281 234.035H323.931C324.116 234.476 320.632 227.929 319.31 224.751H319.304C316.429 217.992 312.697 208.882 314.172 201.585C314.995 195.818 323.229 193.544 327.135 197.485C334.841 204.312 334.598 226.942 334.281 234.035Z" fill="#3A72AA"/>
<path d="M334.228 221.723C334.184 221.002 334.144 220.236 334.076 219.497L328.377 227.399L326.098 218.331L332.53 208.684C332.382 208.017 332.215 207.377 332.032 206.733L325.63 216.475L322.918 205.673L328.108 198.486C327.803 198.123 327.475 197.783 327.135 197.484L322.467 203.875L320.469 195.639C319.972 195.728 319.474 195.855 319.023 196.008L321.12 204.349L314.155 201.678C314.05 202.097 313.975 202.542 313.921 203.002L321.547 206.054L324.294 216.99L315.051 213.053C315.203 213.646 315.377 214.238 315.555 214.828L324.728 218.718L327.024 227.861L319.304 224.751C319.568 225.414 319.875 226.006 320.141 226.596L327.457 229.566C327.825 230.187 328.234 234.865 329.308 234.75C331.018 234.823 328.726 229.887 328.828 229.197L334.228 221.734C334.228 221.728 334.228 221.728 334.228 221.723Z" fill="#7689D6"/>
<path d="M345.766 234.036H316.818V263.257H345.766V234.036Z" fill="#EB5648"/>
<path d="M345.766 234.036V263.257H316.818C316.818 263.257 345.766 262.805 345.766 234.036Z" fill="#CE3932"/>
<path d="M392.767 122.987L389.363 107.947L380.728 109.901C379.441 107.372 377.831 105.064 375.963 103.016L380.736 95.449L367.693 87.221L363.099 94.5033C360.056 93.4323 356.829 92.8215 353.52 92.7374L351.509 83.8557L336.469 87.2602L338.479 96.1419C335.739 97.5361 333.258 99.3098 331.087 101.38L324.236 97.058L316.008 110.101L322.859 114.423C321.926 117.273 321.393 120.276 321.315 123.35L312.68 125.304L316.084 140.345L324.72 138.39C326.221 141.34 328.162 143.99 330.439 146.276L325.845 153.558L338.888 161.786L343.661 154.219C346.314 155.023 349.091 155.482 351.927 155.554L353.938 164.436L368.978 161.032L366.968 152.15C369.708 150.756 372.189 148.982 374.36 146.912L382.345 151.949L390.573 138.907L382.588 133.869C383.521 131.019 384.054 128.016 384.132 124.942L392.767 122.987ZM356.725 137.655C339.006 142.788 331.116 115.961 348.723 110.637C366.442 105.504 374.332 132.331 356.725 137.655Z" fill="#8A9EDD"/>
<path d="M301.947 117.977L301.104 114.253L297.812 114.998C296.995 112.42 295.742 110.079 294.155 108.041L296.63 105.753L294.038 102.949L291.561 105.239C289.61 103.463 287.357 102.042 284.914 101.046L285.914 97.8238L282.267 96.6918L281.268 99.9108C278.745 99.3563 276.093 99.2336 273.414 99.6066L272.669 96.3153L268.945 97.1583L269.69 100.45C267.111 101.267 264.771 102.519 262.732 104.106L260.444 101.631L257.641 104.223L259.931 106.701C258.155 108.652 256.734 110.905 255.738 113.348L252.516 112.348L251.384 115.994L254.603 116.994C254.048 119.517 253.926 122.168 254.299 124.848L251.007 125.593L251.85 129.317L255.142 128.572C255.959 131.15 257.211 133.491 258.798 135.529L256.323 137.817L258.916 140.621L261.393 138.331C263.344 140.107 265.597 141.528 268.04 142.524L267.04 145.746L270.686 146.878L271.686 143.659C274.209 144.214 276.861 144.336 279.54 143.963L280.285 147.255L284.009 146.412L283.264 143.12C285.842 142.303 288.183 141.051 290.221 139.464L292.509 141.939L295.313 139.347L293.023 136.869C294.799 134.918 296.22 132.665 297.216 130.222L300.438 131.222L301.57 127.576L298.351 126.576C298.906 124.053 299.029 121.402 298.655 118.722L301.947 117.977ZM279.69 135.981C260.957 139.886 254.677 112.128 273.264 107.589C291.996 103.684 298.277 131.442 279.69 135.981Z" fill="#667ECC"/>
<path d="M327.197 66.6807L325.922 61.0453L321.606 62.0223C321.248 61.1768 320.827 60.3716 320.344 59.6144L323.59 56.6135L319.667 52.3709L316.417 55.3757C315.693 54.8298 314.924 54.3449 314.119 53.9263L315.432 49.6989L309.914 47.9859L308.603 52.2077C307.711 52.0978 306.803 52.0642 305.886 52.1059L304.909 47.7897L299.274 49.0652L300.251 53.3815C299.405 53.7386 298.6 54.16 297.843 54.6432L294.842 51.3973L290.599 55.3198L293.604 58.5699C293.058 59.2943 292.574 60.0628 292.155 60.8675L287.928 59.5553L286.215 65.0737L290.436 66.3842C290.326 67.2757 290.293 68.184 290.335 69.1008L286.018 70.0778L287.294 75.7133L291.61 74.7363C291.967 75.5817 292.389 76.3869 292.872 77.1442L289.626 80.1452L293.548 84.3878L296.798 81.383C297.523 81.9289 298.291 82.4138 299.096 82.8324L297.784 87.0598L303.302 88.7728L304.613 84.551C305.504 84.6611 306.412 84.6945 307.329 84.6528L308.306 88.969L313.942 87.6935L312.965 83.3772C313.81 83.0201 314.615 82.5987 315.373 82.1155L318.373 85.3614L322.616 81.4389L319.611 78.1888C320.157 77.4644 320.642 76.6959 321.061 75.8912L325.288 77.2034L327.001 71.685L322.779 70.3745C322.889 69.483 322.923 68.5749 322.881 67.6581L327.197 66.6807ZM308.406 76.3241C297.922 78.5096 294.408 62.9747 304.81 60.4342C315.293 58.2486 318.808 73.7835 308.406 76.3241Z" fill="#EB5648"/>
<path d="M258.148 52.1612V79.9654C258.148 84.5841 254.403 88.3266 249.786 88.3266H183.096C178.48 88.3266 174.735 84.5841 174.735 79.9654V52.1612C174.735 47.5446 178.48 43.8 183.096 43.8H249.786C254.403 43.8 258.148 47.5446 258.148 52.1612Z" fill="#7689D6"/>
<path d="M174.735 79.9654C174.735 84.5841 178.48 88.3266 183.096 88.3266H186.509V100.261L202.623 88.3266H249.787C254.403 88.3266 258.148 84.5841 258.148 79.9654V52.1612C226.664 83.6469 174.735 79.9654 174.735 79.9654Z" fill="#677CC1"/>
<path d="M227.603 57.3918H183.184C181.905 57.3918 180.868 56.3551 180.868 55.0761C180.868 53.7971 181.905 52.7604 183.184 52.7604H227.603C230.617 52.7713 230.642 57.3783 227.603 57.3918Z" fill="white"/>
<path d="M201.103 68.3791H183.184C180.161 68.3667 180.151 63.7611 183.184 63.7477H201.103C204.126 63.7603 204.135 68.3659 201.103 68.3791Z" fill="white"/>
<path d="M249.7 68.3791H211.873C210.594 68.3791 209.557 67.3424 209.557 66.0634C209.557 64.7844 210.594 63.7477 211.873 63.7477H249.7C252.716 63.759 252.737 68.3657 249.7 68.3791Z" fill="white"/>
<path d="M219.815 79.3664H183.184C180.167 79.3552 180.146 74.7485 183.184 74.7352H219.815C222.832 74.7464 222.853 79.3531 219.815 79.3664Z" fill="white"/>
<path d="M245.886 43.8C189.664 43.8 176.602 53.1752 174.735 54.8285C174.041 49.2798 177.035 43.8431 183.097 43.8H245.886Z" fill="#8A9EDD"/>
<path d="M392.213 46.1944V73.9986C392.213 78.6172 395.958 82.3598 400.574 82.3598H467.264C471.881 82.3598 475.626 78.6172 475.626 73.9986V46.1944C475.626 41.5778 471.881 37.8332 467.264 37.8332H400.574C395.958 37.8332 392.213 41.5778 392.213 46.1944Z" fill="#7689D6"/>
<path d="M475.626 73.9986C475.626 78.6172 471.881 82.3598 467.264 82.3598H463.851V94.294L447.738 82.3598H400.574C395.957 82.3598 392.213 78.6172 392.213 73.9986V46.1944C423.697 77.6799 475.626 73.9986 475.626 73.9986Z" fill="#677CC1"/>
<path d="M422.758 51.425H467.177C468.456 51.425 469.493 50.3882 469.493 49.1093C469.493 47.8303 468.456 46.7935 467.177 46.7935H422.758C419.744 46.8044 419.719 51.4114 422.758 51.425Z" fill="white"/>
<path d="M449.258 62.4123H467.177C470.2 62.3998 470.21 57.7942 467.177 57.781H449.258C446.235 57.7933 446.226 62.3989 449.258 62.4123Z" fill="white"/>
<path d="M400.661 62.4123H438.488C439.767 62.4123 440.804 61.3755 440.804 60.0966C440.804 58.8177 439.767 57.7809 438.488 57.7809H400.661C397.645 57.792 397.624 62.3987 400.661 62.4123Z" fill="white"/>
<path d="M430.545 73.3994H467.177C470.194 73.3882 470.214 68.7816 467.177 68.7682H430.545C427.529 68.7795 427.508 73.3861 430.545 73.3994Z" fill="white"/>
<path d="M404.475 37.8332C460.697 37.8332 473.759 47.2084 475.626 48.8617C476.32 43.313 473.326 37.8762 467.264 37.8332C467.264 37.8332 404.475 37.8332 404.475 37.8332Z" fill="#8A9EDD"/>
</svg>
