<svg width="52" height="52" viewBox="0 0 52 52" fill="none" xmlns="http://www.w3.org/2000/svg">
<g clip-path="url(#clip0_15_1061)">
<path d="M40 0H12C5.37258 0 0 5.37258 0 12V40C0 46.6274 5.37258 52 12 52H40C46.6274 52 52 46.6274 52 40V12C52 5.37258 46.6274 0 40 0Z" fill="#F8E8FF"/>
<path fill-rule="evenodd" clip-rule="evenodd" d="M21.0135 21.0011C21.0135 18.2013 23.2221 16.0015 26.0331 16.0015C28.844 16.0015 31.0526 18.2013 31.0526 21.0011C31.0526 23.8009 28.844 26.0008 26.0331 26.0008C23.2221 26.0008 21.0135 23.8009 21.0135 21.0011ZM35.0676 33.0005V35.0003C35.0676 35.6003 34.666 36.0003 34.0637 36.0003C33.4613 36.0003 33.0597 35.6003 33.0597 35.0003V33.0005C33.0597 31.3006 31.7546 30.0007 30.048 30.0007H22.0167C20.31 30.0007 19.0049 31.3006 19.0049 33.0005V35.0003C19.0049 35.6003 18.6034 36.0003 18.001 36.0003C17.3987 36.0003 16.9971 35.6003 16.9971 35.0003V33.0005C16.9971 30.2007 19.2057 28.0008 22.0167 28.0008H30.048C32.859 28.0008 35.0676 30.2007 35.0676 33.0005ZM26.0329 24.0009C24.3263 24.0009 23.0212 22.701 23.0212 21.0011C23.0212 19.3013 24.3263 18.0014 26.0329 18.0014C27.7396 18.0014 29.0447 19.3013 29.0447 21.0011C29.0447 22.701 27.7396 24.0009 26.0329 24.0009ZM37.2771 28.2006C36.7752 28.1006 36.1728 28.4006 36.0724 28.9006C35.9721 29.4006 36.2732 30.0005 36.7752 30.1005C38.0803 30.4005 38.9838 31.6004 38.9838 33.0003V35.0002C38.9838 35.6001 39.3854 36.0001 39.9877 36.0001C40.5901 36.0001 40.9916 35.6001 40.9916 35.0002V33.0003C41.092 30.7005 39.5861 28.7006 37.2771 28.2006ZM32.0559 16.9008C32.2567 16.3008 32.7587 16.0009 33.2606 16.2009C35.9712 16.8008 37.5775 19.6006 36.8747 22.4004C36.4732 24.2003 35.0677 25.5002 33.2606 26.0002H33.0599C32.5579 26.0002 32.1563 25.7002 32.0559 25.2002C31.8552 24.7003 32.2567 24.1003 32.7587 24.0003C33.863 23.7003 34.6661 22.9004 34.9673 21.8005C35.3689 20.1006 34.3649 18.5007 32.7587 18.1007C32.2567 18.0007 31.9555 17.4008 32.0559 16.9008ZM14.7232 28.1982C15.2252 28.0982 15.8276 28.3982 15.9279 28.8982C16.0283 29.3981 15.7272 29.9981 15.2252 30.0981C13.9201 30.3981 13.0166 31.598 13.0166 32.9979V34.9978C13.0166 35.5977 12.615 35.9977 12.0127 35.9977C11.4103 35.9977 11.0088 35.5977 11.0088 34.9978V32.9979C10.9084 30.6981 12.4142 28.6982 14.7232 28.1982ZM19.944 16.9004C19.7432 16.3004 19.2412 16.0004 18.7393 16.2004C16.0287 16.8004 14.4224 19.6002 15.1252 22.4C15.5267 24.1998 16.9322 25.4997 18.7393 25.9997H18.94C19.442 25.9997 19.8436 25.6997 19.944 25.1998C20.1447 24.6998 19.7432 24.0998 19.2412 23.9999C18.1369 23.6999 17.3338 22.8999 17.0326 21.8C16.631 20.1001 17.635 18.5002 19.2412 18.1003C19.7432 18.0003 20.0444 17.4003 19.944 16.9004Z" fill="#AE01FF"/>
</g>
<defs>
<clipPath id="clip0_15_1061">
<rect width="52" height="52" fill="white"/>
</clipPath>
</defs>
</svg>
