<svg width="52" height="52" viewBox="0 0 52 52" fill="none" xmlns="http://www.w3.org/2000/svg">
<g clip-path="url(#clip0_15_1087)">
<path d="M40 0H12C5.37258 0 0 5.37258 0 12V40C0 46.6274 5.37258 52 12 52H40C46.6274 52 52 46.6274 52 40V12C52 5.37258 46.6274 0 40 0Z" fill="#F8E8FF"/>
<path d="M17.25 35.625C17.0189 35.622 16.7981 35.5288 16.6346 35.3654C16.4712 35.2019 16.378 34.9811 16.375 34.75V17.25C16.375 17.0179 16.4672 16.7954 16.6313 16.6313C16.7954 16.4672 17.0179 16.375 17.25 16.375C17.4821 16.375 17.7046 16.4672 17.8687 16.6313C18.0328 16.7954 18.125 17.0179 18.125 17.25V34.75C18.122 34.9811 18.0288 35.2019 17.8654 35.3654C17.7019 35.5288 17.4811 35.622 17.25 35.625Z" fill="#AE01FF"/>
<path d="M34.75 35.625H17.25C17.0179 35.625 16.7954 35.5328 16.6313 35.3687C16.4672 35.2046 16.375 34.982 16.375 34.75C16.375 34.5179 16.4672 34.2954 16.6313 34.1313C16.7954 33.9672 17.0179 33.875 17.25 33.875H34.75C34.9821 33.875 35.2046 33.9672 35.3687 34.1313C35.5328 34.2954 35.625 34.5179 35.625 34.75C35.625 34.982 35.5328 35.2046 35.3687 35.3687C35.2046 35.5328 34.9821 35.625 34.75 35.625ZM28.3333 29.2083C28.2184 29.2089 28.1045 29.1864 27.9983 29.1424C27.8921 29.0983 27.7958 29.0334 27.715 28.9517L24.8333 26.07L21.9517 28.9517C21.7858 29.1062 21.5664 29.1904 21.3397 29.1864C21.113 29.1824 20.8968 29.0905 20.7364 28.9302C20.5761 28.7699 20.4843 28.5536 20.4803 28.3269C20.4763 28.1002 20.5604 27.8809 20.715 27.715L24.215 24.215C24.3791 24.0511 24.6015 23.9591 24.8333 23.9591C25.0652 23.9591 25.2876 24.0511 25.4517 24.215L28.3333 27.0967L32.3817 23.0483C32.5475 22.8938 32.7669 22.8096 32.9936 22.8136C33.2203 22.8176 33.4366 22.9094 33.5969 23.0698C33.7572 23.2301 33.849 23.4464 33.853 23.673C33.857 23.8997 33.7729 24.1191 33.6183 24.285L28.9517 28.9517C28.8709 29.0334 28.7746 29.0983 28.6684 29.1424C28.5622 29.1864 28.4483 29.2089 28.3333 29.2083Z" fill="#AE01FF"/>
<path d="M33.5833 28.1468C33.3522 28.1438 33.1314 28.0506 32.968 27.8872C32.8045 27.7237 32.7114 27.5029 32.7083 27.2718V23.9585H29.5C29.2679 23.9585 29.0454 23.8663 28.8813 23.7022C28.7172 23.5381 28.625 23.3155 28.625 23.0835C28.625 22.8514 28.7172 22.6289 28.8813 22.4648C29.0454 22.3007 29.2679 22.2085 29.5 22.2085H33.5833C33.8145 22.2115 34.0353 22.3047 34.1987 22.4681C34.3622 22.6315 34.4553 22.8523 34.4583 23.0835V27.2718C34.4553 27.5029 34.3622 27.7237 34.1987 27.8872C34.0353 28.0506 33.8145 28.1438 33.5833 28.1468Z" fill="#AE01FF"/>
</g>
<defs>
<clipPath id="clip0_15_1087">
<rect width="52" height="52" fill="white"/>
</clipPath>
</defs>
</svg>
