<svg width="276" height="182" viewBox="0 0 276 182" fill="none" xmlns="http://www.w3.org/2000/svg">
<path d="M96.538 69.2621L96.0186 69.1479C96.0186 69.1399 96.0611 68.9529 96.1449 68.6203L96.6604 68.7539C96.5792 69.0745 96.5387 69.2601 96.538 69.2621Z" fill="#323F8B"/>
<path d="M96.9365 67.7207L96.425 67.5745C96.5222 67.2325 96.6246 66.8839 96.7343 66.5373L97.2425 66.6969C97.1354 67.0402 97.0323 67.3868 96.9365 67.7207ZM97.5737 65.6817L97.0702 65.5088C97.1866 65.1662 97.3083 64.8229 97.432 64.4889L97.9309 64.6753C97.8092 65.0065 97.6888 65.3451 97.577 65.6831L97.5737 65.6817ZM98.3146 63.6782L97.8211 63.4778C97.9541 63.1399 98.0978 62.8039 98.2395 62.476L98.7263 62.6904C98.5873 63.0163 98.4483 63.3476 98.3146 63.6802V63.6782ZM99.1686 61.7247L98.6884 61.4943C98.8454 61.1604 99.0077 60.8371 99.1706 60.5239L99.6422 60.771C99.4819 61.0809 99.3229 61.4014 99.1686 61.7267V61.7247ZM100.151 59.84L99.6894 59.5729C99.8723 59.2536 100.061 58.9411 100.249 58.6425L100.698 58.9297C100.513 59.2216 100.329 59.5274 100.151 59.84ZM101.288 58.0495L100.855 57.7396C101.07 57.4377 101.29 57.1452 101.51 56.8714L101.925 57.2053C101.711 57.4724 101.497 57.7563 101.288 58.0495ZM102.612 56.4079L102.223 56.0439C102.476 55.7707 102.737 55.5096 102.998 55.2725L103.356 55.6679C103.106 55.8996 102.855 56.1454 102.612 56.4079ZM166.591 56.3538C166.481 56.0319 166.358 55.6959 166.225 55.352L166.721 55.1583C166.854 55.5056 166.982 55.8489 167.094 56.1775L166.591 56.3538ZM118.146 56.0332L118.141 55.4989C118.478 55.4966 118.815 55.4619 119.146 55.3954L119.252 55.919C118.888 55.9924 118.517 56.0306 118.146 56.0332ZM117.04 55.9531C116.677 55.8991 116.318 55.8241 115.963 55.7287L116.096 55.2124C116.431 55.3024 116.77 55.3734 117.113 55.4248L117.04 55.9531ZM120.318 55.5817L120.106 55.0922C120.416 54.9557 120.712 54.7903 120.992 54.598L121.291 55.0394C120.984 55.2506 120.658 55.4323 120.318 55.5824V55.5817ZM114.922 55.4014C114.599 55.2859 114.257 55.151 113.912 55.0007L114.122 54.5098C114.455 54.6547 114.787 54.7857 115.101 54.8979L114.922 55.4014ZM104.159 55.0007L103.841 54.5726C104.134 54.352 104.439 54.1484 104.756 53.9629L105.022 54.4243C104.724 54.5999 104.437 54.7924 104.162 55.0007H104.159ZM112.929 54.5479L112.73 54.4497C112.477 54.3235 112.223 54.2066 111.974 54.1031L112.178 53.6096C112.438 53.7177 112.704 53.8393 112.967 53.9715L113.162 54.0677L112.929 54.5479ZM165.823 54.3682C165.69 54.049 165.541 53.7211 165.39 53.3932L165.872 53.1688C166.026 53.5027 166.174 53.8366 166.312 54.1572L165.823 54.3682ZM122.154 54.3502L121.796 53.9555C122.037 53.7351 122.276 53.488 122.527 53.2115L122.922 53.5688C122.659 53.862 122.408 54.1178 122.154 54.3502ZM105.947 53.9629L105.741 53.47C106.08 53.3267 106.429 53.2073 106.786 53.1127L106.919 53.6296C106.587 53.7177 106.263 53.829 105.947 53.9629ZM110.994 53.7551C110.662 53.6553 110.325 53.5752 109.985 53.5154L110.075 52.9891C110.437 53.0522 110.794 53.137 111.146 53.2429L110.994 53.7551ZM107.929 53.4426L107.872 52.9083C108.239 52.8684 108.608 52.8552 108.977 52.8689L108.958 53.4032C108.615 53.3904 108.271 53.4025 107.929 53.4393V53.4426ZM123.622 52.7387L123.204 52.4047C123.404 52.1503 123.616 51.8705 123.846 51.5586L124.275 51.8745C124.04 52.1937 123.826 52.4762 123.622 52.7353V52.7387ZM164.93 52.4335C164.774 52.1189 164.611 51.799 164.445 51.4824L164.915 51.2333C165.083 51.5539 165.248 51.8778 165.406 52.1964L164.93 52.4335ZM124.901 51.0002L124.466 50.6924C124.665 50.4079 124.869 50.1149 125.076 49.8135L125.513 50.118C125.304 50.4177 125.1 50.7106 124.901 50.9969V51.0002ZM163.937 50.5434C163.766 50.2355 163.587 49.9237 163.405 49.6164L163.863 49.3453C164.046 49.6558 164.226 49.9717 164.399 50.2803L163.937 50.5434ZM126.122 49.2364L125.685 48.9306C125.918 48.5966 126.114 48.3161 126.301 48.0503L126.736 48.3595C126.549 48.62 126.354 48.8992 126.122 49.2331V49.2364ZM162.857 48.7021C162.671 48.4003 162.479 48.0971 162.286 47.8005L162.731 47.508C162.926 47.8085 163.121 48.1151 163.309 48.4203L162.857 48.7021ZM127.358 47.4913L126.928 47.1761C127.145 46.8776 127.361 46.587 127.57 46.3112L127.994 46.6345C127.784 46.9083 127.574 47.1888 127.358 47.488V47.4913ZM161.694 46.9123C161.494 46.6198 161.287 46.3252 161.081 46.0387L161.512 45.7262C161.721 46.016 161.93 46.3139 162.132 46.6097L161.694 46.9123ZM128.646 45.7916L128.229 45.4577C128.455 45.1725 128.683 44.8914 128.908 44.6202L129.317 44.9628C129.095 45.228 128.869 45.5064 128.646 45.7883V45.7916ZM160.448 45.1805C160.233 44.8967 160.013 44.6142 159.794 44.339L160.209 44.0051C160.431 44.2829 160.654 44.5701 160.874 44.8573L160.448 45.1805ZM130.007 44.1534L129.608 43.8007C129.846 43.5296 130.088 43.2598 130.329 42.9993L130.72 43.3633C130.481 43.6164 130.241 43.8822 130.007 44.15V44.1534ZM159.117 43.5142C158.886 43.2404 158.651 42.9699 158.418 42.7128L158.817 42.3555C159.053 42.6226 159.291 42.8945 159.525 43.1716L159.117 43.5142ZM131.451 42.5912L131.071 42.2173C131.321 41.9608 131.578 41.705 131.835 41.4559L132.204 41.8406C131.951 42.0823 131.697 42.3348 131.451 42.5879V42.5912ZM157.697 41.9234C157.452 41.6649 157.202 41.4098 156.954 41.1654L157.327 40.784C157.579 41.0331 157.833 41.2923 158.082 41.5547L157.697 41.9234ZM132.979 41.1086L132.62 40.7139C132.887 40.4721 133.153 40.231 133.427 39.998L133.773 40.4027C133.506 40.6331 133.239 40.8729 132.979 41.1086ZM156.185 40.4314C155.923 40.1896 155.653 39.9525 155.391 39.7268L155.736 39.3201C156.002 39.5498 156.277 39.7916 156.545 40.038L156.185 40.4314ZM134.588 39.7201L134.255 39.3054C134.532 39.0797 134.816 38.8546 135.1 38.6375L135.424 39.0616C135.141 39.2753 134.861 39.4977 134.588 39.7201ZM154.571 39.0523C154.29 38.8312 154.006 38.6175 153.724 38.4151L154.034 37.9804C154.321 38.1867 154.612 38.4058 154.898 38.6315L154.571 39.0523ZM136.272 38.4212L135.96 37.9884C136.248 37.7793 136.545 37.5703 136.841 37.3666L137.141 37.8081C136.849 38.0104 136.557 38.2168 136.272 38.4232V38.4212ZM152.851 37.8201C152.551 37.6271 152.248 37.4414 151.949 37.2698L152.215 36.8023C152.522 36.9793 152.833 37.1696 153.14 37.3679L152.851 37.8201ZM138.026 37.235L137.751 36.7776C138.064 36.5879 138.384 36.4082 138.699 36.2433L138.943 36.7181C138.638 36.8777 138.33 37.0514 138.026 37.2357V37.235ZM151.02 36.7675C150.703 36.6086 150.381 36.4597 150.064 36.3254L150.272 35.8332C150.598 35.9721 150.93 36.1257 151.258 36.2894L151.02 36.7675ZM139.892 36.2646L139.681 35.7744C140.017 35.6288 140.359 35.4966 140.698 35.3797L140.87 35.8853C140.543 35.9975 140.215 36.1311 139.892 36.2646ZM149.084 35.9481C148.751 35.8325 148.413 35.7297 148.081 35.6415L148.214 35.1246C148.559 35.2161 148.909 35.325 149.254 35.4432L149.084 35.9481ZM141.874 35.5881L141.74 35.0698C142.094 34.9797 142.453 34.9042 142.809 34.8454L142.896 35.3724C142.557 35.4292 142.212 35.5013 141.874 35.5881ZM147.061 35.4151C146.717 35.3524 146.369 35.3036 146.026 35.2702L146.078 34.7359C146.435 34.7713 146.798 34.8221 147.157 34.8875L147.061 35.4151ZM143.935 35.2468L143.895 34.7125C144.256 34.6852 144.626 34.6725 144.986 34.6771L144.98 35.2114C144.634 35.2094 144.282 35.2201 143.935 35.2468Z" fill="#323F8B"/>
<path d="M167.047 57.8852C167.007 57.7236 166.962 57.5512 166.914 57.3776L167.426 57.2313C167.477 57.4123 167.524 57.5886 167.565 57.7563L167.047 57.8852Z" fill="#323F8B"/>
<path d="M139.494 108.445H107.957C107.175 108.444 106.425 108.132 105.871 107.577C105.318 107.021 105.007 106.268 105.006 105.483V92.7266C105.007 91.9413 105.319 91.1884 105.872 90.6331C106.425 90.0779 107.175 89.7655 107.957 89.7647H139.494C140.276 89.7655 141.026 90.0779 141.579 90.6331C142.132 91.1884 142.443 91.9413 142.444 92.7266V105.483C142.443 106.268 142.132 107.021 141.579 107.577C141.026 108.132 140.276 108.444 139.494 108.445ZM107.957 90.3023C107.316 90.303 106.701 90.559 106.248 91.0141C105.794 91.4692 105.539 92.0863 105.538 92.73V105.486C105.539 106.13 105.794 106.747 106.248 107.202C106.701 107.658 107.316 107.914 107.957 107.914H139.494C140.135 107.914 140.75 107.658 141.203 107.202C141.656 106.747 141.911 106.13 141.912 105.486V92.73C141.911 92.0863 141.656 91.4692 141.203 91.0141C140.749 90.559 140.135 90.303 139.494 90.3023H107.957Z" fill="#DBDBDD"/>
<path d="M265.59 114.842C265.566 113.506 265.564 113.44 265.54 112.098L263.855 111.465L262.957 109.678L263.453 107.941L261.285 106.271L259.743 107.199L257.792 106.789L256.749 105.32L254.097 105.98L253.858 107.769L252.322 109.045L250.526 108.947L249.386 111.44L250.63 112.743C250.644 113.512 250.653 113.975 250.667 114.747L249.469 116.095L250.7 118.544L252.49 118.38L254.071 119.599L254.375 121.379L257.05 121.94L258.038 120.432L259.974 119.951L261.548 120.819L263.653 119.07L263.095 117.354L263.927 115.535L265.59 114.842ZM257.371 117.859C256.541 117.838 255.735 117.57 255.057 117.089C254.378 116.609 253.857 115.937 253.558 115.159C253.26 114.381 253.198 113.531 253.38 112.718C253.563 111.904 253.981 111.163 254.583 110.589C255.185 110.014 255.943 109.632 256.761 109.489C257.579 109.347 258.421 109.452 259.18 109.79C259.939 110.129 260.581 110.685 261.025 111.39C261.469 112.095 261.695 112.916 261.674 113.749C261.646 114.867 261.177 115.928 260.37 116.699C259.563 117.47 258.484 117.887 257.371 117.859Z" fill="#DBDBDD"/>
<path d="M107.358 81.5454C107.333 80.2096 107.332 80.1429 107.308 78.8025L105.623 78.17C105.278 77.4834 105.071 77.07 104.726 76.3828L105.221 74.6464L103.054 72.9767L101.512 73.9051L99.5603 73.495L98.5181 72.0257L95.8656 72.6849L95.6262 74.4741L94.0911 75.751L92.2953 75.6522L91.1553 78.1453L92.3997 79.449C92.4137 80.2183 92.4216 80.6811 92.4356 81.4525L91.2384 82.8003L92.4689 85.25L94.2594 85.0857L95.8403 86.3052L96.1443 88.0843L98.8187 88.646L99.8077 87.138L101.743 86.6571L103.318 87.5254L105.423 85.7756L104.865 84.0598C105.184 83.3606 105.377 82.9398 105.697 82.2406L107.358 81.5454ZM99.1386 84.5627C98.3083 84.5419 97.5027 84.2742 96.8239 83.7936C96.145 83.313 95.6233 82.6411 95.3248 81.8628C95.0263 81.0845 94.9643 80.2347 95.1467 79.4211C95.3292 78.6074 95.7478 77.8663 96.3497 77.2915C96.9516 76.7168 97.7097 76.3341 98.5282 76.192C99.3466 76.0499 100.189 76.1547 100.948 76.4932C101.707 76.8316 102.349 77.3885 102.793 78.0934C103.237 78.7983 103.463 79.6196 103.442 80.4534C103.428 81.0071 103.306 81.5526 103.082 82.0589C102.859 82.5652 102.538 83.0222 102.138 83.404C101.739 83.7857 101.268 84.0846 100.753 84.2837C100.239 84.4827 99.69 84.578 99.1386 84.5641V84.5627Z" fill="#DBDBDD"/>
<path d="M244.355 158.245C234.347 164.996 214.433 178.039 209.972 178.039C203.954 178.039 114.318 161.958 114.318 161.958L121.521 147.385C125.459 147.324 129.447 147.294 133.486 147.293C181.98 147.293 223.972 151.75 244.355 158.245Z" fill="#DBDBDD"/>
<path d="M62.8886 166.349C83.9015 166.349 100.936 164.384 100.936 161.959C100.936 159.534 83.9015 157.568 62.8886 157.568C41.8758 157.568 24.8416 159.534 24.8416 161.959C24.8416 164.384 41.8758 166.349 62.8886 166.349Z" fill="#DBDBDD"/>
<path d="M70.614 158.26C70.4484 157.95 70.3686 157.778 70.3652 157.771L70.8474 157.545C70.8474 157.545 70.9252 157.712 71.0829 158.007L70.614 158.26Z" fill="#323F8B"/>
<path d="M108.799 178.303C108.442 178.3 108.082 178.293 107.727 178.284L107.741 177.75C108.092 177.759 108.45 177.766 108.805 177.769L108.799 178.303ZM109.872 178.303L109.865 177.769C110.221 177.764 110.577 177.754 110.922 177.738L110.946 178.272C110.595 178.287 110.234 178.298 109.872 178.302V178.303ZM106.654 178.246C106.297 178.23 105.937 178.211 105.584 178.189L105.617 177.655C105.967 177.677 106.324 177.695 106.681 177.711L106.654 178.246ZM112.02 178.205L111.977 177.671C112.331 177.643 112.685 177.608 113.029 177.567L113.091 178.097C112.741 178.14 112.38 178.176 112.02 178.204V178.205ZM104.514 178.112C104.156 178.083 103.797 178.05 103.446 178.015L103.499 177.481C103.847 177.516 104.203 177.548 104.557 177.578L104.514 178.112ZM114.158 177.952L114.075 177.424C114.424 177.368 114.773 177.305 115.113 177.236L115.218 177.76C114.87 177.83 114.514 177.894 114.158 177.951L114.158 177.952ZM102.38 177.898C102.027 177.855 101.669 177.808 101.316 177.759L101.39 177.23C101.739 177.279 102.093 177.325 102.443 177.367L102.38 177.898ZM100.256 177.599C99.9055 177.542 99.5496 177.481 99.1985 177.417L99.2936 176.891C99.6414 176.955 99.9933 177.016 100.34 177.071L100.256 177.599ZM116.27 177.521L116.141 177.002C116.482 176.917 116.823 176.823 117.156 176.722L117.309 177.234C116.968 177.336 116.618 177.432 116.267 177.52L116.27 177.521ZM98.1449 177.213C97.7938 177.14 97.4406 177.064 97.0954 176.986L97.2131 176.465C97.555 176.543 97.9042 176.618 98.2507 176.689L98.1449 177.213ZM118.335 176.897L118.158 176.394C118.486 176.278 118.818 176.151 119.144 176.018L119.343 176.514C119.01 176.648 118.67 176.782 118.334 176.897L118.335 176.897ZM96.0538 176.736C95.7073 176.649 95.3574 176.557 95.0156 176.463L95.1559 175.948C95.4945 176.041 95.8397 176.132 96.1829 176.218L96.0538 176.736ZM93.9833 176.167C93.6408 176.064 93.2956 175.956 92.9584 175.846L93.1227 175.338C93.4552 175.447 93.7971 175.553 94.1356 175.654L93.9833 176.167ZM159.714 176.156C159.361 176.147 158.997 176.13 158.635 176.104L158.673 175.57C159.027 175.595 159.381 175.612 159.727 175.62L159.714 176.156ZM160.796 176.156L160.78 175.622C161.133 175.612 161.486 175.591 161.829 175.562L161.875 176.096C161.519 176.121 161.156 176.141 160.793 176.152L160.796 176.156ZM120.336 176.089L120.115 175.603C120.425 175.461 120.745 175.306 121.066 175.143L121.306 175.62C120.976 175.78 120.649 175.939 120.332 176.085L120.336 176.089ZM157.561 176.007C157.21 175.966 156.85 175.917 156.492 175.86L156.574 175.333C156.926 175.388 157.278 175.436 157.622 175.476L157.561 176.007ZM162.948 175.968L162.87 175.439C163.218 175.387 163.565 175.323 163.901 175.25L164.015 175.771C163.666 175.843 163.308 175.909 162.948 175.963L162.948 175.968ZM155.428 175.672C155.082 175.605 154.727 175.528 154.375 175.446L154.495 174.925C154.842 175.006 155.19 175.081 155.53 175.148L155.428 175.672ZM91.9381 175.506C91.6002 175.387 91.261 175.263 90.9291 175.137L91.1173 174.637C91.4446 174.762 91.7825 174.884 92.115 175.001L91.9381 175.506ZM165.067 175.502L164.917 174.99C165.253 174.89 165.587 174.779 165.909 174.656L166.097 175.156C165.762 175.278 165.414 175.395 165.066 175.497L165.067 175.502ZM153.33 175.179C152.989 175.088 152.64 174.99 152.294 174.888L152.449 174.378C152.79 174.479 153.133 174.578 153.47 174.665L153.33 175.179ZM122.253 175.112L121.998 174.645C122.29 174.485 122.592 174.314 122.922 174.123L123.188 174.586C122.855 174.778 122.549 174.951 122.253 175.112ZM89.9281 174.739C89.5956 174.605 89.263 174.464 88.9385 174.321L89.15 173.831C89.4725 173.971 89.8018 174.11 90.1283 174.243L89.9281 174.739ZM167.098 174.727L166.872 174.243C167.188 174.095 167.5 173.933 167.8 173.76L168.066 174.225C167.751 174.404 167.426 174.574 167.098 174.728V174.727ZM151.268 174.569C150.936 174.459 150.591 174.343 150.25 174.222L150.427 173.718C150.764 173.837 151.102 173.953 151.432 174.06L151.268 174.569ZM124.115 174.044L123.844 173.584L124.269 173.331C124.433 173.233 124.597 173.135 124.761 173.038L125.032 173.497L124.54 173.79L124.115 174.044ZM87.9601 173.881C87.6368 173.73 87.3109 173.573 86.9917 173.414L87.2284 172.935C87.543 173.092 87.865 173.247 88.1842 173.396L87.9601 173.881ZM149.244 173.854C149.038 173.776 148.832 173.695 148.624 173.613L148.247 173.465L148.439 172.967L148.819 173.116C149.025 173.198 149.23 173.277 149.432 173.354L149.244 173.854ZM168.989 173.648L168.689 173.207C168.975 173.01 169.257 172.799 169.527 172.58L169.86 172.995C169.579 173.221 169.285 173.443 168.987 173.643L168.989 173.648ZM147.252 173.085C146.92 172.959 146.582 172.836 146.255 172.719L146.433 172.215C146.765 172.334 147.103 172.458 147.44 172.584L147.252 173.085ZM125.951 172.96L125.685 172.496C126.024 172.301 126.331 172.13 126.624 171.973L126.875 172.443C126.586 172.597 126.283 172.765 125.949 172.958L125.951 172.96ZM86.0352 172.923C85.7193 172.755 85.402 172.582 85.0914 172.407L85.3522 171.94C85.6581 172.112 85.972 172.284 86.2833 172.449L86.0352 172.923ZM145.249 172.368C144.907 172.252 144.567 172.141 144.239 172.034L144.4 171.524C144.732 171.631 145.075 171.743 145.418 171.858L145.249 172.368ZM170.68 172.274L170.314 171.887C170.565 171.648 170.81 171.395 171.046 171.134L171.441 171.492C171.194 171.761 170.939 172.024 170.678 172.272L170.68 172.274ZM127.816 171.964L127.585 171.482C127.917 171.321 128.25 171.172 128.57 171.038L128.775 171.53C128.461 171.659 128.138 171.805 127.814 171.962L127.816 171.964ZM84.1616 171.867C83.8557 171.684 83.5477 171.494 83.2458 171.303L83.5298 170.851C83.8277 171.04 84.1323 171.227 84.4336 171.408L84.1616 171.867ZM143.224 171.723C142.88 171.621 142.536 171.523 142.202 171.433L142.341 170.917C142.679 171.009 143.026 171.108 143.374 171.211L143.224 171.723ZM141.174 171.167C140.826 171.082 140.478 171.002 140.141 170.93L140.253 170.408C140.594 170.481 140.946 170.561 141.301 170.648L141.174 171.167ZM129.756 171.156L129.583 170.651C129.925 170.533 130.274 170.425 130.618 170.332L130.757 170.849C130.422 170.936 130.084 171.038 129.753 171.154L129.756 171.156ZM139.103 170.725C138.749 170.658 138.398 170.604 138.058 170.555L138.133 170.026C138.479 170.076 138.837 170.134 139.197 170.199L139.103 170.725ZM82.3452 170.714C82.0479 170.513 81.7499 170.308 81.4599 170.102L81.7679 169.666C82.0539 169.866 82.3478 170.072 82.6412 170.267L82.3452 170.714ZM172.139 170.655L171.718 170.327C171.931 170.054 172.137 169.766 172.332 169.473L172.775 169.77C172.57 170.072 172.356 170.37 172.136 170.653L172.139 170.655ZM131.776 170.611L131.675 170.087C132.024 170.02 132.384 169.961 132.744 169.916L132.811 170.446C132.459 170.488 132.112 170.543 131.774 170.609L131.776 170.611ZM137.009 170.428C136.654 170.392 136.3 170.365 135.957 170.347L135.985 169.813C136.336 169.831 136.699 169.859 137.062 169.896L137.009 170.428ZM133.853 170.35L133.822 169.816C134.175 169.795 134.539 169.784 134.904 169.784V170.318C134.547 170.317 134.193 170.328 133.851 170.348L133.853 170.35ZM80.5913 169.466C80.3053 169.25 80.0186 169.029 79.7399 168.807L80.0725 168.388C80.3472 168.607 80.6299 168.826 80.9125 169.039L80.5913 169.466ZM173.347 168.843L172.886 168.576C173.059 168.274 173.225 167.96 173.38 167.641L173.857 167.877C173.695 168.204 173.523 168.528 173.345 168.841L173.347 168.843ZM78.9066 168.126C78.6325 167.895 78.3585 167.658 78.0911 167.421L78.4436 167.02C78.7097 167.254 78.9757 167.488 79.2478 167.715L78.9066 168.126ZM174.305 166.887L173.813 166.682C173.946 166.357 174.074 166.024 174.185 165.694L174.689 165.867C174.571 166.205 174.441 166.549 174.302 166.885L174.305 166.887ZM77.291 166.692C77.0303 166.448 76.7689 166.196 76.5155 165.944L76.8919 165.562C77.142 165.81 77.3994 166.058 77.6568 166.3L77.291 166.692ZM75.7612 165.175C75.5138 164.915 75.2671 164.649 75.0296 164.384L75.424 164.026C75.6595 164.287 75.9029 164.549 76.147 164.805L75.7612 165.175ZM74.3173 163.572C74.0852 163.298 73.8517 163.019 73.6309 162.74L74.0452 162.406C74.2654 162.681 74.4929 162.956 74.7223 163.226L74.3173 163.572ZM72.9678 161.889C72.7503 161.599 72.5361 161.306 72.3319 161.015L72.7662 160.706C72.9658 160.992 73.1779 161.281 73.3921 161.567L72.9678 161.889ZM71.724 160.12C71.5245 159.812 71.3289 159.503 71.1487 159.203L71.6043 158.927C71.7812 159.221 71.9708 159.528 72.169 159.827L71.724 160.12Z" fill="#323F8B"/>
<path d="M175.015 164.764L174.5 164.63C174.58 164.315 174.614 164.131 174.614 164.129L175.138 164.222C175.137 164.232 175.101 164.426 175.015 164.764Z" fill="#323F8B"/>
<path d="M174.876 164.177C203.311 164.177 226.363 142.07 226.363 114.799C226.363 87.5286 203.311 65.4213 174.876 65.4213C146.44 65.4213 123.388 87.5286 123.388 114.799C123.388 142.07 146.44 164.177 174.876 164.177Z" fill="#ECEDF2"/>
<path d="M155.908 115.253L169.232 48.1118C169.494 46.7909 170.24 45.6168 171.323 44.8213C172.405 44.0259 173.745 43.6669 175.078 43.8154L262.103 52.5443C263.148 53.299 264.124 54.1447 265.021 55.0715C265.645 55.718 266.098 56.5119 266.337 57.3802C266.577 58.2485 266.595 59.1633 266.389 60.0404L250.457 128.537C250.155 129.836 249.383 130.977 248.29 131.736C247.198 132.496 245.863 132.822 244.546 132.649L160.47 121.64C159.328 121.493 158.264 120.979 157.437 120.174C157.283 120.024 155.648 118.672 155.512 118.505C154.547 117.307 155.582 116.894 155.908 115.253Z" fill="#A5A6A9"/>
<path d="M153.288 113.013L166.616 45.8711C166.878 44.5503 167.624 43.3761 168.706 42.5807C169.788 41.7852 171.128 41.4263 172.461 41.5748L259.142 51.2246C259.895 51.3084 260.622 51.5514 261.274 51.9377C261.926 52.3241 262.49 52.8449 262.927 53.4659C263.365 54.0869 263.666 54.7939 263.811 55.5404C263.956 56.2868 263.942 57.0557 263.77 57.7964L247.838 126.297C247.535 127.596 246.763 128.736 245.671 129.496C244.578 130.256 243.244 130.581 241.926 130.409L157.851 119.4C157.123 119.305 156.422 119.06 155.793 118.682C155.163 118.304 154.617 117.8 154.189 117.201C153.761 116.602 153.461 115.921 153.306 115.201C153.151 114.48 153.145 113.736 153.288 113.013Z" fill="#DBDBDD"/>
<path d="M261.782 57.3322C261.888 56.8737 261.897 56.3977 261.807 55.9356C261.717 55.4736 261.531 55.0359 261.26 54.6514C260.989 54.2669 260.641 53.9444 260.237 53.7051C259.833 53.4658 259.383 53.3151 258.917 53.2629L172.234 43.6111C172.111 43.5978 171.987 43.5911 171.863 43.591C171.097 43.5937 170.356 43.8619 169.764 44.3502C169.172 44.8386 168.766 45.5171 168.615 46.2711L166.629 56.2803L259.246 68.235L261.782 57.3322Z" fill="#FFB701"/>
<path d="M166.629 56.281L156.593 106.848L155.289 113.413C155.201 113.861 155.204 114.322 155.3 114.768C155.396 115.214 155.583 115.635 155.848 116.006C156.112 116.376 156.45 116.689 156.84 116.923C157.23 117.157 157.664 117.308 158.114 117.367L174.971 119.574L217.549 125.149L242.19 128.376C242.334 128.395 242.479 128.405 242.624 128.405C243.373 128.407 244.1 128.153 244.686 127.685C245.272 127.217 245.682 126.563 245.849 125.83L254.576 88.3108L259.246 68.2336L166.629 56.281Z" fill="white"/>
<path d="M242.624 128.538C242.473 128.539 242.323 128.528 242.173 128.508L217.531 125.282L174.954 119.707L158.097 117.499C157.628 117.438 157.177 117.281 156.772 117.037C156.366 116.794 156.015 116.469 155.74 116.083C155.464 115.698 155.271 115.26 155.171 114.796C155.071 114.332 155.067 113.853 155.159 113.387L156.462 106.822L166.498 56.2549C166.504 56.2216 166.523 56.192 166.551 56.1722C166.578 56.1523 166.612 56.1437 166.646 56.1481L259.266 68.1014C259.284 68.1038 259.302 68.1101 259.318 68.1198C259.334 68.1295 259.348 68.1425 259.358 68.1578C259.369 68.1732 259.376 68.1906 259.379 68.2089C259.383 68.2273 259.383 68.2462 259.378 68.2644L245.982 125.861C245.808 126.624 245.38 127.304 244.77 127.791C244.16 128.277 243.403 128.541 242.624 128.538ZM166.735 56.4293L156.723 106.874L155.421 113.44C155.335 113.869 155.339 114.311 155.431 114.74C155.523 115.168 155.702 115.572 155.956 115.928C156.21 116.284 156.534 116.583 156.909 116.808C157.283 117.033 157.699 117.178 158.132 117.235L174.989 119.442L217.563 125.017L242.206 128.244C242.344 128.262 242.483 128.271 242.622 128.271C243.341 128.273 244.038 128.029 244.601 127.58C245.163 127.131 245.557 126.504 245.718 125.8L259.081 68.3472L166.735 56.4293Z" fill="#DBDBDD"/>
<path d="M254.576 88.3108L245.849 125.83C245.682 126.563 245.272 127.217 244.686 127.685C244.1 128.153 243.373 128.407 242.624 128.405C242.479 128.405 242.334 128.395 242.19 128.376L217.549 125.149L174.971 119.574L158.114 117.367C157.664 117.308 157.23 117.157 156.84 116.923C156.45 116.689 156.112 116.376 155.848 116.006C155.583 115.635 155.396 115.214 155.3 114.768C155.204 114.322 155.201 113.861 155.289 113.414L156.593 106.848C160.444 108.464 166.626 110.371 173.112 109.586C183.783 108.292 200.663 103.438 219.289 107.327C236.732 110.967 244.272 90.0352 254.576 88.3108Z" fill="#CAE2F5"/>
<path d="M150.974 127.714L107.452 154.315V160.073L208.458 174.899L209.972 174.42C208.753 173.217 207.679 172.805 209.155 170.012L200.36 131.172L150.974 127.714Z" fill="#A5A6A9"/>
<path d="M245.541 134.338L200.36 131.173L209.155 170.012C208.264 171.489 207.783 173.843 208.377 174.631C208.681 175.036 210.156 174.336 210.156 174.336L241.441 144.118C242.739 142.845 243.77 141.324 244.475 139.644C245.179 137.964 245.541 136.16 245.541 134.338Z" fill="#A5A6A9"/>
<path d="M150.974 121.955L245.541 134.338L209.155 170.012L107.452 154.315L150.974 121.955Z" fill="#F2F4FC"/>
<path d="M118.398 146.251C118.342 146.252 118.287 146.234 118.242 146.201C118.196 146.168 118.162 146.121 118.145 146.067C118.127 146.014 118.127 145.956 118.144 145.902C118.162 145.849 118.195 145.802 118.241 145.769L150.817 121.74C150.872 121.7 150.941 121.682 151.009 121.691L166.663 123.741C166.731 123.752 166.791 123.789 166.832 123.845C166.873 123.9 166.891 123.969 166.882 124.037C166.874 124.106 166.839 124.168 166.786 124.211C166.733 124.255 166.665 124.276 166.596 124.27L151.047 122.235L118.557 146.199C118.511 146.234 118.456 146.252 118.398 146.251Z" fill="#B8B8C1"/>
<path d="M151.374 127.934L233.146 139.427L216.534 155.682L130.988 142.435L151.374 127.934Z" fill="#DBDBDD"/>
<path d="M155.668 151.305L177.108 154.334L170.405 160.893L147.443 157.156L155.668 151.305Z" fill="#29346D"/>
<path d="M159.015 0L146.382 5.52051L150.056 8.01829L139.116 24.497L129.858 22.9896L117.348 42.5859L102.002 42.2513L83.3203 63.188L87.3236 68.2123L106.005 47.2756L121.351 47.6109L132.193 28.1816L143.119 29.522L155.114 11.4551L158.606 13.8293L159.015 0Z" fill="#FFB701"/>
<path d="M34.3673 161.047C27.4668 161.047 21.8525 155.409 21.8525 148.479V46.6732C21.8525 39.7435 27.4668 34.1061 34.3673 34.1061H82.9444C89.845 34.1061 95.4592 39.7435 95.4592 46.6732V148.479C95.4608 150.13 95.1382 151.765 94.5098 153.29C93.8815 154.816 92.9597 156.202 91.7973 157.369C90.6349 158.536 89.2547 159.462 87.7356 160.093C86.2165 160.724 84.5884 161.048 82.9444 161.047H34.3673Z" fill="#091558"/>
<path d="M38.5875 161.047C31.687 161.047 26.0728 155.409 26.0728 148.479V46.6732C26.0728 39.7435 31.687 34.1061 38.5875 34.1061H87.1653C94.0665 34.1061 99.6807 39.7435 99.6807 46.6732V148.479C99.6823 150.13 99.3597 151.765 98.7313 153.291C98.1029 154.816 97.1811 156.202 96.0186 157.369C94.8561 158.537 93.4758 159.462 91.9567 160.093C90.4375 160.725 88.8093 161.049 87.1653 161.047H38.5875Z" fill="white"/>
<path d="M87.1653 161.181H38.5875C31.6131 161.181 25.9397 155.483 25.9397 148.479V46.6725C25.9397 39.67 31.6131 33.9726 38.5875 33.9726H87.1653C94.1397 33.9726 99.8137 39.67 99.8137 46.6725V148.479C99.8153 150.148 99.4892 151.8 98.8541 153.342C98.2191 154.883 97.2875 156.284 96.1126 157.464C94.9378 158.644 93.5428 159.579 92.0076 160.217C90.4723 160.855 88.8268 161.182 87.1653 161.181ZM38.5875 34.2397C31.7601 34.2397 26.2057 39.817 26.2057 46.6725V148.479C26.2057 155.336 31.7601 160.913 38.5875 160.913H87.1653C88.7914 160.913 90.4016 160.592 91.904 159.967C93.4063 159.342 94.7714 158.426 95.9212 157.272C97.071 156.117 97.9831 154.746 98.6053 153.238C99.2276 151.729 99.5478 150.112 99.5477 148.479V46.6725C99.5477 39.817 93.9927 34.2397 87.1653 34.2397H38.5875Z" fill="#DBDBDD"/>
<path d="M96.2788 46.6732V148.479C96.2798 149.681 96.0448 150.871 95.5872 151.982C95.1296 153.092 94.4584 154.101 93.6121 154.951C92.7658 155.801 91.7609 156.475 90.655 156.934C89.549 157.394 88.3637 157.63 87.1668 157.629H38.5876C36.171 157.629 33.8533 156.665 32.1444 154.949C30.4356 153.233 29.4756 150.906 29.4756 148.479V46.6732C29.4756 44.2466 30.4356 41.9193 32.1444 40.2034C33.8533 38.4875 36.171 37.5236 38.5876 37.5236H87.1655C88.3622 37.5234 89.5472 37.7599 90.6529 38.2196C91.7586 38.6794 92.7632 39.3533 93.6095 40.203C94.4558 41.0526 95.1271 42.0613 95.5851 43.1715C96.0431 44.2817 96.2788 45.4715 96.2788 46.6732Z" fill="#CAE2F5"/>
<path d="M58.2881 133.839C56.2717 134.129 54.2256 134.148 52.2043 133.894C40.0992 132.321 36.1644 123.375 30.0747 114.271C29.893 113.999 29.693 113.741 29.4761 113.496V148.48C29.4761 150.907 30.4361 153.234 32.1449 154.95C33.8538 156.666 36.1715 157.63 38.5881 157.63H87.1659C88.3628 157.631 89.5481 157.395 90.6541 156.935C91.7601 156.476 92.7649 155.802 93.6113 154.952C94.4576 154.102 95.1287 153.093 95.5863 151.983C96.0439 150.872 96.2789 149.682 96.278 148.48V112.553C96.278 113.616 87.4 118.718 86.1816 119.598C82.5713 122.203 78.9525 124.814 75.1128 127.075C69.9083 130.139 64.336 132.998 58.2881 133.839Z" fill="#B6CBDC"/>
<path d="M89.257 157.389C88.5714 157.55 87.8695 157.631 87.1653 157.631H46.0866C46.0201 145.267 51.1308 128.018 51.1308 128.018C51.1308 128.018 51.5565 128.004 52.328 127.988C57.0503 127.889 74.7117 127.692 87.2165 129.868C88.1769 140.311 88.9085 151.627 89.257 157.389Z" fill="#182462"/>
<path d="M74.0446 136.199C74.0446 136.199 58.0154 140.243 54.0826 138.782C52.7843 143.524 51.0157 152.055 49.901 157.631H46.0866C46.0201 145.267 51.1308 128.018 51.1308 128.018C51.1308 128.018 51.5565 128.003 52.328 127.988L64.9651 131.476L74.0446 136.199Z" fill="#060E3D"/>
<path d="M115.493 112.066C115.493 112.772 115.072 114.224 114.319 116.066C110.786 124.724 99.9529 142.009 91.2399 131.087C85.653 124.087 85.3869 109.702 85.3869 109.702L85.3417 107.758L84.803 84.5768C84.803 84.5768 93.2965 84.9775 95.8192 103.544C97.8106 118.203 98.3307 117.74 99.6822 118.519C101.034 119.299 108.456 107.55 108.456 107.55C108.456 107.55 111.813 107.379 114.606 110.808C114.929 111.207 115.226 111.627 115.493 112.066Z" fill="white"/>
<path d="M114.318 116.066C110.784 124.724 99.9515 142.008 91.2385 131.086C85.6516 124.087 85.3856 109.702 85.3856 109.702L85.3403 107.757L89.5971 99.6222C89.5971 99.6222 91.6203 103.148 91.6203 112.417C91.6203 121.686 92.0566 131.484 98.314 132.503C104.526 133.514 114.172 116.327 114.318 116.066Z" fill="#DBDBDD"/>
<path d="M145.424 92.5496C145.424 92.5496 136.003 91.8056 134.886 92.2371C133.77 92.6685 130.172 97.0089 130.172 97.0089C130.172 97.0089 132.357 100.949 134.769 101.622C137.18 102.294 141.25 99.5815 142.53 99.084C143.81 98.5864 151.212 100.424 151.212 100.424L152.813 92.8255L145.424 92.5496Z" fill="#FF7976"/>
<path d="M191.201 28.8855C191.201 28.8855 188.252 30.7375 187.239 35.7344C180.9 40.6812 188.201 47.0211 187.728 48.3335C180.093 51.7529 177.635 56.458 183.662 57.7563C189.69 59.0546 200.869 63.58 200.133 52.5223C199.398 41.4646 191.201 28.8855 191.201 28.8855Z" fill="#091558"/>
<path d="M193.103 74.6177C193.103 74.6177 192.783 78.1026 188.952 85.0035C187.327 87.9314 185.069 91.4757 181.935 95.6291C173.655 106.604 157.081 102.308 148.613 100.597C148.587 100.171 148.561 99.6984 148.541 99.1995C148.435 96.6282 148.44 93.3591 148.873 92.1028C155.298 91.8023 166.6 90.0645 170.781 85.8056C178.235 78.2101 175.399 59.7759 183.887 54.1806C188.56 51.1031 193.103 74.6177 193.103 74.6177Z" fill="#DADCEA"/>
<path d="M188.952 85.0035C187.327 87.9314 185.069 91.4757 181.935 95.6291C173.655 106.604 157.081 102.308 148.613 100.597C148.586 100.171 148.561 99.6984 148.541 99.1995C154.008 100.053 167.757 101.795 173.597 98.8115C180.969 95.0441 177.562 82.2833 180.284 76.1464C182.229 71.7639 186.725 79.843 188.952 85.0035Z" fill="#C4C6D3"/>
<path d="M217.549 125.149L174.972 119.575L175.457 109.213L214.885 106.1L216.632 110.429C217.936 113.665 217.734 121.431 217.549 125.149Z" fill="#091558"/>
<path d="M215.538 110.44C204.979 118.679 175.457 109.213 175.457 109.213L175.754 107.276C175.754 107.276 181.517 94.9699 180.108 78.8592C178.699 62.7485 183.89 54.1779 183.89 54.1779C183.358 50.3137 201.719 48.3622 210.694 55.1917C215.338 58.724 215.034 69.1085 216.314 81.4519C217.51 92.9724 214.304 105.028 215.538 110.44Z" fill="#DADCEA"/>
<path d="M198.056 57.9607L196.612 59.2449L195.522 66.7463C195.522 66.7463 197.923 68.5001 199.669 66.7463C201.415 64.9925 201.416 62.0713 201.416 62.0713C201.416 62.0713 207.672 60.4644 208.109 56.3732L208.546 52.2819L198.056 57.9607Z" fill="white"/>
<path d="M194.794 50.6696C194.794 50.6696 189.879 56.1528 190.227 58.5637C190.574 60.9747 192.501 60.9747 192.501 60.9747C192.501 60.9747 190.428 65.5776 191.593 66.7463C192.757 67.9151 195.522 66.7463 195.522 66.7463L197.122 58.6379L196.612 50.9662L194.794 50.6696Z" fill="white"/>
<path d="M215.538 110.44C204.979 118.679 175.457 109.213 175.457 109.213L175.754 107.276C179.437 108.411 188.161 110.407 199.173 108.218C213.872 105.296 214.743 94.4831 216.053 86.3005C216.53 83.3198 217.25 94.4831 216.243 99.5241C215.408 103.699 217.847 108.638 215.538 110.44Z" fill="#C4C6D3"/>
<path d="M211.238 75.8546C211.238 75.8546 213.379 87.4893 215.573 89.3593C216.053 86.3045 216.053 85.1518 216.053 85.1518L211.238 75.8546Z" fill="#C4C6D3"/>
<path d="M205.728 110.781C205.728 110.781 205.345 111.048 204.767 111.438L204.41 111.676L204.406 111.596C204.406 111.596 203.851 111.419 202.373 111.596C200.894 111.774 197.979 109.848 197.979 111.371C197.979 112.894 198.616 112.599 199.547 113.188C199.946 113.439 200.517 113.608 201.044 113.722C200.603 113.949 200.212 114.123 199.919 114.204C197.918 114.761 194.24 114.141 193.807 116.315C193.601 117.353 194.641 118.966 195.489 119.595C197.522 121.1 200.441 121.543 204.169 119.497C205.349 118.837 206.464 118.065 207.498 117.193C208.643 116.244 209.705 115.199 210.673 114.07L205.728 110.781Z" fill="#FF7976"/>
<path d="M208.909 116.499C207.778 117.248 202.939 111.833 203.941 110.492C212.529 97.8477 217.003 98.1049 218.664 92.8475C215.299 86.8728 212.584 80.8207 211.093 77.3098C210.288 75.4117 209.839 74.2557 209.839 74.2557L210.696 55.1937C210.696 55.1937 228.498 61.1937 230.466 89.0307C231.756 107.288 208.909 116.499 208.909 116.499Z" fill="#DADCEA"/>
<path d="M206.609 36.859C205.827 43.5303 204.875 50.884 205.3 53.9722C205.664 58.3066 191.939 63.6354 195.449 53.6303C195.603 53.5141 196.479 48.9065 194.651 47.8339C191.885 46.2832 189.883 48.9566 188.777 43.1342C185.771 27.2953 207.236 12.3246 206.609 36.859Z" fill="#FF7976"/>
<path d="M189.581 25.1782C189.581 25.1782 187.379 31.5122 195.029 36.294C202.679 41.0759 201.591 42.6701 201.702 46.3299C201.812 49.9898 200.749 58.9057 208.189 57.8758C215.63 56.846 214.414 49.4268 209.524 45.7061C211.86 41.7731 207.908 37.2671 208.03 34.8201C208.828 28.7372 207.503 24.3267 202.589 23.7604C197.674 23.194 196.699 23.5219 194.764 25.4654C191.431 24.8503 189.529 24.8029 189.581 25.1782Z" fill="#091558"/>
<path d="M88.8195 79.7174C88.2734 82.7315 84.9618 83.6578 81.4214 83.8321C82.0998 82.9278 82.7809 81.5013 83.0842 79.2793C82.2774 80.434 80.034 82.6854 78.8481 83.8461C75.5145 83.7406 72.5255 83.2451 72.0639 83.5169C71.6263 83.7707 68.9479 84.1593 65.7973 84.3898C65.3882 83.2604 64.924 81.9187 64.8202 81.3731C64.6765 80.6204 64.4291 83.1155 64.3081 84.4839C63.4015 84.5333 62.4797 84.5654 61.5811 84.5761L61.9097 80.4481L59.5326 84.5574C57.1481 84.4779 55.1887 84.1794 54.5283 83.5169C52.491 81.4712 58.0201 77.8181 59.9429 72.2655C61.8658 66.7129 60.5914 63.5306 60.5914 63.5306L81.9336 61.5885C81.9336 61.5885 82.6126 64.6185 84.9997 68.0667C87.3868 71.5148 90.0173 73.1063 88.8195 79.7174Z" fill="#091558"/>
<path d="M89.5998 113.942C88.9466 117.482 89.2885 126.272 89.2872 130.893C89.2872 132.447 89.2473 133.53 89.1189 133.78C86.9905 137.933 81.3743 139.359 75.6317 139.629C67.9018 139.992 59.9411 138.261 59.9411 138.261C59.9411 138.261 56.5982 131.764 53.8333 123.075C53.2953 121.384 52.7798 119.613 52.3149 117.788C50.7891 111.804 49.8101 105.266 50.396 99.297C52.0794 82.1531 69.8619 81.1787 69.8619 81.1787C69.8619 81.1787 78.6208 81.1787 84.801 84.5761C89.2266 87.0091 93.1748 94.5719 89.5998 113.942Z" fill="white"/>
<path d="M89.2871 130.893C89.2871 132.447 89.2472 133.53 89.1189 133.78C86.9905 137.933 81.3743 139.359 75.6317 139.629C73.3989 138.765 71.6005 138.051 71.6005 138.051C71.6005 138.051 61.7801 133.176 59.941 131.329C58.7006 130.085 55.6737 126.465 53.8333 123.075C52.9454 121.438 52.3342 119.855 52.3342 118.617C52.3342 118.334 52.3268 118.056 52.3149 117.788C52.1619 114.473 51.1416 112.417 51.1416 112.417L55.8267 106.198C55.8267 106.198 60.3182 115.605 65.5107 120.82C68.521 123.843 71.7308 127.76 75.371 130.71C79.4062 133.979 85.1535 134.034 89.2871 130.893Z" fill="#DBDBDD"/>
<path d="M82.3738 71.048C81.6901 74.2303 79.6356 76.7996 77.867 77.1014C76.8747 77.2704 76.1377 77.6157 76.1377 78.8379V84.7818C76.1377 84.7818 76.0466 88.3214 73.9755 88.6787C71.9043 89.036 68.7876 85.9025 68.7876 85.9025C68.7876 85.9025 66.9918 84.685 66.9918 83.1255C66.9918 81.5661 66.7969 70.1691 65.633 65.0079C64.469 59.8467 71.7454 49.3246 79.9908 57.6047C79.9914 57.6054 83.4407 66.0798 82.3738 71.048Z" fill="#FF7976"/>
<path d="M73.8796 54.2928C73.8796 54.2928 78.9677 63.5306 81.7592 63.5306C84.5507 63.5306 83.2411 57.8972 81.2524 55.9003C79.2637 53.9034 74.4616 51.7589 73.8796 54.2928Z" fill="#091558"/>
<path d="M75.0437 54.3903C75.0437 54.3903 78.3427 60.3342 73.492 65.2029C68.6413 70.0716 61.9477 71.048 61.9477 71.048C61.9477 71.048 57.7761 61.9885 61.4628 57.1178C65.1495 52.2471 73.0072 50.2015 75.0437 54.3903Z" fill="#091558"/>
<path d="M62.8767 59.5535L66.1511 58.3353V59.5535L63.313 60.7222L62.8767 59.5535Z" fill="#FFB701"/>
<path d="M77.867 77.1014C76.8747 77.2704 76.1377 77.6157 76.1377 78.8379V80.0761C74.5255 79.459 73.7759 77.9904 73.4906 77.0707C73.2053 76.1511 73.0336 75.5567 74.3918 76.5631C75.75 77.5696 77.867 77.1014 77.867 77.1014Z" fill="#F35757"/>
<path d="M197.931 46.8128C197.628 47.2135 196.544 48.5118 195.521 49.0361C195.349 48.5615 195.048 48.1449 194.652 47.8339C193.94 47.2916 193.108 47.2769 192.293 47.2329C192.454 47.2395 194.421 47.313 196.089 46.7046C197.83 46.0735 198.318 46.3005 197.931 46.8128Z" fill="#F35757"/>
<path d="M103.345 135.764L106.983 137.191L109.384 143.401L105.665 142.646L103.345 135.764Z" fill="#091558"/>
<path d="M115.711 167.374L85.9175 155.971L94.826 132.503L103.799 135.938L106.247 140.754L123.5 146.857L115.711 167.374Z" fill="#FFB701"/>
<path d="M83.6297 140.096C84.0401 139.77 86.0953 141.554 92.787 142.483C94.5289 142.726 98.7065 143.165 99.5 146.857C99.7979 148.241 98.7051 150.356 95.8917 150.812C93.6337 151.178 88.805 150.411 86.7591 149.386C84.9446 148.475 79.6523 145.022 79.6523 145.022C79.6523 145.022 82.3899 141.077 83.6297 140.096Z" fill="#FF7976"/>
<path d="M84.0559 140.317L91.8524 139.68C91.8524 139.68 91.6468 142.252 92.3898 142.452C93.1327 142.652 89.0137 142.646 89.0137 142.646L84.0559 140.317Z" fill="#FF7976"/>
<path d="M68.3122 41.5247H57.4409C56.8108 41.5247 56.1981 41.3169 55.6969 40.9334C55.1957 40.5498 54.8338 40.0117 54.6667 39.4016L54.1526 37.5222H71.6005L71.0863 39.4016C70.9194 40.0117 70.5575 40.5499 70.0563 40.9335C69.5551 41.3171 68.9423 41.5248 68.3122 41.5247Z" fill="#091558"/>
<path d="M70.3878 66.1125C70.3878 66.1125 68.4424 76.1023 64.179 73.0823C59.9156 70.0622 64.5116 66.6481 64.5116 66.6481L70.3878 66.1125Z" fill="#091558"/>
<path d="M146.819 122.326H117.185C115.537 122.326 114.201 121.031 114.201 119.434V99.7371C114.201 98.1396 115.537 96.8453 117.185 96.8453H147.559C149.25 96.8453 150.603 98.2051 150.541 99.842L149.801 119.539C149.743 121.095 148.425 122.326 146.819 122.326Z" fill="#FFB701"/>
<path d="M24.8409 66.1125C24.8409 65.6282 24.4501 65.2356 23.9679 65.2356C23.4858 65.2356 23.095 65.6282 23.095 66.1125V79.4576C23.095 79.9419 23.4858 80.3345 23.9679 80.3345C24.4501 80.3345 24.8409 79.9419 24.8409 79.4576V66.1125Z" fill="white"/>
<path d="M23.9683 80.4681C23.7015 80.4677 23.4458 80.3612 23.2571 80.1718C23.0685 79.9823 22.9624 79.7255 22.962 79.4576V66.1125C22.9585 65.9777 22.982 65.8435 23.031 65.7179C23.08 65.5923 23.1536 65.4779 23.2473 65.3813C23.3411 65.2847 23.4531 65.2079 23.5769 65.1555C23.7007 65.1031 23.8337 65.0761 23.968 65.0761C24.1023 65.0761 24.2353 65.1031 24.359 65.1555C24.4828 65.2079 24.5949 65.2847 24.6886 65.3813C24.7824 65.4779 24.8559 65.5923 24.9049 65.7179C24.954 65.8435 24.9774 65.9777 24.974 66.1125V79.4576C24.9738 79.7255 24.8678 79.9823 24.6793 80.1717C24.4907 80.3612 24.235 80.4677 23.9683 80.4681ZM23.9683 65.3692C23.772 65.3694 23.5839 65.4477 23.4451 65.5871C23.3063 65.7265 23.2282 65.9154 23.228 66.1125V79.4576C23.2251 79.5571 23.242 79.6561 23.2779 79.7489C23.3137 79.8416 23.3677 79.9262 23.4367 79.9976C23.5058 80.069 23.5883 80.1257 23.6796 80.1645C23.7708 80.2033 23.8689 80.2232 23.968 80.2232C24.0671 80.2232 24.1651 80.2033 24.2564 80.1645C24.3476 80.1257 24.4302 80.069 24.4992 79.9976C24.5682 79.9262 24.6222 79.8416 24.6581 79.7489C24.6939 79.6561 24.7109 79.5571 24.7079 79.4576V66.1125C24.7077 65.9155 24.6298 65.7267 24.4911 65.5873C24.3525 65.448 24.1645 65.3695 23.9683 65.3692Z" fill="#DBDBDD"/>
<path d="M24.8409 83.4534C24.8409 82.9691 24.4501 82.5765 23.9679 82.5765C23.4858 82.5765 23.095 82.9691 23.095 83.4534V88.0763C23.095 88.5606 23.4858 88.9532 23.9679 88.9532C24.4501 88.9532 24.8409 88.5606 24.8409 88.0763V83.4534Z" fill="white"/>
<path d="M23.9683 89.0868C23.7015 89.0866 23.4456 88.9801 23.2569 88.7906C23.0683 88.6012 22.9622 88.3443 22.962 88.0763V83.4534C22.9585 83.3186 22.982 83.1844 23.031 83.0588C23.08 82.9332 23.1536 82.8188 23.2473 82.7222C23.3411 82.6256 23.4531 82.5488 23.5769 82.4964C23.7007 82.444 23.8337 82.417 23.968 82.417C24.1023 82.417 24.2353 82.444 24.359 82.4964C24.4828 82.5488 24.5949 82.6256 24.6886 82.7222C24.7824 82.8188 24.8559 82.9332 24.9049 83.0588C24.954 83.1844 24.9774 83.3186 24.974 83.4534V88.0763C24.9738 88.3442 24.8678 88.601 24.6793 88.7904C24.4907 88.9798 24.235 89.0864 23.9683 89.0868ZM23.9683 82.7101C23.772 82.7103 23.5839 82.7886 23.4451 82.928C23.3063 83.0674 23.2282 83.2563 23.228 83.4534V88.0763C23.2251 88.1758 23.242 88.2748 23.2779 88.3676C23.3137 88.4603 23.3677 88.5449 23.4367 88.6163C23.5058 88.6877 23.5883 88.7444 23.6796 88.7832C23.7708 88.822 23.8689 88.8419 23.968 88.8419C24.0671 88.8419 24.1651 88.822 24.2564 88.7832C24.3476 88.7444 24.4302 88.6877 24.4992 88.6163C24.5682 88.5449 24.6222 88.4603 24.6581 88.3676C24.6939 88.2748 24.7109 88.1758 24.7079 88.0763V83.4534C24.7077 83.2564 24.6298 83.0676 24.4911 82.9282C24.3525 82.7889 24.1645 82.7104 23.9683 82.7101Z" fill="#DBDBDD"/>
<path d="M85.7279 139.68C85.7279 141.233 83.7991 143.681 82.3738 145.278C81.539 146.213 80.8773 146.857 80.8773 146.857C80.8773 146.857 47.2146 140.066 44.5342 117.244C43.351 107.168 45.609 99.8794 48.7058 94.7829C53.2246 87.341 59.5325 84.5574 59.5325 84.5574L56.8208 105.554C56.8208 105.554 56.322 117.55 58.5754 119.814C60.8288 122.077 71.9521 127.569 85.7279 139.68Z" fill="white"/>
<path d="M82.3738 145.278C81.5391 146.213 80.8773 146.857 80.8773 146.857C80.8773 146.857 47.2146 140.066 44.5342 117.244C43.351 107.168 45.609 99.8794 48.7058 94.783C47.321 100.828 45.605 109.901 46.4278 114.865C47.736 122.757 52.5002 131.593 59.9409 135.908C66.3698 139.634 77.5836 144.972 82.3738 145.278Z" fill="#DBDBDD"/>
<path d="M248.208 64.3894C255.754 64.3894 261.872 58.2469 261.872 50.6696C261.872 43.0924 255.754 36.9499 248.208 36.9499C240.662 36.9499 234.545 43.0924 234.545 50.6696C234.545 58.2469 240.662 64.3894 248.208 64.3894Z" fill="#29346D"/>
<path d="M250.548 54.8511L253.807 56.6116C254.37 56.9161 255.021 56.7999 255.261 56.3518L256.475 54.0877C257.13 52.8669 256.417 51.2039 254.879 50.3738L244.979 45.0202C243.444 44.1901 241.668 44.5073 241.013 45.7288L239.788 48.0143C239.554 48.4504 239.809 49.0441 240.357 49.3406L243.666 51.1298C244.215 51.4263 244.848 51.3128 245.082 50.8767L245.913 49.3286L250.783 51.9626L249.964 53.4893C249.724 53.9375 249.986 54.5472 250.548 54.8511Z" fill="white"/>
<path d="M118.356 150.429L103.554 145.087C103.195 144.957 102.798 145.145 102.669 145.506C102.539 145.868 102.726 146.266 103.086 146.396L117.888 151.738C118.247 151.868 118.644 151.68 118.773 151.319C118.903 150.957 118.716 150.559 118.356 150.429Z" fill="white"/>
<path d="M116.678 155.08L104.706 150.905C104.533 150.843 104.392 150.714 104.314 150.547C104.236 150.38 104.227 150.189 104.289 150.015C104.351 149.842 104.479 149.701 104.645 149.622C104.812 149.544 105.002 149.534 105.175 149.597L117.147 153.771C117.232 153.802 117.311 153.85 117.378 153.911C117.446 153.972 117.5 154.046 117.539 154.129C117.578 154.212 117.6 154.301 117.604 154.392C117.608 154.483 117.595 154.574 117.564 154.66C117.501 154.834 117.373 154.975 117.207 155.054C117.041 155.133 116.851 155.142 116.678 155.08Z" fill="white"/>
<path d="M108.467 156.412L100.533 153.486C100.361 153.424 100.22 153.295 100.141 153.128C100.063 152.961 100.054 152.77 100.116 152.597C100.147 152.511 100.194 152.432 100.255 152.364C100.316 152.297 100.39 152.242 100.472 152.203C100.555 152.164 100.644 152.142 100.735 152.137C100.825 152.133 100.916 152.147 101.002 152.178L108.936 155.104C109.109 155.166 109.25 155.295 109.328 155.462C109.406 155.629 109.415 155.82 109.353 155.993C109.322 156.079 109.275 156.158 109.214 156.226C109.152 156.294 109.079 156.348 108.996 156.387C108.914 156.426 108.825 156.448 108.734 156.453C108.643 156.457 108.552 156.443 108.467 156.412Z" fill="white"/>
<path d="M110.124 107.849C110.124 107.849 112.858 102.594 114.318 102.105C115.778 101.617 121.745 100.401 121.745 102.592C121.745 104.783 115.027 105.222 114.615 106.44C114.202 107.659 114.201 110.341 114.201 110.341C114.201 110.341 110.387 108.818 110.124 107.849Z" fill="#FF7976"/>
<path d="M137.798 95.3126C137.798 95.3126 137.315 97.7229 136.297 98.746C135.278 99.7692 134.696 102.765 136.66 102.253C138.625 101.741 141.272 97.5659 141.99 96.8433C142.708 96.1207 137.798 95.3126 137.798 95.3126Z" fill="#FF7976"/>
<path d="M66.6367 81.6916C66.6367 81.6916 61.7708 82.1551 61.6743 83.3659C67.0764 89.3767 70.6068 90.1253 70.6068 90.1253L72.4784 88.469C72.4784 88.469 68.3527 84.2168 66.6367 81.6916Z" fill="#323F8B"/>
<path d="M76.1392 81.6916C76.1392 81.6916 76.2722 86.2284 75.3916 87.6255C77.6623 89.8335 77.8671 88.0797 77.8671 88.0797C77.8671 88.0797 80.4172 83.4007 79.5452 82.5251C77.1821 81.9728 76.1392 81.6916 76.1392 81.6916Z" fill="#323F8B"/>
<path d="M75.5805 97.3455C75.5472 97.3457 75.5151 97.3332 75.4905 97.3107C75.4658 97.2882 75.4505 97.2573 75.4475 97.224C75.1256 93.6997 74.5476 91.5699 74.5416 91.5472C74.5323 91.513 74.5368 91.4765 74.5543 91.4457C74.5718 91.4149 74.6007 91.3923 74.6347 91.3829C74.6688 91.3735 74.7051 91.3781 74.7358 91.3956C74.7665 91.4131 74.789 91.4422 74.7984 91.4764C74.8037 91.4978 75.3876 93.6476 75.7122 97.1979C75.7139 97.2154 75.7121 97.2331 75.7069 97.2499C75.7017 97.2667 75.6933 97.2823 75.6821 97.2958C75.6709 97.3093 75.6572 97.3205 75.6417 97.3287C75.6262 97.3369 75.6093 97.3419 75.5918 97.3435L75.5805 97.3455Z" fill="#DBDBDD"/>
<path d="M76.7803 110.204C76.745 110.204 76.7112 110.19 76.6862 110.165C76.6613 110.14 76.6473 110.106 76.6473 110.07C76.6473 107.983 76.0134 102.323 76.0074 102.268C76.0035 102.232 76.0137 102.197 76.0358 102.169C76.058 102.141 76.0902 102.123 76.1255 102.119C76.1608 102.115 76.1962 102.125 76.2239 102.148C76.2517 102.17 76.2695 102.202 76.2735 102.238C76.2801 102.295 76.9153 107.968 76.9153 110.07C76.9153 110.088 76.9118 110.105 76.905 110.122C76.8982 110.138 76.8882 110.153 76.8756 110.165C76.8631 110.178 76.8482 110.188 76.8318 110.194C76.8154 110.201 76.7979 110.204 76.7803 110.204Z" fill="#DBDBDD"/>
<path d="M77.726 125.546C77.6907 125.546 77.6569 125.532 77.6319 125.507C77.607 125.482 77.593 125.448 77.593 125.412C77.593 123.393 77.1613 114.043 77.1566 113.948C77.155 113.913 77.1674 113.878 77.1911 113.852C77.2149 113.826 77.2481 113.81 77.2834 113.809C77.3186 113.807 77.3531 113.819 77.3793 113.843C77.4054 113.867 77.421 113.9 77.4227 113.936C77.4267 114.03 77.859 123.387 77.859 125.412C77.859 125.448 77.845 125.482 77.82 125.507C77.7951 125.532 77.7613 125.546 77.726 125.546Z" fill="#DBDBDD"/>
<path d="M78.0893 132.469C78.054 132.469 78.0202 132.455 77.9953 132.43C77.9703 132.405 77.9563 132.371 77.9563 132.336V130.015C77.9563 129.98 77.9703 129.946 77.9953 129.921C78.0202 129.896 78.054 129.882 78.0893 129.882C78.1246 129.882 78.1584 129.896 78.1834 129.921C78.2083 129.946 78.2223 129.98 78.2223 130.015V132.336C78.2223 132.371 78.2083 132.405 78.1834 132.43C78.1584 132.455 78.1246 132.469 78.0893 132.469Z" fill="#DBDBDD"/>
<path d="M47.6291 45.9492H37.4429C36.7196 45.9492 36.1333 46.538 36.1333 47.2642C36.1333 47.9905 36.7196 48.5793 37.4429 48.5793H47.6291C48.3524 48.5793 48.9387 47.9905 48.9387 47.2642C48.9387 46.538 48.3524 45.9492 47.6291 45.9492Z" fill="white"/>
<path d="M47.6291 50.8132H37.4429C36.7196 50.8132 36.1333 51.402 36.1333 52.1283C36.1333 52.8545 36.7196 53.4433 37.4429 53.4433H47.6291C48.3524 53.4433 48.9387 52.8545 48.9387 52.1283C48.9387 51.402 48.3524 50.8132 47.6291 50.8132Z" fill="white"/>
<path d="M47.6291 55.1904H37.4429C36.7196 55.1904 36.1333 55.7791 36.1333 56.5054C36.1333 57.2316 36.7196 57.8204 37.4429 57.8204H47.6291C48.3524 57.8204 48.9387 57.2316 48.9387 56.5054C48.9387 55.7791 48.3524 55.1904 47.6291 55.1904Z" fill="white"/>
<path d="M227.287 138.393C227.263 138.368 227.234 138.347 227.202 138.332C227.17 138.318 227.136 138.31 227.101 138.309C227.066 138.307 227.031 138.313 226.998 138.326C226.966 138.338 226.936 138.357 226.91 138.381L209.791 154.471C209.765 154.495 209.745 154.523 209.73 154.555C209.716 154.587 209.708 154.622 209.707 154.657C209.706 154.692 209.711 154.727 209.724 154.76C209.736 154.793 209.755 154.823 209.778 154.848C209.802 154.874 209.831 154.895 209.863 154.909C209.895 154.924 209.929 154.932 209.964 154.933C209.999 154.934 210.034 154.928 210.066 154.916C210.099 154.903 210.129 154.885 210.155 154.861L227.274 138.771C227.299 138.747 227.32 138.719 227.335 138.687C227.349 138.655 227.357 138.62 227.358 138.585C227.359 138.55 227.354 138.515 227.341 138.482C227.329 138.449 227.31 138.419 227.287 138.393Z" fill="white"/>
<path d="M219.68 137.265C219.632 137.213 219.566 137.182 219.495 137.179C219.425 137.176 219.356 137.201 219.304 137.249L201.878 153.242C201.85 153.266 201.828 153.294 201.811 153.326C201.795 153.358 201.785 153.394 201.783 153.43C201.78 153.466 201.785 153.502 201.797 153.536C201.809 153.57 201.827 153.601 201.852 153.628C201.876 153.655 201.905 153.676 201.938 153.691C201.971 153.706 202.006 153.714 202.042 153.715C202.078 153.716 202.114 153.709 202.147 153.696C202.181 153.682 202.211 153.662 202.236 153.637L219.662 137.643C219.688 137.62 219.709 137.591 219.724 137.559C219.739 137.528 219.748 137.493 219.749 137.458C219.751 137.423 219.745 137.388 219.733 137.355C219.722 137.322 219.703 137.291 219.68 137.265Z" fill="white"/>
<path d="M212.073 136.138C212.05 136.112 212.021 136.09 211.99 136.075C211.959 136.06 211.924 136.051 211.889 136.049C211.855 136.047 211.82 136.052 211.787 136.064C211.754 136.075 211.723 136.093 211.697 136.117L193.959 152.012C193.906 152.059 193.874 152.125 193.87 152.196C193.866 152.267 193.89 152.337 193.937 152.39C193.984 152.443 194.05 152.475 194.121 152.48C194.191 152.484 194.261 152.46 194.314 152.412L212.052 136.517C212.078 136.494 212.1 136.466 212.115 136.434C212.13 136.402 212.139 136.367 212.141 136.332C212.143 136.297 212.138 136.262 212.126 136.228C212.115 136.195 212.097 136.164 212.073 136.138Z" fill="white"/>
<path d="M204.466 135.01C204.419 134.957 204.354 134.924 204.283 134.919C204.213 134.915 204.144 134.938 204.091 134.985L186.044 150.786C186.014 150.808 185.99 150.836 185.972 150.868C185.954 150.9 185.943 150.936 185.939 150.972C185.936 151.009 185.939 151.045 185.951 151.08C185.962 151.115 185.98 151.148 186.004 151.175C186.028 151.203 186.058 151.225 186.091 151.241C186.124 151.256 186.16 151.265 186.196 151.266C186.233 151.267 186.269 151.261 186.303 151.247C186.337 151.233 186.368 151.213 186.393 151.187L204.44 135.385C204.493 135.339 204.525 135.273 204.53 135.203C204.535 135.133 204.512 135.063 204.466 135.01Z" fill="white"/>
<path d="M196.859 133.882C196.836 133.855 196.809 133.833 196.777 133.817C196.746 133.801 196.712 133.792 196.678 133.789C196.643 133.786 196.608 133.79 196.574 133.801C196.541 133.812 196.51 133.829 196.484 133.852L178.127 149.558C178.1 149.581 178.078 149.608 178.062 149.64C178.046 149.671 178.037 149.705 178.034 149.74C178.031 149.775 178.035 149.81 178.046 149.844C178.057 149.877 178.074 149.908 178.097 149.935C178.119 149.961 178.147 149.983 178.178 149.999C178.209 150.015 178.243 150.025 178.278 150.028C178.313 150.03 178.348 150.026 178.381 150.015C178.414 150.005 178.445 149.987 178.472 149.965L196.829 134.259C196.856 134.236 196.877 134.208 196.893 134.177C196.909 134.146 196.919 134.112 196.922 134.077C196.924 134.042 196.92 134.006 196.91 133.973C196.899 133.94 196.882 133.909 196.859 133.882Z" fill="white"/>
<path d="M189.252 132.755C189.23 132.728 189.202 132.705 189.171 132.689C189.14 132.672 189.107 132.662 189.072 132.659C189.037 132.656 189.002 132.66 188.968 132.67C188.935 132.68 188.904 132.697 188.877 132.72L170.212 148.331C170.184 148.353 170.16 148.381 170.143 148.412C170.125 148.443 170.114 148.478 170.11 148.513C170.106 148.549 170.11 148.585 170.12 148.62C170.13 148.654 170.147 148.686 170.17 148.713C170.193 148.741 170.221 148.764 170.253 148.78C170.285 148.796 170.32 148.806 170.356 148.809C170.391 148.811 170.427 148.807 170.461 148.795C170.495 148.783 170.526 148.765 170.552 148.741L189.218 133.131C189.244 133.109 189.267 133.081 189.283 133.05C189.299 133.019 189.309 132.985 189.313 132.95C189.316 132.915 189.312 132.88 189.302 132.846C189.291 132.813 189.274 132.782 189.252 132.755Z" fill="white"/>
<path d="M181.647 131.627C181.625 131.599 181.598 131.577 181.567 131.56C181.537 131.543 181.503 131.533 181.468 131.529C181.433 131.526 181.398 131.529 181.365 131.539C181.331 131.549 181.3 131.566 181.273 131.588L162.298 147.102C162.243 147.147 162.208 147.212 162.201 147.282C162.194 147.353 162.215 147.423 162.26 147.478C162.305 147.533 162.369 147.568 162.439 147.575C162.51 147.582 162.58 147.561 162.634 147.516L181.609 132.003C181.636 131.98 181.658 131.953 181.675 131.922C181.692 131.891 181.702 131.858 181.706 131.823C181.709 131.788 181.706 131.752 181.696 131.719C181.686 131.685 181.669 131.654 181.647 131.627Z" fill="white"/>
<path d="M174.038 130.499C173.994 130.444 173.93 130.408 173.86 130.4C173.79 130.392 173.719 130.412 173.664 130.457L154.378 145.874C154.35 145.896 154.328 145.923 154.311 145.954C154.294 145.985 154.283 146.018 154.279 146.053C154.275 146.088 154.278 146.124 154.288 146.157C154.298 146.191 154.314 146.223 154.336 146.25C154.358 146.277 154.385 146.3 154.415 146.317C154.446 146.334 154.48 146.345 154.514 146.349C154.549 146.353 154.584 146.35 154.618 146.34C154.652 146.33 154.683 146.314 154.71 146.292L173.999 130.874C174.053 130.829 174.088 130.765 174.095 130.695C174.102 130.625 174.082 130.554 174.038 130.499Z" fill="white"/>
<path d="M166.431 129.371C166.409 129.343 166.382 129.32 166.352 129.302C166.322 129.285 166.288 129.274 166.253 129.27C166.219 129.265 166.183 129.268 166.15 129.277C166.116 129.287 166.084 129.303 166.057 129.325L146.463 144.647C146.41 144.691 146.376 144.754 146.369 144.823C146.361 144.892 146.381 144.961 146.423 145.016C146.466 145.07 146.527 145.106 146.596 145.116C146.664 145.126 146.733 145.109 146.789 145.068L166.382 129.746C166.41 129.725 166.433 129.698 166.451 129.667C166.468 129.637 166.48 129.603 166.484 129.568C166.489 129.534 166.486 129.498 166.477 129.464C166.468 129.43 166.452 129.398 166.431 129.371Z" fill="white"/>
<path d="M158.823 128.243C158.781 128.187 158.717 128.15 158.647 128.141C158.578 128.131 158.507 128.15 158.451 128.193L138.549 143.42C138.52 143.441 138.496 143.467 138.478 143.498C138.459 143.528 138.447 143.562 138.442 143.597C138.437 143.632 138.439 143.668 138.448 143.702C138.457 143.737 138.472 143.769 138.494 143.797C138.515 143.826 138.542 143.849 138.573 143.867C138.604 143.885 138.638 143.896 138.673 143.901C138.708 143.905 138.744 143.902 138.778 143.893C138.812 143.883 138.844 143.867 138.871 143.844L158.773 128.617C158.829 128.574 158.866 128.511 158.875 128.441C158.885 128.371 158.866 128.3 158.823 128.243Z" fill="white"/>
<path d="M230.141 142.634C230.128 142.635 230.115 142.635 230.101 142.634L148.444 130.254C148.374 130.243 148.312 130.205 148.27 130.148C148.228 130.091 148.21 130.019 148.221 129.949C148.232 129.879 148.269 129.816 148.326 129.774C148.383 129.732 148.454 129.715 148.524 129.725L230.181 142.103C230.246 142.114 230.306 142.149 230.347 142.201C230.389 142.254 230.409 142.32 230.404 142.387C230.399 142.454 230.369 142.516 230.321 142.562C230.272 142.608 230.208 142.634 230.141 142.634Z" fill="white"/>
<path d="M225.617 146.888C225.604 146.889 225.59 146.889 225.577 146.888L142.902 134.506C142.868 134.501 142.835 134.489 142.805 134.471C142.775 134.453 142.748 134.429 142.728 134.401C142.707 134.373 142.692 134.341 142.683 134.307C142.675 134.273 142.673 134.237 142.678 134.203C142.683 134.168 142.695 134.134 142.713 134.104C142.731 134.074 142.755 134.048 142.783 134.027C142.811 134.006 142.843 133.991 142.877 133.983C142.911 133.974 142.946 133.972 142.981 133.977L225.654 146.356C225.72 146.366 225.78 146.401 225.821 146.453C225.862 146.506 225.883 146.572 225.878 146.639C225.873 146.706 225.843 146.768 225.795 146.814C225.746 146.86 225.682 146.886 225.616 146.886L225.617 146.888Z" fill="white"/>
<path d="M221.092 151.141C221.08 151.142 221.067 151.142 221.054 151.141L137.05 138.764C137.016 138.759 136.982 138.747 136.952 138.729C136.922 138.711 136.896 138.687 136.875 138.659C136.854 138.631 136.839 138.599 136.831 138.565C136.822 138.531 136.82 138.496 136.825 138.461C136.83 138.426 136.842 138.393 136.86 138.363C136.878 138.332 136.902 138.306 136.93 138.285C136.958 138.264 136.99 138.249 137.024 138.24C137.057 138.232 137.093 138.23 137.127 138.235L221.131 150.612C221.202 150.618 221.267 150.651 221.313 150.704C221.36 150.758 221.383 150.828 221.378 150.899C221.373 150.97 221.34 151.036 221.286 151.082C221.233 151.129 221.163 151.152 221.092 151.147V151.141Z" fill="white"/>
<path d="M193.102 81.2842C193.032 81.2842 192.964 81.2561 192.914 81.206C192.864 81.1559 192.836 81.0879 192.836 81.0171C192.836 74.1448 194.28 68.7285 194.294 68.6731C194.313 68.6047 194.358 68.5465 194.419 68.5113C194.48 68.4761 194.553 68.4668 194.621 68.4854C194.689 68.504 194.747 68.549 194.782 68.6105C194.817 68.672 194.826 68.745 194.808 68.8133C194.794 68.8668 193.369 74.223 193.369 81.0171C193.369 81.0879 193.34 81.1559 193.291 81.206C193.241 81.2561 193.173 81.2842 193.102 81.2842Z" fill="white"/>
<path d="M192.708 91.61C192.644 91.6106 192.581 91.5878 192.532 91.5456C192.483 91.5035 192.451 91.445 192.442 91.3809C192.043 88.6427 192.806 84.7344 192.841 84.5687C192.848 84.5343 192.861 84.5016 192.881 84.4724C192.9 84.4432 192.925 84.4181 192.954 84.3986C192.983 84.3791 193.016 84.3656 193.05 84.3587C193.085 84.3519 193.12 84.3519 193.154 84.3587C193.188 84.3655 193.221 84.3791 193.25 84.3986C193.279 84.4181 193.304 84.4431 193.324 84.4723C193.343 84.5015 193.356 84.5342 193.363 84.5686C193.37 84.6031 193.37 84.6385 193.363 84.6729C193.355 84.7123 192.588 88.654 192.972 91.3034C192.977 91.3381 192.975 91.3735 192.966 91.4076C192.958 91.4416 192.943 91.4736 192.922 91.5018C192.901 91.53 192.875 91.5537 192.845 91.5717C192.815 91.5897 192.781 91.6016 192.747 91.6066C192.734 91.6087 192.721 91.6098 192.708 91.61Z" fill="white"/>
<path d="M191.738 100.669C191.668 100.669 191.6 100.641 191.55 100.591C191.5 100.54 191.472 100.472 191.472 100.402C191.472 99.4172 192.008 96.1153 192.031 95.9751C192.036 95.9396 192.047 95.9055 192.065 95.8747C192.084 95.8439 192.108 95.8171 192.136 95.7958C192.165 95.7745 192.197 95.7593 192.232 95.7509C192.267 95.7425 192.303 95.7412 192.338 95.747C192.373 95.7528 192.407 95.7656 192.437 95.7847C192.467 95.8038 192.493 95.8288 192.513 95.8582C192.533 95.8875 192.548 95.9207 192.555 95.9557C192.562 95.9907 192.562 96.0268 192.556 96.0619C192.55 96.0953 192.004 99.4606 192.004 100.403C192.004 100.474 191.976 100.541 191.926 100.591C191.876 100.641 191.809 100.669 191.738 100.669Z" fill="white"/>
<path d="M136.515 104.883H129.385C128.902 104.883 128.511 105.275 128.511 105.76C128.511 106.244 128.902 106.636 129.385 106.636H136.515C136.997 106.636 137.388 106.244 137.388 105.76C137.388 105.275 136.997 104.883 136.515 104.883Z" fill="white"/>
<path d="M142.699 109.79H123.2C122.718 109.79 122.327 110.183 122.327 110.667C122.327 111.151 122.718 111.543 123.2 111.543H142.699C143.181 111.543 143.572 111.151 143.572 110.667C143.572 110.183 143.181 109.79 142.699 109.79Z" fill="#323F8B"/>
<path d="M142.699 114.19H123.2C122.718 114.19 122.327 114.583 122.327 115.067C122.327 115.551 122.718 115.943 123.2 115.943H142.699C143.181 115.943 143.572 115.551 143.572 115.067C143.572 114.583 143.181 114.19 142.699 114.19Z" fill="#FF7976"/>
<path d="M32.9721 107.651H4.11816C2.00233 107.651 0.287109 109.374 0.287109 111.498V118.636C0.287109 120.761 2.00233 122.483 4.11816 122.483H32.9721C35.0879 122.483 36.8031 120.761 36.8031 118.636V111.498C36.8031 109.374 35.0879 107.651 32.9721 107.651Z" fill="white"/>
<path d="M32.972 122.752H4.11809C3.03173 122.751 1.99024 122.317 1.22214 121.546C0.45403 120.774 0.0220523 119.728 0.0209961 118.637V111.498C0.0222284 110.407 0.454285 109.362 1.22237 108.59C1.99046 107.819 3.03185 107.385 4.11809 107.384H32.972C34.0582 107.385 35.0996 107.819 35.8677 108.59C36.6358 109.362 37.0679 110.407 37.0691 111.498V118.635C37.0686 119.727 36.6368 120.773 35.8687 121.545C35.1005 122.317 34.0587 122.751 32.972 122.752ZM4.11809 107.92C3.17291 107.921 2.26676 108.299 1.59842 108.97C0.930083 109.641 0.554142 110.551 0.553086 111.5V118.637C0.554142 119.587 0.930061 120.497 1.59838 121.168C2.2667 121.839 3.17285 122.217 4.11809 122.218H32.972C33.9173 122.217 34.8235 121.839 35.4919 121.168C36.1603 120.497 36.5361 119.587 36.537 118.637V111.498C36.5361 110.549 36.1602 109.639 35.4919 108.968C34.8235 108.297 33.9172 107.919 32.972 107.918L4.11809 107.92Z" fill="#DBDBDD"/>
<path d="M19.7528 111.777H11.7302C11.2758 111.777 10.9075 112.147 10.9075 112.603C10.9075 113.06 11.2758 113.43 11.7302 113.43H19.7528C20.2072 113.43 20.5755 113.06 20.5755 112.603C20.5755 112.147 20.2072 111.777 19.7528 111.777Z" fill="#ECEDF2"/>
<path d="M31.9742 116.705H11.7302C11.2758 116.705 10.9075 117.075 10.9075 117.531C10.9075 117.987 11.2758 118.357 11.7302 118.357H31.9742C32.4286 118.357 32.797 117.987 32.797 117.531C32.797 117.075 32.4286 116.705 31.9742 116.705Z" fill="#FFB701"/>
<path d="M7.34258 111.777H4.89297C4.28357 111.777 3.78955 112.273 3.78955 112.885V116.422C3.78955 117.034 4.28357 117.53 4.89297 117.53H7.34258C7.95198 117.53 8.446 117.034 8.446 116.422V112.885C8.446 112.273 7.95198 111.777 7.34258 111.777Z" fill="#ECEDF2"/>
<path d="M264.177 75.19H242.593C240.729 75.19 239.218 76.7072 239.218 78.5787V86.6331C239.218 88.5046 240.729 90.0218 242.593 90.0218H264.177C266.041 90.0218 267.552 88.5046 267.552 86.6331V78.5787C267.552 76.7072 266.041 75.19 264.177 75.19Z" fill="white"/>
<path d="M264.177 90.2896H242.593C241.627 90.2884 240.702 89.9027 240.019 89.2172C239.337 88.5318 238.953 87.6024 238.952 86.6331V78.5794C238.953 77.6101 239.337 76.6807 240.019 75.9953C240.702 75.3098 241.627 74.9241 242.593 74.9229H264.177C265.142 74.9241 266.068 75.3098 266.75 75.9953C267.433 76.6807 267.817 77.6101 267.818 78.5794V86.6331C267.817 87.6024 267.433 88.5318 266.75 89.2172C266.068 89.9027 265.142 90.2884 264.177 90.2896ZM242.593 75.4572C241.768 75.4582 240.978 75.7875 240.395 76.3729C239.813 76.9582 239.485 77.7517 239.484 78.5794V86.6331C239.485 87.4608 239.813 88.2543 240.395 88.8396C240.978 89.425 241.768 89.7543 242.593 89.7553H264.177C265.001 89.7543 265.791 89.425 266.374 88.8396C266.957 88.2543 267.285 87.4608 267.286 86.6331V78.5794C267.285 77.7517 266.957 76.9582 266.374 76.3729C265.791 75.7875 265.001 75.4582 264.177 75.4572H242.593Z" fill="#DBDBDD"/>
<path d="M258.684 79.3167H250.661C250.207 79.3167 249.839 79.6866 249.839 80.1429C249.839 80.5991 250.207 80.969 250.661 80.969H258.684C259.138 80.969 259.507 80.5991 259.507 80.1429C259.507 79.6866 259.138 79.3167 258.684 79.3167Z" fill="#FFB701"/>
<path d="M253.85 84.2435H250.661C250.207 84.2435 249.839 84.6134 249.839 85.0696C249.839 85.5259 250.207 85.8958 250.661 85.8958H253.85C254.304 85.8958 254.673 85.5259 254.673 85.0696C254.673 84.6134 254.304 84.2435 253.85 84.2435Z" fill="#FFB701"/>
<path d="M246.205 79.3167H243.892C243.245 79.3167 242.72 79.8436 242.72 80.4935V84.6288C242.72 85.2788 243.245 85.8056 243.892 85.8056H246.205C246.852 85.8056 247.377 85.2788 247.377 84.6288V80.4935C247.377 79.8436 246.852 79.3167 246.205 79.3167Z" fill="#ECEDF2"/>
<path d="M271.903 92.9857H243.049C240.933 92.9857 239.218 94.708 239.218 96.8326V103.971C239.218 106.095 240.933 107.818 243.049 107.818H271.903C274.019 107.818 275.734 106.095 275.734 103.971V96.8326C275.734 94.708 274.019 92.9857 271.903 92.9857Z" fill="white"/>
<path d="M271.903 108.085H243.049C241.963 108.084 240.921 107.65 240.153 106.879C239.385 106.107 238.953 105.062 238.952 103.971V96.8333C238.953 95.7424 239.385 94.6966 240.153 93.9252C240.921 93.1538 241.963 92.7199 243.049 92.7186H271.903C272.989 92.7199 274.031 93.1538 274.799 93.9252C275.567 94.6966 275.999 95.7424 276 96.8333V103.971C275.999 105.062 275.567 106.107 274.799 106.879C274.031 107.65 272.989 108.084 271.903 108.085ZM243.049 93.2529C242.104 93.254 241.197 93.6315 240.529 94.3028C239.861 94.974 239.485 95.8841 239.484 96.8333V103.971C239.485 104.92 239.861 105.83 240.529 106.501C241.197 107.172 242.104 107.55 243.049 107.551H271.903C272.848 107.55 273.754 107.172 274.423 106.501C275.091 105.83 275.467 104.92 275.468 103.971V96.8333C275.467 95.8841 275.091 94.974 274.423 94.3028C273.754 93.6315 272.848 93.254 271.903 93.2529H243.049Z" fill="#DBDBDD"/>
<path d="M258.684 97.1124H250.661C250.207 97.1124 249.839 97.4823 249.839 97.9386C249.839 98.3948 250.207 98.7647 250.661 98.7647H258.684C259.138 98.7647 259.507 98.3948 259.507 97.9386C259.507 97.4823 259.138 97.1124 258.684 97.1124Z" fill="#ECEDF2"/>
<path d="M270.543 97.1124H262.52C262.066 97.1124 261.698 97.4823 261.698 97.9386C261.698 98.3948 262.066 98.7647 262.52 98.7647H270.543C270.997 98.7647 271.366 98.3948 271.366 97.9386C271.366 97.4823 270.997 97.1124 270.543 97.1124Z" fill="#ECEDF2"/>
<path d="M255.401 102.039H250.661C250.207 102.039 249.839 102.409 249.839 102.865C249.839 103.322 250.207 103.692 250.661 103.692H255.401C255.855 103.692 256.224 103.322 256.224 102.865C256.224 102.409 255.855 102.039 255.401 102.039Z" fill="#FFB701"/>
<path d="M246.273 97.1124H243.824C243.214 97.1124 242.72 97.6085 242.72 98.2204V101.757C242.72 102.369 243.214 102.865 243.824 102.865H246.273C246.883 102.865 247.377 102.369 247.377 101.757V98.2204C247.377 97.6085 246.883 97.1124 246.273 97.1124Z" fill="#091558"/>
<path d="M133.604 37.3773L136.66 42.3448L140.298 35.8132L133.604 37.3773Z" fill="#091558"/>
<path d="M109.133 51.5993V55.9337L112.849 54.2106L109.133 51.5993Z" fill="#091558"/>
<path d="M112.287 173.119L104.708 178.039L113.014 181.448L112.287 173.119Z" fill="#091558"/>
<path d="M152.595 171.804L146.479 172.515L150.543 177.283L152.595 171.804Z" fill="#091558"/>
<path d="M167.906 122.06L167.097 124.332L174.373 125.149L174.972 122.741L167.906 122.06Z" fill="#091558"/>
<path d="M224.942 129.628L224.134 131.901L231.41 132.718L232.009 130.31L224.942 129.628Z" fill="#091558"/>
<path d="M140.821 84.1273C140.489 84.1179 140.296 84.1173 140.297 84.1179V83.5836C140.304 83.5836 140.497 83.5837 140.837 83.5937L140.821 84.1273Z" fill="#323F8B"/>
<path d="M157.475 87.7017C157.104 87.6753 156.736 87.6183 156.374 87.5314L156.497 87.0118C156.83 87.0917 157.169 87.1442 157.511 87.1687L157.475 87.7017ZM158.594 87.6716L158.527 87.1413C158.864 87.0992 159.196 87.0238 159.518 86.9163L159.685 87.4232C159.33 87.5417 158.965 87.6249 158.594 87.6716ZM155.319 87.2041C155.168 87.146 155.015 87.0819 154.861 87.0131C154.686 86.9356 154.507 86.8575 154.329 86.7827L154.533 86.2891C154.717 86.366 154.901 86.4454 155.08 86.5249C155.225 86.5917 155.371 86.6505 155.513 86.7052L155.319 87.2041ZM160.706 86.9764L160.45 86.5089C160.752 86.3424 161.041 86.1535 161.315 85.9439L161.637 86.3693C161.342 86.5929 161.032 86.7947 160.709 86.973L160.706 86.9764ZM153.336 86.3947C153.011 86.2745 152.671 86.1576 152.334 86.046L152.499 85.5378C152.845 85.6513 153.188 85.7709 153.52 85.8938L153.336 86.3947ZM151.318 85.7322C150.985 85.6353 150.639 85.5405 150.293 85.4517L150.426 84.9341C150.777 85.0242 151.128 85.1204 151.467 85.2192L151.318 85.7322ZM162.469 85.6487L162.101 85.2627C162.338 85.0342 162.582 84.7785 162.826 84.5013L163.225 84.8553C162.974 85.1398 162.719 85.4069 162.471 85.6453L162.469 85.6487ZM149.259 85.2012C148.918 85.1237 148.568 85.0496 148.218 84.9795L148.322 84.4559C148.676 84.5227 149.031 84.6021 149.377 84.6803L149.259 85.2012ZM147.171 84.7845C146.826 84.725 146.473 84.6683 146.119 84.6155L146.197 84.0866C146.554 84.14 146.913 84.1981 147.261 84.2582L147.171 84.7845ZM145.064 84.4706C144.713 84.4258 144.357 84.3851 144.005 84.349L144.06 83.8147C144.415 83.8515 144.775 83.8929 145.13 83.9376L145.064 84.4706ZM142.944 84.2515C142.586 84.2221 142.229 84.1974 141.879 84.1774L141.91 83.6431C142.262 83.6638 142.624 83.6885 142.985 83.7179L142.944 84.2515ZM163.919 84.0144L163.5 83.6852C163.7 83.4327 163.906 83.1509 164.139 82.833L164.569 83.1475C164.335 83.4701 164.122 83.754 163.921 84.0111L163.919 84.0144ZM165.195 82.27L164.761 81.9608C164.957 81.6843 165.178 81.371 165.39 81.0832L165.818 81.4004C165.612 81.6789 165.392 81.9922 165.198 82.2666L165.195 82.27Z" fill="#323F8B"/>
<path d="M166.471 80.5676L166.066 80.2197C166.199 80.0661 166.32 79.9325 166.441 79.8116L166.817 80.1889C166.706 80.3005 166.593 80.424 166.471 80.5676Z" fill="#323F8B"/>
<path d="M138.709 80.5583L130.172 83.7246L138.709 88.2386V80.5583Z" fill="#FFB701"/>
</svg>
