<svg width="52" height="52" viewBox="0 0 52 52" fill="none" xmlns="http://www.w3.org/2000/svg">
<g clip-path="url(#clip0_15_1069)">
<path d="M40 0H12C5.37258 0 0 5.37258 0 12V40C0 46.6274 5.37258 52 12 52H40C46.6274 52 52 46.6274 52 40V12C52 5.37258 46.6274 0 40 0Z" fill="#F8E8FF"/>
<path fill-rule="evenodd" clip-rule="evenodd" d="M21.3521 20.1668C21.3521 16.9001 23.929 14.3335 27.2087 14.3335C30.4884 14.3335 33.0653 16.9001 33.0653 20.1668C33.0653 23.4335 30.4884 26.0001 27.2087 26.0001C23.929 26.0001 21.3521 23.4335 21.3521 20.1668ZM37.7506 34.1668V36.5001C37.7506 37.2001 37.2821 37.6668 36.5793 37.6668C35.8765 37.6668 35.4079 37.2001 35.4079 36.5001V34.1668C35.4079 32.1835 33.8852 30.6668 31.894 30.6668H22.5235C20.5322 30.6668 19.0095 32.1835 19.0095 34.1668V36.5001C19.0095 37.2001 18.541 37.6668 17.8382 37.6668C17.1354 37.6668 16.6669 37.2001 16.6669 36.5001V34.1668C16.6669 30.9001 19.2438 28.3335 22.5235 28.3335H31.894C35.1737 28.3335 37.7506 30.9001 37.7506 34.1668ZM27.2087 23.6668C25.2175 23.6668 23.6948 22.1501 23.6948 20.1668C23.6948 18.1835 25.2175 16.6668 27.2087 16.6668C29.2 16.6668 30.7227 18.1835 30.7227 20.1668C30.7227 22.1501 29.2 23.6668 27.2087 23.6668ZM40.3275 28.5668C39.7418 28.4501 39.039 28.8001 38.9219 29.3835C38.8048 29.9668 39.1562 30.6668 39.7418 30.7835C41.2645 31.1335 42.3187 32.5335 42.3187 34.1668V36.5001C42.3187 37.2001 42.7872 37.6668 43.49 37.6668C44.1928 37.6668 44.6613 37.2001 44.6613 36.5001V34.1668C44.7785 31.4835 43.0215 29.1501 40.3275 28.5668ZM34.2366 15.3835C34.4709 14.6835 35.0566 14.3335 35.6422 14.5668C38.8048 15.2668 40.6789 18.5335 39.8589 21.8001C39.3904 23.9001 37.7506 25.4168 35.6422 26.0001H35.4079C34.8223 26.0001 34.3538 25.6501 34.2366 25.0668C34.0024 24.4835 34.4709 23.7835 35.0566 23.6668C36.345 23.3168 37.2821 22.3835 37.6334 21.1001C38.102 19.1168 36.9307 17.2501 35.0566 16.7835C34.4709 16.6668 34.1195 15.9668 34.2366 15.3835Z" fill="black" fill-opacity="0.8"/>
<mask id="mask0_15_1069" style="mask-type:luminance" maskUnits="userSpaceOnUse" x="16" y="14" width="29" height="24">
<path fill-rule="evenodd" clip-rule="evenodd" d="M21.3521 20.1668C21.3521 16.9001 23.929 14.3335 27.2087 14.3335C30.4884 14.3335 33.0653 16.9001 33.0653 20.1668C33.0653 23.4335 30.4884 26.0001 27.2087 26.0001C23.929 26.0001 21.3521 23.4335 21.3521 20.1668ZM37.7506 34.1668V36.5001C37.7506 37.2001 37.2821 37.6668 36.5793 37.6668C35.8765 37.6668 35.4079 37.2001 35.4079 36.5001V34.1668C35.4079 32.1835 33.8852 30.6668 31.894 30.6668H22.5235C20.5322 30.6668 19.0095 32.1835 19.0095 34.1668V36.5001C19.0095 37.2001 18.541 37.6668 17.8382 37.6668C17.1354 37.6668 16.6669 37.2001 16.6669 36.5001V34.1668C16.6669 30.9001 19.2438 28.3335 22.5235 28.3335H31.894C35.1737 28.3335 37.7506 30.9001 37.7506 34.1668ZM27.2087 23.6668C25.2175 23.6668 23.6948 22.1501 23.6948 20.1668C23.6948 18.1835 25.2175 16.6668 27.2087 16.6668C29.2 16.6668 30.7227 18.1835 30.7227 20.1668C30.7227 22.1501 29.2 23.6668 27.2087 23.6668ZM40.3275 28.5668C39.7418 28.4501 39.039 28.8001 38.9219 29.3835C38.8048 29.9668 39.1562 30.6668 39.7418 30.7835C41.2645 31.1335 42.3187 32.5335 42.3187 34.1668V36.5001C42.3187 37.2001 42.7872 37.6668 43.49 37.6668C44.1928 37.6668 44.6613 37.2001 44.6613 36.5001V34.1668C44.7785 31.4835 43.0215 29.1501 40.3275 28.5668ZM34.2366 15.3835C34.4709 14.6835 35.0566 14.3335 35.6422 14.5668C38.8048 15.2668 40.6789 18.5335 39.8589 21.8001C39.3904 23.9001 37.7506 25.4168 35.6422 26.0001H35.4079C34.8223 26.0001 34.3538 25.6501 34.2366 25.0668C34.0024 24.4835 34.4709 23.7835 35.0566 23.6668C36.345 23.3168 37.2821 22.3835 37.6334 21.1001C38.102 19.1168 36.9307 17.2501 35.0566 16.7835C34.4709 16.6668 34.1195 15.9668 34.2366 15.3835Z" fill="white"/>
</mask>
<g mask="url(#mask0_15_1069)">
<path d="M44.6669 12H16.6669V40H44.6669V12Z" fill="#AE01FF"/>
</g>
<path d="M15.4999 21.334H13.1666V19.0006C13.1666 18.3006 12.6999 17.834 11.9999 17.834C11.2999 17.834 10.8333 18.3006 10.8333 19.0006V21.334H8.49992C7.79992 21.334 7.33325 21.8006 7.33325 22.5006C7.33325 23.2006 7.79992 23.6673 8.49992 23.6673H10.8333V26.0006C10.8333 26.7006 11.2999 27.1673 11.9999 27.1673C12.6999 27.1673 13.1666 26.7006 13.1666 26.0006V23.6673H15.4999C16.1999 23.6673 16.6666 23.2006 16.6666 22.5006C16.6666 21.8006 16.1999 21.334 15.4999 21.334Z" fill="black" fill-opacity="0.8"/>
<mask id="mask1_15_1069" style="mask-type:luminance" maskUnits="userSpaceOnUse" x="7" y="17" width="10" height="11">
<path d="M15.4999 21.334H13.1666V19.0006C13.1666 18.3006 12.6999 17.834 11.9999 17.834C11.2999 17.834 10.8333 18.3006 10.8333 19.0006V21.334H8.49992C7.79992 21.334 7.33325 21.8006 7.33325 22.5006C7.33325 23.2006 7.79992 23.6673 8.49992 23.6673H10.8333V26.0006C10.8333 26.7006 11.2999 27.1673 11.9999 27.1673C12.6999 27.1673 13.1666 26.7006 13.1666 26.0006V23.6673H15.4999C16.1999 23.6673 16.6666 23.2006 16.6666 22.5006C16.6666 21.8006 16.1999 21.334 15.4999 21.334Z" fill="white"/>
</mask>
<g mask="url(#mask1_15_1069)">
<path d="M16.6666 9.66724H6.16663V37.6672H16.6666V9.66724Z" fill="#AE01FF"/>
</g>
</g>
<defs>
<clipPath id="clip0_15_1069">
<rect width="52" height="52" fill="white"/>
</clipPath>
</defs>
</svg>
