<svg width="500" height="300" viewBox="0 0 500 501" fill="none" xmlns="http://www.w3.org/2000/svg">
<path opacity="0.41" d="M194.579 326.23C190.512 326.213 186.44 326.05 182.364 325.716C137.692 322.054 85.941 300.723 63.698 261.885C44.252 227.932 36.617 183.974 45.471 146.107C53.794 110.512 79.598 81.678 115.731 70.729C156.367 58.416 201.279 73.377 241.265 56.561C299.464 32.086 372.613 51.523 413.401 98.09C449.564 139.376 458.317 205.949 446.965 257.531C441.228 283.601 426.136 308.708 402.113 321.833C382.999 332.276 359.894 334.335 338.037 331.613C320.463 329.425 304.283 323.693 287.377 318.976C273.826 315.195 262.707 317.163 248.837 319.908C230.987 323.44 212.837 326.306 194.579 326.23Z" fill="#D989FF"/>
<path d="M204.551 301.32C201.26 301.306 197.965 301.174 194.667 300.904C158.519 297.941 116.644 280.68 98.646 249.254C82.911 221.78 76.732 186.21 83.897 155.569C90.632 126.766 111.512 103.434 140.75 94.575C173.632 84.612 209.974 96.718 242.329 83.111C289.422 63.307 348.613 79.035 381.618 116.715C410.88 150.123 417.963 203.992 408.777 245.731C404.135 266.826 391.922 287.142 372.483 297.763C357.016 306.213 338.321 307.879 320.634 305.677C306.413 303.906 293.321 299.269 279.641 295.451C268.676 292.391 259.678 293.984 248.455 296.205C234.012 299.063 219.325 301.381 204.551 301.32Z" fill="#D989FF" stroke="white" stroke-width="1.9456" stroke-miterlimit="10" stroke-dasharray="3.85 3.85"/>
<path opacity="0.87" d="M415.72 440.638C425.436 440.638 433.312 440.039 433.312 439.301C433.312 438.563 425.436 437.964 415.72 437.964C406.004 437.964 398.128 438.563 398.128 439.301C398.128 440.039 406.004 440.638 415.72 440.638Z" fill="#743200"/>
<path d="M417.953 388.719C417.953 388.719 402.891 378.486 412.566 363.612C422.241 348.738 419.822 343.569 416.436 339.381C424.659 348.738 422.857 359.399 417.953 366.162C413.049 372.924 412.272 382.127 417.953 388.719Z" fill="#E08A00"/>
<path d="M430.242 401.416H401.198L404.033 438.185H427.407L430.242 401.416Z" fill="#7D0007"/>
<path d="M433.312 399.535H398.128V403.847H433.312V399.535Z" fill="#E08A00"/>
<path d="M426.403 395.657H405.038C402.917 395.657 401.198 397.376 401.198 399.497V399.536H430.243V399.497C430.242 397.376 428.523 395.657 426.403 395.657Z" fill="#7D0007"/>
<path d="M428.627 422.364L429.314 413.457H402.126L402.813 422.364H428.627Z" fill="#E08A00"/>
<path d="M430.242 399.535V399.496C430.242 397.375 428.523 395.656 426.402 395.656H415.821C417.942 395.656 419.661 397.375 419.661 399.496V399.535H422.73V403.847H419.473L416.826 438.184H427.407L430.055 403.847H433.312V399.535H430.242Z" fill="#4F0004"/>
<path d="M274.313 170.888C274.313 170.888 280.4 151.799 271.507 146.256C265.854 143.351 262.765 146.97 262.765 146.97C262.765 146.97 260.107 133.473 241.79 137.932C229.925 140.82 226.183 134.704 226.183 134.704C226.183 134.704 226.072 151.623 234.243 156.654C240.159 161.727 237.89 175.44 237.89 175.44L274.313 170.888Z" fill="#2F2F35"/>
<path opacity="0.87" d="M328.274 420.342C328.274 420.342 361.251 421.333 370.454 429.828C380.133 438.763 390.287 452.715 348.621 452.446C306.955 452.177 270.018 440.709 235.072 444.349C200.126 447.988 171.449 454.263 163.095 452.871C154.741 451.479 214.286 422.954 214.286 422.954L324.837 427.011L328.274 420.342Z" fill="#515159"/>
<path d="M297.43 346.166L255.858 341.99L214.286 346.166C214.286 346.166 211.817 365.809 203.789 376.288C255.858 394.988 255.858 394.988 255.858 394.988C255.858 394.988 255.858 394.988 307.927 376.288C299.9 365.809 297.43 346.166 297.43 346.166Z" fill="#A87D1D"/>
<path d="M254.216 394.398C255.856 394.987 255.858 394.988 255.858 394.988C255.858 394.988 255.86 394.987 257.498 394.399C267.078 372.36 264.786 347.634 264.218 342.83L255.859 341.99L245.16 343.065C244.946 348.346 244.589 372.5 254.216 394.398Z" fill="#A87D1D"/>
<path d="M214.05 347.769C214.052 347.77 257.795 367.063 300.041 358.678C298.143 351.82 297.431 346.166 297.431 346.166L255.859 341.99L222.464 345.345L214.05 347.769Z" fill="#895436"/>
<path d="M234.242 156.653C240.158 161.726 237.889 175.439 237.889 175.439L245.628 174.472C253.576 167.399 262.548 158.444 261.245 155.071C258.962 149.159 252.368 143.258 240.209 142.583C228.05 141.908 226.182 134.703 226.182 134.703C226.182 134.703 226.071 151.622 234.242 156.653Z" fill="#515159"/>
<path d="M254.349 204.555L219.981 217.084L214.286 346.167C214.286 346.167 226.435 351.862 255.858 351.862C255.858 217.696 255.858 206.56 255.858 206.56L254.349 204.555Z" fill="#650094"/>
<path d="M257.367 204.555L291.735 217.084L297.43 346.167C297.43 346.167 285.281 351.862 255.858 351.862C255.858 217.696 255.858 206.56 255.858 206.56L257.367 204.555Z" fill="#650094"/>
<path d="M219.981 217.084L219.822 217.141C209.783 220.726 201.761 228.442 197.788 238.334L160.897 327.623L192.267 331.361L218.823 266.276L219.981 217.084Z" fill="#FF7E6E"/>
<path d="M291.735 217.084L291.895 217.141C301.934 220.726 309.956 228.442 313.929 238.334L350.82 327.623L319.45 331.361L292.894 266.276L291.735 217.084Z" fill="#FF7E6E"/>
<path d="M328.254 273.004L313.929 238.333C309.956 228.441 301.934 220.726 291.895 217.14L291.735 217.083L292.894 266.274L300.417 284.712C310.46 276.301 320.536 273.57 328.254 273.004Z" fill="#650094"/>
<path d="M183.462 273.004L197.787 238.333C201.76 228.441 209.782 220.726 219.821 217.14L219.981 217.083L218.822 266.274L211.299 284.712C201.256 276.301 191.18 273.57 183.462 273.004Z" fill="#650094"/>
<path d="M293.981 267.975C293.981 267.975 293.05 266.671 291.736 264.228L292.895 266.274C292.895 266.274 279.819 338.85 244.864 351.573C248.225 351.753 251.878 351.86 255.859 351.86C285.282 351.86 297.431 346.165 297.431 346.165L293.981 267.975Z" fill="#D3D3D3"/>
<path opacity="0.52" d="M203.789 258.466C212.654 233.599 213.147 233.789 232.51 229.233C251.872 224.677 248.065 206.847 248.065 206.847L230.013 213.427L227.221 214.445L219.981 217.084L219.821 217.141C209.782 220.726 201.76 228.442 197.787 238.333L162.425 323.922C177.359 312.929 196.238 279.645 203.789 258.466Z" fill="#FFF6E7"/>
<path opacity="0.28" d="M307.927 258.466C299.062 233.599 298.569 233.789 279.206 229.233C259.844 224.677 263.651 206.847 263.651 206.847L281.703 213.427L284.495 214.445L291.734 217.084L291.894 217.141C301.933 220.726 309.955 228.442 313.928 238.333L349.29 323.922C334.357 312.929 315.478 279.645 307.927 258.466Z" fill="#4C2A29"/>
<path d="M255.951 220.48H255.765C250.685 220.48 246.566 216.362 246.566 211.281V189.318H265.149V211.281C265.15 216.362 261.031 220.48 255.951 220.48Z" fill="#FF7E6E"/>
<path d="M265.001 206.258C265.054 206.258 265.098 206.252 265.15 206.251V189.318H256.475L246.566 192.899C246.566 192.899 250.254 206.258 265.001 206.258Z" fill="#4C2A29"/>
<path d="M277.474 176.124C277.474 179.42 274.803 182.091 271.507 182.091C268.212 182.091 265.54 179.42 265.54 176.124C265.54 172.828 268.212 170.157 271.507 170.157C274.802 170.157 277.474 172.828 277.474 176.124Z" fill="#C64F4F"/>
<path d="M272.668 181.974C273.53 178.515 274.036 174.09 274.312 170.888C273.472 170.437 272.526 170.157 271.506 170.157C268.211 170.157 265.539 172.829 265.539 176.124C265.539 179.42 268.211 182.091 271.506 182.091C271.905 182.091 272.292 182.048 272.668 181.974Z" fill="#803D3D"/>
<path d="M234.242 176.124C234.242 179.42 236.914 182.091 240.209 182.091C243.505 182.091 246.176 179.42 246.176 176.124C246.176 172.828 243.505 170.157 240.209 170.157C236.914 170.157 234.242 172.828 234.242 176.124Z" fill="#C64F4F"/>
<path d="M239.048 181.974C238.185 178.515 237.68 174.09 237.404 170.888C238.244 170.437 239.19 170.157 240.21 170.157C243.506 170.157 246.177 172.829 246.177 176.124C246.177 179.42 243.505 182.091 240.21 182.091C239.812 182.091 239.424 182.048 239.048 181.974Z" fill="#803D3D"/>
<path d="M266.36 155.254H255.858H245.356L240.158 166.611L241.032 177.851C241.499 183.849 245.374 194.206 250.826 196.751C252.446 197.507 254.162 198.011 255.858 198.011C257.554 198.011 259.27 197.507 260.89 196.751C266.342 194.206 270.217 183.85 270.684 177.851L271.558 166.611L266.36 155.254Z" fill="#FF7E6E"/>
<path d="M261.245 169.511C261.245 169.511 264.769 170.499 268.756 169.511" stroke="#2F2F35" stroke-width="1.3362" stroke-miterlimit="10" stroke-linecap="round"/>
<path d="M260.107 163.052C260.107 163.052 265.254 162.196 268.348 163.979" stroke="#2F2F35" stroke-width="2.6723" stroke-miterlimit="10" stroke-linecap="round"/>
<path d="M250.471 169.511C250.471 169.511 246.947 170.499 242.959 169.511" stroke="#2F2F35" stroke-width="1.3362" stroke-miterlimit="10" stroke-linecap="round"/>
<path d="M251.609 163.052C251.609 163.052 246.462 162.196 243.368 163.979" stroke="#2F2F35" stroke-width="2.6723" stroke-miterlimit="10" stroke-linecap="round"/>
<path d="M291.735 396.66L172.967 360.626C157.197 355.841 140.612 365.125 136.444 381.068L136.287 381.67C131.993 398.097 142.645 414.692 159.37 417.615C203.283 425.291 282.876 438.345 324.766 439.941L342.424 451.713C345.09 453.491 348.63 453.198 350.968 451.006L351.059 450.921C353.837 448.317 353.979 443.954 351.376 441.174L348.622 438.233C348.622 438.233 346.167 426.274 334.043 421.148C321.919 416.023 320.78 403.494 317.933 396.66C315.084 389.826 296.861 386.41 291.735 396.66Z" fill="#8C4242"/>
<path d="M136.444 381.068C140.612 365.124 157.198 355.841 172.967 360.626L213.244 372.846C207.177 380.415 199.175 395.779 198.933 424.293C184.228 421.903 170.623 419.582 159.369 417.615C142.644 414.692 131.992 398.096 136.286 381.67L136.444 381.068Z" fill="#AE01FF"/>
<path d="M297.43 413.175C297.43 413.175 295.722 423.128 279.207 419.575" stroke="#7B3C38" stroke-width="1.139" stroke-miterlimit="10"/>
<path opacity="0.28" d="M307.927 408.619C307.927 408.619 282.623 407.48 229.092 397.931C185.723 390.195 173.001 367.996 169.733 359.846C170.812 360.044 171.891 360.299 172.966 360.625L291.734 396.659C296.86 386.408 315.083 389.825 317.93 396.659C320.777 403.493 321.916 416.021 334.04 421.147C346.164 426.272 348.619 438.232 348.619 438.232C348.619 438.232 336.153 430.259 328.272 428.551C320.391 426.843 307.927 408.619 307.927 408.619Z" fill="#4C2A29"/>
<path d="M313.407 439.301C313.407 439.301 335.216 460.168 353.809 451.581C356.903 450.153 357.872 446.202 355.852 443.459C340.19 422.188 320.443 399.015 312.916 390.306C311.032 388.126 308.049 387.245 305.282 388.049L283.863 394.271L313.407 439.301Z" fill="#2F2F35"/>
<path d="M283.863 394.272L263.348 388.047L278.888 435.868L313.407 439.301L283.863 394.272Z" fill="#A5A5A5"/>
<path d="M219.981 396.66L338.75 360.626C354.52 355.841 371.105 365.125 375.273 381.068L375.43 381.67C379.724 398.097 369.072 414.692 352.347 417.615C308.434 425.291 228.841 438.345 186.951 439.941L169.293 451.713C166.627 453.491 163.087 453.198 160.749 451.006L160.658 450.921C157.88 448.317 157.738 443.954 160.341 441.174L163.095 438.233C163.095 438.233 165.55 426.274 177.674 421.148C189.798 416.023 190.937 403.494 193.784 396.66C196.632 389.826 214.855 386.41 219.981 396.66Z" fill="#FF7E6E"/>
<path d="M375.272 381.068C371.104 365.124 354.518 355.841 338.749 360.626L298.472 372.846C304.539 380.415 312.541 395.779 312.782 424.293C327.487 421.903 341.092 419.582 352.346 417.615C369.071 414.692 379.723 398.096 375.429 381.67L375.272 381.068Z" fill="#AE01FF"/>
<path opacity="0.28" d="M203.789 408.619C203.789 408.619 229.093 407.48 282.624 397.931C325.993 390.195 338.715 367.996 341.983 359.846C340.904 360.044 339.825 360.299 338.75 360.625L219.981 396.66C214.856 386.409 196.632 389.826 193.785 396.66C190.938 403.494 189.799 416.022 177.675 421.148C165.551 426.273 163.096 438.233 163.096 438.233C163.096 438.233 175.562 430.26 183.443 428.552C191.323 426.843 203.789 408.619 203.789 408.619Z" fill="#4C2A29"/>
<path opacity="0.57" d="M177.674 421.148L159.87 417.847C143.756 415.275 132.843 400.042 135.592 383.957L135.7 383.327C138.697 365.79 156.497 354.943 173.457 360.319L207.074 370.974" stroke="white" stroke-width="1.1139" stroke-miterlimit="10"/>
<path d="M249.752 179.119C249.112 179.119 248.736 179.861 249.129 180.366C250.912 182.655 253.272 184.054 255.867 184.054C258.462 184.054 260.822 182.655 262.605 180.366C262.998 179.861 262.622 179.119 261.982 179.119H249.752Z" fill="white"/>
<path d="M257.621 169.26V175.438C257.621 175.438 256.2 174.635 254.223 175.438" stroke="#2F2F35" stroke-width="0.8212" stroke-miterlimit="10" stroke-linecap="round"/>
<path d="M262.765 146.969H261.245V156.635H262.765V146.969Z" fill="#FF7E6E"/>
<path d="M350.82 327.622L350.883 327.796C354.443 337.652 350.179 348.623 340.897 353.489L277.474 386.735L277.161 385.925C271.573 371.49 277.418 355.14 290.89 347.518L319.451 331.36L350.82 327.622Z" fill="#FF7E6E"/>
<path d="M319.45 331.36L337.428 321.165" stroke="#4C2A29" stroke-width="1.3362" stroke-miterlimit="10" stroke-linecap="round"/>
<path d="M161.082 327.622L161.019 327.796C157.459 337.652 161.723 348.623 171.005 353.489L234.428 386.735L234.742 385.925C240.33 371.49 234.485 355.14 221.013 347.518L192.452 331.36L161.082 327.622Z" fill="#FF7E6E"/>
<path d="M192.452 331.36L174.474 321.165" stroke="#4C2A29" stroke-width="1.3362" stroke-miterlimit="10" stroke-linecap="round"/>
<path d="M227.39 383.045C227.39 383.045 230.591 365.481 220.167 359.846" stroke="#4C2A29" stroke-width="1.3362" stroke-miterlimit="10" stroke-linecap="round"/>
<path d="M284.326 383.045C284.326 383.045 281.125 365.481 291.549 359.846" stroke="#4C2A29" stroke-width="1.3362" stroke-miterlimit="10" stroke-linecap="round"/>
<path d="M198.309 439.301C198.309 439.301 176.5 460.168 157.907 451.581C154.814 450.153 153.844 446.202 155.864 443.459C171.526 422.188 191.272 399.015 198.8 390.306C200.684 388.126 203.667 387.245 206.434 388.049L227.853 394.271L198.309 439.301Z" fill="#2F2F35"/>
<path d="M227.854 394.272L248.368 388.047L232.828 435.868L198.309 439.301L227.854 394.272Z" fill="#ECECEC"/>
<path opacity="0.28" d="M219.322 407.275C225.407 406.626 233.311 405.675 243.088 404.295L248.368 388.048L227.854 394.272L219.322 407.275Z" fill="#4C2A29"/>
<path d="M204.845 424.778L192.944 442.916C192.203 444.045 190.879 444.649 189.54 444.467L189.461 444.456C186.883 444.106 185.571 441.169 187.03 439.015L199.202 421.046C199.981 419.896 201.388 419.347 202.739 419.664L202.809 419.68C205.075 420.212 206.121 422.833 204.845 424.778Z" fill="#FFF6E7"/>
<path d="M254.223 319.947H181.391L199.348 383.908H254.223H309.098L327.055 319.947H254.223Z" fill="#AFAFAF"/>
<path d="M309.098 383.908H199.348V393.224H309.098V383.908Z" fill="#8B8B8C"/>
<path d="M254.348 366.088C264.183 366.088 272.156 362.005 272.156 356.968C272.156 351.931 264.183 347.848 254.348 347.848C244.513 347.848 236.54 351.931 236.54 356.968C236.54 362.005 244.513 366.088 254.348 366.088Z" fill="#5A5A63"/>
<path d="M327.055 315.704H181.391V319.947H327.055V315.704Z" fill="#5A5A63"/>
<path d="M216.418 386.583H205.427V390.328H216.418V386.583Z" fill="#5A5A63"/>
<path d="M232.281 386.583H221.29V390.328H232.281V386.583Z" fill="#5A5A63"/>
<path d="M309.098 388.566H242.304" stroke="#0F1201" stroke-miterlimit="10"/>
<path opacity="0.54" d="M181.391 319.947L199.348 383.909H238.437C261.647 356.999 275.749 319.947 275.749 319.947L275.701 315.704H181.391V319.947Z" fill="white"/>
<path opacity="0.57" d="M181.391 319.947H327.055" stroke="#0F1201" stroke-miterlimit="10"/>
<path opacity="0.87" d="M105.722 440.638C120.309 440.638 132.134 440.039 132.134 439.301C132.134 438.563 120.309 437.964 105.722 437.964C91.1351 437.964 79.31 438.563 79.31 439.301C79.31 440.039 91.1351 440.638 105.722 440.638Z" fill="#515159"/>
<path d="M109.584 426.149L111.315 424.263L110.45 425.206L111.323 424.27C111.11 424.067 90.266 402.935 115.444 307.71L112.968 307.055C87.263 404.273 108.661 425.301 109.584 426.149Z" fill="#3DA700"/>
<path d="M101.819 309.349C111.355 318.015 109.684 328.261 109.684 328.261C109.684 328.261 100.134 324.188 97.919 311.495C97.53 309.269 100.147 307.829 101.819 309.349Z" fill="#3DA700"/>
<path d="M125.678 315.466C113.148 318.474 109.683 328.261 109.683 328.261C109.683 328.261 120.014 329.286 128.065 319.224C129.477 317.46 127.875 314.939 125.678 315.466Z" fill="#3DA700"/>
<path d="M95.285 334.253C105.644 341.917 105.011 352.279 105.011 352.279C105.011 352.279 95.1 349.187 91.62 336.78C91.01 334.604 93.468 332.909 95.285 334.253Z" fill="#3DA700"/>
<path d="M119.639 337.941C107.475 342.193 105.011 352.278 105.011 352.278C105.011 352.278 115.393 352.259 122.391 341.44C123.618 339.544 121.771 337.196 119.639 337.941Z" fill="#3DA700"/>
<path d="M91.144 356.092C102.042 362.968 102.177 373.349 102.177 373.349C102.177 373.349 92.065 370.999 87.676 358.883C86.907 356.759 89.234 354.886 91.144 356.092Z" fill="#3DA700"/>
<path d="M115.704 357.969C103.888 363.11 102.177 373.349 102.177 373.349C102.177 373.349 112.529 372.562 118.708 361.254C119.791 359.272 117.776 357.067 115.704 357.969Z" fill="#3DA700"/>
<path d="M122.247 290.268C122.463 303.152 113.852 308.951 113.852 308.951C113.852 308.951 110.28 299.203 118.012 288.895C119.367 287.088 122.209 288.009 122.247 290.268Z" fill="#3DA700"/>
<path d="M118.564 383.929H90.875V438.705H118.564V383.929Z" fill="#AE01FF"/>
<path opacity="0.67" d="M118.564 383.929H107.502V438.705H118.564V383.929Z" fill="#7D0007"/>
<path d="M130.723 122.676L120.76 125.154C119.315 125.514 117.851 124.633 117.492 123.188L116.533 119.332L131.731 115.552L132.69 119.408C133.049 120.854 132.169 122.317 130.723 122.676Z" fill="#A87D1D"/>
<path d="M167.745 110.795L81.677 132.2C80.184 132.571 78.672 131.662 78.3 130.168L64.106 73.0939C63.735 71.6009 64.644 70.0889 66.138 69.7169L152.206 48.3119C153.699 47.9409 155.211 48.8499 155.582 50.3439L169.776 107.418C170.148 108.912 169.238 110.423 167.745 110.795Z" fill="#A87D1D"/>
<path d="M165.194 100.931L162.794 107.827L86.431 126.818L79.65 122.206L65.585 65.656L151.13 44.381L165.194 100.931Z" fill="#AE01FF"/>
<path d="M107.255 55.2941L65.58 65.657L79.6413 122.205L121.316 111.842L107.255 55.2941Z" fill="white"/>
<path d="M104.679 60.1326L70.4377 68.6471L70.9295 70.6248L105.171 62.1103L104.679 60.1326Z" fill="#AFAFAF"/>
<path d="M106.26 66.4499L72.0184 74.9679L72.5104 76.9456L106.752 68.4275L106.26 66.4499Z" fill="#AFAFAF"/>
<path d="M107.826 72.7874L73.5841 81.3019L74.0759 83.2796L108.317 74.765L107.826 72.7874Z" fill="#AFAFAF"/>
<path d="M109.399 79.114L75.1577 87.6285L75.6494 89.6062L109.891 81.0917L109.399 79.114Z" fill="#AFAFAF"/>
<path d="M110.981 85.4311L76.7391 93.9491L77.2311 95.9268L111.473 87.4087L110.981 85.4311Z" fill="#AFAFAF"/>
<path d="M112.545 91.7688L78.304 100.283L78.7957 102.261L113.037 93.7465L112.545 91.7688Z" fill="#AFAFAF"/>
<path d="M114.119 98.0955L79.8776 106.61L80.3693 108.588L114.611 100.073L114.119 98.0955Z" fill="#AFAFAF"/>
<path d="M115.702 104.412L81.4609 112.93L81.9529 114.908L116.194 106.39L115.702 104.412Z" fill="#AFAFAF"/>
<path d="M151.125 44.3712L109.451 54.7384L123.518 111.287L165.193 100.919L151.125 44.3712Z" fill="white"/>
<path d="M148.235 49.2896L113.994 57.8076L114.486 59.7853L148.727 51.2673L148.235 49.2896Z" fill="#AFAFAF"/>
<path d="M149.804 55.6309L115.562 64.1454L116.054 66.1231L150.296 57.6085L149.804 55.6309Z" fill="#AFAFAF"/>
<path d="M151.377 61.9589L117.135 70.4734L117.627 72.4511L151.868 63.9366L151.377 61.9589Z" fill="#AFAFAF"/>
<path d="M152.957 68.2707L118.716 76.7887L119.208 78.7664L153.449 70.2483L152.957 68.2707Z" fill="#AFAFAF"/>
<path d="M154.524 74.6124L120.282 83.127L120.774 85.1046L155.015 76.5901L154.524 74.6124Z" fill="#AFAFAF"/>
<path d="M156.097 80.9403L121.855 89.4548L122.347 91.4325L156.588 82.918L156.097 80.9403Z" fill="#AFAFAF"/>
<path d="M157.679 87.2516L123.437 95.7697L123.929 97.7473L158.171 89.2293L157.679 87.2516Z" fill="#AFAFAF"/>
<path d="M159.243 93.5941L125.001 102.109L125.493 104.086L159.734 95.5718L159.243 93.5941Z" fill="#AFAFAF"/>
<path d="M128.113 119.371L121.519 121.011C120.074 121.37 118.612 120.49 118.252 119.046L117.65 116.625L129.476 113.684L130.078 116.105C130.437 117.549 129.557 119.012 128.113 119.371Z" fill="#AE01FF"/>
<path d="M274.466 38.057C271.046 34.805 266.725 32.587 262.276 31.105C262.246 31.095 262.178 31.076 262.076 31.049C258.046 29.97 253.798 29.97 249.768 31.049C249.667 31.076 249.598 31.095 249.568 31.105C245.119 32.587 240.798 34.806 237.378 38.057C227.198 47.736 228.852 65.304 238.766 74.574C241.547 77.174 242.768 80.531 243.619 84.232C243.876 85.347 245.351 96.972 244.836 96.972C249.811 96.972 255.921 96.972 255.921 96.972C255.921 96.972 262.031 96.972 267.006 96.972C266.492 96.972 267.967 85.346 268.223 84.232C269.075 80.532 270.296 77.175 273.077 74.574C282.992 65.305 284.645 47.737 274.466 38.057Z" fill="#AE01FF"/>
<path opacity="0.52" d="M251.935 84.232C251.084 80.532 249.862 77.175 247.082 74.574C237.168 65.304 235.514 47.736 245.694 38.057C249.114 34.805 253.435 32.587 257.884 31.105C257.914 31.095 257.982 31.076 258.084 31.049C258.744 30.872 259.41 30.735 260.08 30.616C256.66 30.009 253.138 30.146 249.768 31.049C249.667 31.076 249.598 31.095 249.568 31.105C245.119 32.587 240.797 34.806 237.378 38.057C227.198 47.736 228.852 65.304 238.766 74.574C241.547 77.174 242.768 80.531 243.619 84.232C243.876 85.347 245.351 96.972 244.836 96.972C247.693 96.972 250.918 96.972 253.152 96.972C253.667 96.972 252.192 85.346 251.935 84.232Z" fill="#FFF6E7"/>
<path d="M255.922 96.972V69.8601L260.694 67.1091C262.271 66.2001 261.956 63.8371 260.196 63.3731L251.512 61.0811C250.031 60.6901 249.863 58.6561 251.26 58.0271L255.921 55.93V46.7271" stroke="#FEFEFE" stroke-width="2.2387" stroke-miterlimit="10" stroke-linecap="round"/>
<path d="M269.213 100.703C269.213 101.527 268.545 102.195 267.721 102.195H243.345C242.521 102.195 241.853 101.527 241.853 100.703C241.853 99.8789 242.521 99.2109 243.345 99.2109H267.721C268.544 99.2109 269.213 99.8789 269.213 100.703Z" fill="#2F2F35"/>
<path d="M269.213 105.18C269.213 106.004 268.545 106.673 267.721 106.673H243.345C242.521 106.673 241.853 106.005 241.853 105.18C241.853 104.356 242.521 103.688 243.345 103.688H267.721C268.544 103.688 269.213 104.356 269.213 105.18Z" fill="#2F2F35"/>
<path d="M269.213 109.657C269.213 110.481 268.545 111.149 267.721 111.149H243.345C242.521 111.149 241.853 110.481 241.853 109.657C241.853 108.833 242.521 108.164 243.345 108.164H267.721C268.544 108.165 269.213 108.833 269.213 109.657Z" fill="#2F2F35"/>
<path d="M255.532 121.596C260.34 121.596 264.238 117.698 264.238 112.89H246.827C246.827 117.699 250.724 121.596 255.532 121.596Z" fill="#2F2F35"/>
<path d="M358.665 127.32V120.311H355.568C354.982 116.982 353.621 113.928 351.677 111.327L354.134 108.87L349.178 103.914L346.629 106.463C344.02 104.681 340.987 103.487 337.72 103.016V99.355H330.712V103.153C327.579 103.744 324.699 105.026 322.215 106.829L319.734 104.348L314.778 109.304L317.291 111.817C315.455 114.428 314.205 117.47 313.698 120.762H310.219V127.77H313.775C314.349 130.982 315.643 133.936 317.487 136.474L314.749 139.212L319.705 144.168L322.478 141.396C325.02 143.182 327.971 144.413 331.164 144.945V148.728H338.172V144.945C341.354 144.416 344.295 143.192 346.832 141.416L349.15 143.734L354.106 138.778L351.828 136.5C353.768 133.839 355.096 130.715 355.629 127.32H358.665ZM334.668 135.936C328.084 135.936 322.746 130.598 322.746 124.014C322.746 117.429 328.084 112.092 334.668 112.092C341.253 112.092 346.59 117.43 346.59 124.014C346.59 130.599 341.253 135.936 334.668 135.936Z" fill="#6A00CD"/>
<path d="M386.613 153.902V149.859H384.826C384.488 147.938 383.703 146.177 382.582 144.676L384 143.258L381.141 140.399L379.671 141.869C378.166 140.841 376.416 140.152 374.531 139.88V137.768H370.488V139.959C368.681 140.3 367.019 141.04 365.586 142.08L364.155 140.649L361.296 143.508L362.746 144.958C361.687 146.464 360.966 148.219 360.673 150.118H358.666V154.161H360.718C361.049 156.014 361.796 157.718 362.859 159.182L361.279 160.762L364.138 163.621L365.737 162.022C367.204 163.053 368.906 163.763 370.747 164.069V166.251H374.79V164.069C376.626 163.764 378.323 163.058 379.786 162.033L381.123 163.37L383.982 160.511L382.668 159.197C383.787 157.662 384.554 155.86 384.86 153.901L386.613 153.902ZM372.769 158.872C368.971 158.872 365.891 155.793 365.891 151.994C365.891 148.196 368.97 145.116 372.769 145.116C376.568 145.116 379.647 148.195 379.647 151.994C379.647 155.793 376.568 158.872 372.769 158.872Z" fill="#5B00B1"/>
<path d="M450.313 101.539V87.1459H443.952C442.748 80.3089 439.954 74.0379 435.962 68.6949L441.009 63.6479L430.832 53.4709L425.598 58.7049C420.24 55.0459 414.012 52.5939 407.302 51.6249V44.1069H392.909V51.9069C386.476 53.1199 380.56 55.7539 375.459 59.4569L370.365 54.3629L360.188 64.5399L365.349 69.7009C361.578 75.0629 359.012 81.3099 357.971 88.0709H350.825V102.464H358.129C359.308 109.06 361.966 115.126 365.752 120.338L360.128 125.962L370.305 136.139L375.999 130.446C381.22 134.115 387.279 136.643 393.836 137.734V145.503H408.229V137.734C414.763 136.647 420.804 134.134 426.013 130.486L430.774 135.247L440.951 125.07L436.274 120.393C440.258 114.928 442.986 108.514 444.079 101.54L450.313 101.539ZM401.032 119.235C387.51 119.235 376.548 108.273 376.548 94.7519C376.548 81.2299 387.51 70.2679 401.032 70.2679C414.554 70.2679 425.516 81.2299 425.516 94.7519C425.516 108.273 414.554 119.235 401.032 119.235Z" fill="#8100BE"/>
<path d="M400.569 109.173C408.504 109.173 414.936 102.741 414.936 94.806C414.936 86.8713 408.504 80.439 400.569 80.439C392.634 80.439 386.202 86.8713 386.202 94.806C386.202 102.741 392.634 109.173 400.569 109.173Z" fill="#6A00CD"/>
<path d="M120.715 168.301C89.845 170.173 65.849 188.673 67.12 209.621C68.391 230.569 94.446 246.033 125.316 244.16C125.339 244.159 125.362 244.157 125.385 244.156C128.423 243.969 130.548 241.034 129.797 238.085C129.432 236.65 129.226 235.147 129.202 233.595C129.045 223.61 136.769 215.031 146.715 214.132C153.933 213.48 160.527 216.873 164.333 222.395C166.211 225.12 170.203 225.313 172.234 222.699C176.875 216.725 179.341 209.924 178.911 202.841C177.641 181.892 151.586 166.428 120.715 168.301Z" fill="#5A5A63"/>
<path d="M120.51 164.911C89.6399 166.783 65.6439 185.283 66.9149 206.231C68.1859 227.179 94.2409 242.643 125.112 240.77C125.135 240.769 125.158 240.767 125.181 240.766C128.219 240.579 130.344 237.644 129.593 234.695C129.228 233.26 129.022 231.757 128.998 230.205C128.841 220.22 136.565 211.641 146.511 210.742C153.729 210.09 160.323 213.483 164.129 219.005C166.007 221.73 169.999 221.923 172.03 219.309C176.671 213.335 179.137 206.534 178.707 199.451C177.435 178.502 151.38 163.038 120.51 164.911Z" fill="#BDBDFF"/>
<path d="M109.607 224.295C109.833 228.016 106.999 231.216 103.278 231.442C99.5569 231.668 96.3569 228.834 96.1309 225.113C95.9049 221.392 98.7389 218.192 102.46 217.966C106.181 217.74 109.381 220.574 109.607 224.295Z" fill="#AE01FF"/>
<path d="M91.217 211.519C91.443 215.24 88.609 218.44 84.888 218.666C81.167 218.892 77.967 216.058 77.741 212.337C77.515 208.616 80.349 205.416 84.07 205.19C87.792 204.964 90.991 207.798 91.217 211.519Z" fill="#AE01FF"/>
<path d="M96.6239 189.173C96.8499 192.894 94.0159 196.094 90.2949 196.32C86.5739 196.546 83.3739 193.712 83.1479 189.991C82.9219 186.27 85.7559 183.07 89.4769 182.844C93.1989 182.618 96.3989 185.452 96.6239 189.173Z" fill="#AE01FF"/>
<path d="M119.415 177.096C119.641 180.817 116.807 184.017 113.086 184.243C109.365 184.469 106.165 181.635 105.939 177.914C105.713 174.193 108.547 170.993 112.268 170.767C115.989 170.541 119.189 173.375 119.415 177.096Z" fill="#AE01FF"/>
<path d="M145.086 177.426C145.312 181.147 142.478 184.347 138.757 184.573C135.036 184.799 131.836 181.965 131.61 178.244C131.384 174.523 134.218 171.323 137.939 171.097C141.66 170.871 144.86 173.705 145.086 177.426Z" fill="#AE01FF"/>
<path d="M166.753 189.637C166.979 193.358 164.145 196.558 160.424 196.784C156.703 197.01 153.503 194.176 153.277 190.455C153.051 186.734 155.885 183.534 159.606 183.308C163.328 183.082 166.528 185.916 166.753 189.637Z" fill="#AE01FF"/>
<path opacity="0.68" d="M150.554 168.909L144.199 182.205C143.361 182.164 142.551 182.64 142.217 183.462L142.199 183.507C141.775 184.547 142.275 185.734 143.316 186.158L143.912 186.401C143.795 186.362 143.189 186.291 141.911 188.152C141.91 188.153 141.91 188.153 141.91 188.154C141.833 188.266 141.753 188.387 141.671 188.514C141.663 188.527 141.655 188.539 141.646 188.552C141.57 188.671 141.491 188.797 141.41 188.929C141.394 188.956 141.378 188.982 141.361 189.009C141.285 189.134 141.208 189.265 141.129 189.402C141.106 189.442 141.082 189.483 141.058 189.525C140.983 189.656 140.907 189.792 140.829 189.934C140.798 189.99 140.767 190.048 140.735 190.106C140.661 190.243 140.585 190.385 140.508 190.532C140.47 190.604 140.432 190.678 140.393 190.753C140.319 190.896 140.244 191.042 140.167 191.195C140.122 191.285 140.076 191.378 140.029 191.472C139.955 191.621 139.881 191.772 139.806 191.929C139.754 192.037 139.701 192.149 139.647 192.262C139.573 192.419 139.498 192.577 139.422 192.742C139.364 192.866 139.305 192.997 139.246 193.126C139.171 193.291 139.096 193.456 139.019 193.629C138.954 193.775 138.887 193.929 138.82 194.082C138.746 194.251 138.672 194.419 138.596 194.595C138.523 194.765 138.448 194.943 138.373 195.12C138.299 195.296 138.225 195.469 138.149 195.652C138.069 195.844 137.987 196.046 137.905 196.245C137.831 196.426 137.758 196.603 137.682 196.791C137.594 197.01 137.502 197.242 137.412 197.471C137.339 197.656 137.267 197.836 137.192 198.028C137.091 198.286 136.987 198.558 136.883 198.828C136.816 199.003 136.75 199.171 136.682 199.351C136.559 199.675 136.433 200.015 136.306 200.354C136.253 200.497 136.201 200.633 136.147 200.779C135.965 201.273 135.779 201.782 135.589 202.311C135.08 203.728 134.485 205.396 133.829 207.246C133.753 207.461 133.679 207.67 133.6 207.89C133.501 208.17 133.397 208.463 133.295 208.752C133.21 208.992 133.127 209.227 133.04 209.473C132.906 209.852 132.768 210.244 132.63 210.636C132.568 210.812 132.508 210.983 132.445 211.161C132.308 211.549 132.168 211.947 132.028 212.346C131.957 212.549 131.886 212.748 131.814 212.954C131.682 213.328 131.548 213.712 131.413 214.095C131.33 214.332 131.248 214.564 131.164 214.804C131.009 215.247 130.851 215.698 130.692 216.151C130.632 216.321 130.574 216.488 130.514 216.66C130.353 217.122 130.189 217.591 130.024 218.062C129.954 218.263 129.884 218.462 129.814 218.664C129.661 219.102 129.506 219.547 129.351 219.992C129.272 220.219 129.194 220.443 129.114 220.672C128.949 221.144 128.783 221.622 128.617 222.101C128.545 222.307 128.474 222.511 128.403 222.718C128.239 223.189 128.074 223.665 127.909 224.142C127.826 224.38 127.744 224.616 127.662 224.855C127.514 225.283 127.365 225.713 127.216 226.144C127.11 226.449 127.005 226.754 126.899 227.061C126.771 227.431 126.642 227.804 126.514 228.176C126.392 228.53 126.27 228.883 126.147 229.238C126.01 229.636 125.872 230.035 125.735 230.434C125.663 230.643 125.591 230.85 125.519 231.06C124.398 234.317 123.268 237.622 122.156 240.896C123.136 240.871 124.122 240.83 125.113 240.77C125.136 240.769 125.159 240.767 125.182 240.766C128.22 240.579 130.345 237.644 129.594 234.695C129.229 233.26 129.023 231.757 128.999 230.205C128.862 221.466 134.76 213.805 142.902 211.425C143.802 209.477 144.606 207.729 145.279 206.254C152.441 190.57 150.661 189.164 150.436 189.055L151.032 189.298C152.072 189.721 153.259 189.221 153.683 188.181L153.701 188.136C154.097 187.163 153.679 186.07 152.772 185.585L157.534 171.895C155.332 170.781 153.001 169.782 150.554 168.909Z" fill="#2F2F35"/>
<path opacity="0.42" d="M95.4559 188.14C95.5499 189.696 94.3649 191.035 92.8089 191.129C91.2529 191.223 89.9139 190.038 89.8199 188.482C89.7259 186.926 90.9109 185.587 92.4669 185.493C94.0229 185.399 95.3609 186.584 95.4559 188.14Z" fill="white"/>
<path opacity="0.42" d="M118.261 176.305C118.355 177.861 117.17 179.2 115.614 179.294C114.058 179.388 112.719 178.203 112.625 176.647C112.531 175.091 113.716 173.752 115.272 173.658C116.828 173.563 118.166 174.748 118.261 176.305Z" fill="white"/>
<path opacity="0.42" d="M142.408 175.701C142.502 177.257 141.317 178.596 139.761 178.69C138.205 178.784 136.866 177.599 136.772 176.043C136.678 174.487 137.863 173.148 139.419 173.054C140.975 172.96 142.313 174.145 142.408 175.701Z" fill="white"/>
<path opacity="0.42" d="M88.371 209.527C88.465 211.083 87.28 212.422 85.724 212.516C84.168 212.61 82.829 211.425 82.735 209.869C82.641 208.313 83.826 206.974 85.382 206.88C86.938 206.786 88.276 207.971 88.371 209.527Z" fill="white"/>
<path opacity="0.42" d="M108.382 222.336C108.476 223.892 107.291 225.231 105.735 225.325C104.179 225.419 102.84 224.234 102.746 222.678C102.652 221.122 103.837 219.783 105.393 219.689C106.949 219.595 108.287 220.78 108.382 222.336Z" fill="white"/>
<path d="M175.236 164.893C175.236 164.893 184.446 159.859 185.036 152.079C184.999 147.481 183.002 143.708 183.002 143.708L181.741 148.446C181.741 148.446 181.048 141.003 175.733 137.407C170.418 133.811 171.726 134.821 171.726 134.821C171.726 134.821 176.189 140.744 171.235 150.566C166.281 160.388 172.533 163.793 172.533 163.793L175.236 164.893Z" fill="#AE01FF"/>
<path d="M174.667 161.704C174.667 161.704 173.001 153.162 176.808 148.572C171.859 154.846 170.837 159.887 172.08 163.96C174.667 161.704 174.667 161.704 174.667 161.704Z" fill="#A87D1D"/>
<path d="M170.218 163.392C171.029 161.75 172.97 161.013 174.667 161.704L174.697 161.716L174.727 161.728C176.423 162.419 177.298 164.302 176.731 166.044L170.675 184.649L166.115 182.792L161.555 180.935L170.218 163.392Z" fill="white"/>
<path d="M160.85 185.094L168.565 188.235C169.605 188.659 170.792 188.159 171.216 187.118L171.234 187.073C171.658 186.032 171.158 184.846 170.117 184.422L162.402 181.281C161.362 180.857 160.175 181.357 159.751 182.398L159.733 182.443C159.31 183.483 159.81 184.67 160.85 185.094Z" fill="#CCCCCC"/>
<path d="M161.469 185.345L164.708 186.663L167.947 187.982C167.947 187.982 170.405 188.563 162.812 205.19C157.169 217.548 142.654 248.542 134.29 265.102C133.508 266.651 131.162 265.696 131.684 264.041C137.266 246.348 148.529 214.03 153.123 201.245C159.304 184.044 161.469 185.345 161.469 185.345Z" fill="#2F2F35"/>
<path d="M144.194 244.859C140.579 252.397 137.089 259.56 134.289 265.103C133.507 266.652 131.161 265.697 131.683 264.042C133.552 258.119 136.058 250.556 138.736 242.636L144.194 244.859Z" fill="white"/>
<path opacity="0.75" d="M143.052 229.996C154.952 215.267 159.426 187.21 159.446 187.088C158.125 189.012 156.087 193 153.123 201.247C150.878 207.494 147.041 218.406 143.052 229.996Z" fill="white"/>
<path d="M373.444 195.454L375.552 199.726L380.266 200.411L376.855 203.736L377.66 208.432L373.444 206.215L369.227 208.432L370.033 203.736L366.622 200.411L371.336 199.726L373.444 195.454Z" fill="#FFBE1A"/>
<path d="M434.141 189.486L437.085 195.451L443.668 196.408L438.905 201.051L440.029 207.607L434.141 204.512L428.254 207.607L429.378 201.051L424.615 196.408L431.198 195.451L434.141 189.486Z" fill="#FFB701"/>
<path d="M415.72 278.879L417.363 282.208L421.038 282.742L418.379 285.334L419.007 288.993L415.72 287.265L412.434 288.993L413.061 285.334L410.402 282.742L414.077 282.208L415.72 278.879Z" fill="#FFBE1A"/>
<path d="M357.095 256.324L360.039 262.289L366.621 263.245L361.858 267.888L362.983 274.444L357.095 271.349L351.207 274.444L352.332 267.888L347.568 263.245L354.151 262.289L357.095 256.324Z" fill="#FFB701"/>
<path d="M413.544 270.42C430.373 263.672 438.545 244.558 431.797 227.729C425.048 210.9 405.935 202.728 389.106 209.476C372.277 216.225 364.105 235.338 370.853 252.167C377.601 268.996 396.715 277.168 413.544 270.42Z" fill="#AE01FF"/>
<g opacity="0.67">
<path d="M392.481 271.563C404.078 274.799 415.953 271.38 424.054 263.608C418.568 265.078 412.63 265.15 406.763 263.513C389.299 258.64 379.092 240.533 383.965 223.069C385.602 217.202 388.738 212.159 392.836 208.227C381.993 211.133 372.919 219.523 369.683 231.12C364.811 248.583 375.018 266.69 392.481 271.563Z" fill="#7D0007"/>
</g>
<path opacity="0.52" d="M410.128 208.322C408.493 207.866 406.851 207.542 405.216 207.343C404.36 210.413 403.893 213.644 403.893 216.987C403.893 234.076 415.857 248.361 431.863 251.949C432.267 250.917 432.623 249.856 432.927 248.766C437.798 231.302 427.591 213.194 410.128 208.322Z" fill="#FFF6E7"/>
<path d="M368.589 237.241C355.853 232.279 347.931 227.79 348.597 225.405C349.704 221.437 374.152 224.792 403.203 232.898C432.254 241.004 454.906 250.792 453.799 254.76C453.136 257.138 444.092 256.886 430.698 254.558" stroke="#666666" stroke-width="2" stroke-miterlimit="10"/>
</svg>
