<svg width="80" height="80" viewBox="0 0 80 80" fill="none" xmlns="http://www.w3.org/2000/svg">
<rect width="80" height="80" rx="40" fill="#F0F0F0"/>
<g clip-path="url(#clip0_9_74)">
<path fill-rule="evenodd" clip-rule="evenodd" d="M32.5567 41.9434C32.0417 41.4278 31.7524 40.7288 31.7524 40.0001C31.7524 39.2713 32.0417 38.5724 32.5567 38.0567L42.926 27.6837C43.4419 27.1681 44.1415 26.8785 44.8709 26.8787C45.2321 26.8787 45.5897 26.95 45.9233 27.0883C46.257 27.2265 46.5601 27.4292 46.8154 27.6846C47.0708 27.9401 47.2733 28.2433 47.4114 28.577C47.5495 28.9107 47.6206 29.2684 47.6205 29.6295C47.6204 29.9907 47.5492 30.3483 47.4109 30.682C47.2726 31.0156 47.07 31.3187 46.8145 31.5741L38.3904 40.0001L46.8164 48.4261C47.0791 48.6796 47.2888 48.983 47.433 49.3184C47.5773 49.6539 47.6534 50.0147 47.6567 50.3798C47.66 50.745 47.5906 51.1071 47.4525 51.4451C47.3144 51.7832 47.1104 52.0903 46.8523 52.3486C46.5942 52.6069 46.2873 52.8113 45.9494 52.9497C45.6115 53.0882 45.2494 53.1579 44.8842 53.1549C44.5191 53.1519 44.1582 53.0762 43.8226 52.9322C43.487 52.7883 43.1835 52.5789 42.9297 52.3164L32.553 41.9434H32.5567Z" fill="black" fill-opacity="0.6"/>
</g>
<defs>
<clipPath id="clip0_9_74">
<rect width="44" height="44" fill="white" transform="translate(18 18)"/>
</clipPath>
</defs>
</svg>
