<svg width="25" height="24" viewBox="0 0 25 24" fill="none" xmlns="http://www.w3.org/2000/svg">
<path d="M6.33337 8C6.33337 7.33696 6.59677 6.70107 7.06561 6.23223C7.53445 5.76339 8.17033 5.5 8.83337 5.5C9.49642 5.5 10.1323 5.76339 10.6011 6.23223C11.07 6.70107 11.3334 7.33696 11.3334 8C11.3334 8.66304 11.07 9.29893 10.6011 9.76777C10.1323 10.2366 9.49642 10.5 8.83337 10.5C8.17033 10.5 7.53445 10.2366 7.06561 9.76777C6.59677 9.29893 6.33337 8.66304 6.33337 8ZM8.83337 4C7.77251 4 6.75509 4.42143 6.00495 5.17157C5.2548 5.92172 4.83337 6.93913 4.83337 8C4.83337 9.06087 5.2548 10.0783 6.00495 10.8284C6.75509 11.5786 7.77251 12 8.83337 12C9.89424 12 10.9117 11.5786 11.6618 10.8284C12.4119 10.0783 12.8334 9.06087 12.8334 8C12.8334 6.93913 12.4119 5.92172 11.6618 5.17157C10.9117 4.42143 9.89424 4 8.83337 4ZM16.3334 9C16.3334 8.60218 16.4914 8.22064 16.7727 7.93934C17.054 7.65804 17.4355 7.5 17.8334 7.5C18.2312 7.5 18.6127 7.65804 18.894 7.93934C19.1753 8.22064 19.3334 8.60218 19.3334 9C19.3334 9.39782 19.1753 9.77936 18.894 10.0607C18.6127 10.342 18.2312 10.5 17.8334 10.5C17.4355 10.5 17.054 10.342 16.7727 10.0607C16.4914 9.77936 16.3334 9.39782 16.3334 9ZM17.8334 6C17.0377 6 16.2747 6.31607 15.7121 6.87868C15.1494 7.44129 14.8334 8.20435 14.8334 9C14.8334 9.79565 15.1494 10.5587 15.7121 11.1213C16.2747 11.6839 17.0377 12 17.8334 12C18.629 12 19.3921 11.6839 19.9547 11.1213C20.5173 10.5587 20.8334 9.79565 20.8334 9C20.8334 8.20435 20.5173 7.44129 19.9547 6.87868C19.3921 6.31607 18.629 6 17.8334 6ZM15.0814 19.038C15.7844 19.323 16.6854 19.5 17.8344 19.5C20.1164 19.5 21.4204 18.803 22.1314 17.942C22.4764 17.524 22.6514 17.102 22.7414 16.779C22.7929 16.5919 22.8241 16.3998 22.8344 16.206V16.179C22.8341 15.6012 22.6045 15.0471 22.1959 14.6385C21.7873 14.2299 21.2332 14.0003 20.6554 14H15.0134C14.9854 14 14.958 14.0007 14.9314 14.002C15.3254 14.412 15.6114 14.927 15.7474 15.5H20.6554C21.0274 15.5 21.3294 15.799 21.3344 16.169L21.3314 16.201C21.3274 16.2397 21.315 16.2997 21.2944 16.381C21.2326 16.6034 21.1234 16.8098 20.9744 16.986C20.6244 17.412 19.8024 18 17.8344 18C16.8544 18 16.1584 17.854 15.6644 17.655C15.5564 18.055 15.3784 18.538 15.0814 19.038ZM5.08337 14C4.48664 14 3.91434 14.2371 3.49238 14.659C3.07043 15.081 2.83337 15.6533 2.83337 16.25V16.528C2.83442 16.5975 2.83909 16.667 2.84737 16.736C2.93049 17.48 3.1979 18.1915 3.62537 18.806C4.44337 19.974 6.00537 21 8.83337 21C11.6614 21 13.2234 19.975 14.0414 18.805C14.4688 18.1905 14.7363 17.479 14.8194 16.735C14.8264 16.6662 14.8311 16.5971 14.8334 16.528V16.25C14.8334 15.6533 14.5963 15.081 14.1744 14.659C13.7524 14.2371 13.1801 14 12.5834 14H5.08337ZM4.33337 16.507V16.25C4.33337 16.0511 4.41239 15.8603 4.55304 15.7197C4.6937 15.579 4.88446 15.5 5.08337 15.5H12.5834C12.7823 15.5 12.9731 15.579 13.1137 15.7197C13.2544 15.8603 13.3334 16.0511 13.3334 16.25V16.507L13.3264 16.587C13.2688 17.0749 13.0923 17.5413 12.8124 17.945C12.3194 18.65 11.2554 19.5 8.83337 19.5C6.41137 19.5 5.34737 18.65 4.85337 17.945C4.57378 17.5412 4.39762 17.0748 4.34037 16.587L4.33337 16.507Z" fill="black" fill-opacity="0.6"/>
</svg>
