<svg width="21" height="20" viewBox="0 0 21 20" fill="none" xmlns="http://www.w3.org/2000/svg">
<path d="M8.49638 15C9.97555 14.9998 11.4121 14.5046 12.5772 13.5933L16.2405 17.2566L17.4189 16.0783L13.7555 12.415C14.6673 11.2497 15.1628 9.81285 15.163 8.33329C15.163 4.65746 12.1722 1.66663 8.49638 1.66663C4.82055 1.66663 1.82971 4.65746 1.82971 8.33329C1.82971 12.0091 4.82055 15 8.49638 15ZM8.49638 3.33329C11.2539 3.33329 13.4964 5.57579 13.4964 8.33329C13.4964 11.0908 11.2539 13.3333 8.49638 13.3333C5.73888 13.3333 3.49638 11.0908 3.49638 8.33329C3.49638 5.57579 5.73888 3.33329 8.49638 3.33329Z" fill="black" fill-opacity="0.4"/>
</svg>
