<svg width="52" height="52" viewBox="0 0 52 52" fill="none" xmlns="http://www.w3.org/2000/svg">
<g clip-path="url(#clip0_15_1051)">
<path d="M40 0H12C5.37258 0 0 5.37258 0 12V40C0 46.6274 5.37258 52 12 52H40C46.6274 52 52 46.6274 52 40V12C52 5.37258 46.6274 0 40 0Z" fill="#F8E8FF"/>
<path d="M36.7767 18.1697L26.2767 14.6697C26.0971 14.6098 25.9029 14.6098 25.7233 14.6697L15.2233 18.1697C15.0491 18.2278 14.8975 18.3392 14.7901 18.4882C14.6828 18.6372 14.625 18.8162 14.625 18.9998V27.7498C14.625 27.9819 14.7172 28.2045 14.8813 28.3686C15.0454 28.5327 15.2679 28.6248 15.5 28.6248C15.7321 28.6248 15.9546 28.5327 16.1187 28.3686C16.2828 28.2045 16.375 27.9819 16.375 27.7498V20.2139L20.0489 21.4378C19.0728 23.0148 18.7624 24.9147 19.1859 26.7203C19.6093 28.5259 20.7321 30.0897 22.3075 31.0683C20.3388 31.8405 18.6369 33.2372 17.3922 35.1469C17.3275 35.2431 17.2825 35.3512 17.2599 35.4649C17.2373 35.5787 17.2376 35.6958 17.2607 35.8094C17.2837 35.9231 17.3292 36.031 17.3943 36.1269C17.4595 36.2228 17.543 36.3049 17.6401 36.3682C17.7373 36.4316 17.846 36.475 17.9601 36.4959C18.0741 36.5169 18.1912 36.515 18.3045 36.4903C18.4178 36.4656 18.5251 36.4186 18.6201 36.3521C18.715 36.2856 18.7959 36.2008 18.8578 36.1028C20.5061 33.5741 23.1092 32.1248 26 32.1248C28.8908 32.1248 31.4939 33.5741 33.1422 36.1028C33.2705 36.2936 33.4688 36.4261 33.6941 36.4719C33.9194 36.5176 34.1536 36.4728 34.3462 36.3472C34.5387 36.2217 34.6741 36.0253 34.7231 35.8007C34.772 35.5761 34.7306 35.3412 34.6078 35.1469C33.3631 33.2372 31.6547 31.8405 29.6925 31.0683C31.2664 30.0898 32.3881 28.527 32.8115 26.7227C33.2349 24.9184 32.9255 23.0198 31.9511 21.4433L36.7767 19.8355C36.951 19.7774 37.1026 19.666 37.21 19.517C37.3174 19.368 37.3752 19.189 37.3752 19.0053C37.3752 18.8216 37.3174 18.6426 37.21 18.4936C37.1026 18.3446 36.951 18.2332 36.7767 18.1752V18.1697ZM31.25 25.1248C31.2502 25.9548 31.0537 26.7731 30.6765 27.5124C30.2992 28.2517 29.7521 28.8911 29.0799 29.378C28.4078 29.8649 27.6297 30.1855 26.8097 30.3135C25.9896 30.4415 25.1509 30.3733 24.3623 30.1144C23.5737 29.8554 22.8577 29.4132 22.2731 28.824C21.6886 28.2348 21.252 27.5154 20.9993 26.7248C20.7466 25.9343 20.6849 25.095 20.8193 24.276C20.9538 23.4569 21.2805 22.6814 21.7727 22.0131L25.7233 23.3256C25.9029 23.3855 26.0971 23.3855 26.2767 23.3256L30.2273 22.0131C30.8921 22.9144 31.2505 24.005 31.25 25.1248ZM26 21.5778L18.2672 18.9998L26 16.4219L33.7328 18.9998L26 21.5778Z" fill="#AE01FF"/>
</g>
<defs>
<clipPath id="clip0_15_1051">
<rect width="52" height="52" fill="white"/>
</clipPath>
</defs>
</svg>
