<svg width="46" height="46" viewBox="0 0 46 46" fill="none" xmlns="http://www.w3.org/2000/svg">
<g clip-path="url(#clip0_9_138)">
<path fill-rule="evenodd" clip-rule="evenodd" d="M15.2423 34.596C15.462 34.7446 15.7317 34.7999 15.9921 34.7496C16.2525 34.6994 16.4823 34.5477 16.6309 34.3281L29.8464 14.7922L31.5314 23.5309C31.5817 23.7916 31.7335 24.0217 31.9535 24.1705C32.1734 24.3193 32.4435 24.3746 32.7042 24.3243C32.9649 24.274 33.195 24.1221 33.3438 23.9022C33.4926 23.6822 33.5479 23.4122 33.4976 23.1514L31.3538 12.0427C31.3291 11.9135 31.2791 11.7905 31.2067 11.6806C31.1343 11.5708 31.041 11.4763 30.932 11.4026C30.8231 11.3289 30.7007 11.2775 30.5718 11.2511C30.4429 11.2248 30.3101 11.2242 30.181 11.2493L19.0722 13.393C18.9431 13.418 18.8202 13.4681 18.7105 13.5405C18.6007 13.6129 18.5063 13.7062 18.4326 13.8152C18.2838 14.0351 18.2285 14.3052 18.2788 14.5659C18.3292 14.8266 18.481 15.0567 18.7009 15.2055C18.9209 15.3543 19.1909 15.4096 19.4517 15.3593L28.1898 13.6716L14.9743 33.2074C14.8257 33.4271 14.7705 33.6968 14.8207 33.9572C14.871 34.2176 15.0226 34.4474 15.2423 34.596Z" fill="white"/>
</g>
<defs>
<clipPath id="clip0_9_138">
<rect width="32" height="32" fill="white" transform="translate(18.7991 0.782471) rotate(34.0773)"/>
</clipPath>
</defs>
</svg>
