<svg width="453" height="583" viewBox="0 0 453 583" fill="none" xmlns="http://www.w3.org/2000/svg">
<g clip-path="url(#clip0_15_1096)">
<path d="M0.439941 0H433.358C443.897 0 452.44 8.54321 452.44 19.0818V739.42C452.44 749.959 443.897 758.501 433.358 758.501H0.439941V0Z" fill="#FFFFEA"/>
<mask id="mask0_15_1096" style="mask-type:luminance" maskUnits="userSpaceOnUse" x="0" y="0" width="453" height="759">
<path d="M452.44 0H0.439941V758.501H452.44V0Z" fill="white"/>
</mask>
<g mask="url(#mask0_15_1096)">
<g opacity="0.6">
<path d="M894.094 46.2161C664.569 86.3304 304.717 167.512 487.788 423.782C720.758 749.901 1290.06 664.467 1037.21 916.178" stroke="#00BCD4" stroke-opacity="0.4" stroke-width="0.84808"/>
<path d="M813.103 31.1174C583.578 71.2318 223.727 152.413 406.797 408.682C639.767 734.803 1209.07 649.369 956.224 901.078" stroke="#00BCD4" stroke-opacity="0.4" stroke-width="0.84808"/>
<path d="M731.917 17.4407C502.393 57.555 142.541 138.736 325.612 395.006C558.581 721.126 1127.89 635.692 875.039 887.402" stroke="#00BCD4" stroke-opacity="0.4" stroke-width="0.84808"/>
<path d="M650.521 5.67651C420.997 45.7909 61.1448 126.973 244.216 383.241C477.185 709.362 1046.49 623.928 793.643 875.637" stroke="#00BCD4" stroke-opacity="0.4" stroke-width="0.84808"/>
<path d="M568.893 -3.82007C339.368 36.2943 -20.4837 117.476 162.586 373.744C395.556 699.865 964.861 614.431 712.014 866.141" stroke="#00BCD4" stroke-opacity="0.4" stroke-width="0.84808"/>
<path d="M486.57 -10.9304C257.045 29.184 -102.807 110.365 80.2635 366.635C313.233 692.755 882.539 607.321 629.691 859.031" stroke="#00BCD4" stroke-opacity="0.4" stroke-width="0.84808"/>
<path d="M404.676 -16.4009C175.15 23.7136 -184.701 104.895 -1.63063 361.165C231.339 687.284 800.644 601.85 547.796 853.561" stroke="#00BCD4" stroke-opacity="0.4" stroke-width="0.84808"/>
<path d="M322.716 -20.5078C93.1916 19.6065 -266.66 100.788 -83.59 357.057C149.379 683.177 718.685 597.743 465.838 849.454" stroke="#00BCD4" stroke-opacity="0.4" stroke-width="0.84808"/>
<path d="M240.709 -23.0562C11.1853 17.0582 -348.666 98.2397 -165.596 354.509C67.3736 680.63 636.679 595.195 383.831 846.905" stroke="#00BCD4" stroke-opacity="0.4" stroke-width="0.84808"/>
<path d="M158.676 -23.8179C-70.8486 16.2965 -430.7 97.4779 -247.631 353.747C-14.6603 679.868 554.646 594.434 301.797 846.143" stroke="#00BCD4" stroke-opacity="0.4" stroke-width="0.84808"/>
<path d="M76.6418 -22.4866C-152.882 17.6278 -512.734 98.8092 -329.664 355.079C-96.6942 681.199 472.611 595.765 219.764 847.475" stroke="#00BCD4" stroke-opacity="0.4" stroke-width="0.84808"/>
<path d="M-5.32699 -18.6765C-234.852 21.438 -594.703 102.619 -411.633 358.888C-178.663 685.009 390.642 599.575 137.794 851.284" stroke="#00BCD4" stroke-opacity="0.4" stroke-width="0.84808"/>
<path d="M-87.156 -11.8381C-316.68 28.2763 -676.532 109.458 -493.463 365.727C-260.492 691.847 308.814 606.413 55.9654 858.123" stroke="#00BCD4" stroke-opacity="0.4" stroke-width="0.84808"/>
<path d="M-168.682 -1.23682C-398.206 38.8775 -758.059 120.059 -574.988 376.328C-342.019 702.449 227.287 617.015 -25.5607 868.724" stroke="#00BCD4" stroke-opacity="0.4" stroke-width="0.84808"/>
</g>
</g>
<path d="M0.439941 0H433.358C443.897 0 452.44 8.54321 452.44 19.0818V739.42C452.44 749.959 443.897 758.501 433.358 758.501H0.439941V0Z" fill="url(#paint0_linear_15_1096)"/>
</g>
<defs>
<linearGradient id="paint0_linear_15_1096" x1="0.439941" y1="0" x2="452.44" y2="758.501" gradientUnits="userSpaceOnUse">
<stop stop-color="#FFF9EA"/>
<stop offset="0.0001" stop-color="#FFF9EA" stop-opacity="0.566"/>
<stop offset="1" stop-color="#FFF9EA" stop-opacity="0"/>
</linearGradient>
<clipPath id="clip0_15_1096">
<rect width="452" height="758.501" fill="white" transform="translate(0.439941)"/>
</clipPath>
</defs>
</svg>
