<svg width="18" height="18" viewBox="0 0 18 18" fill="none" xmlns="http://www.w3.org/2000/svg">
<path d="M3.74999 5.8125C3.63881 5.8126 3.53016 5.84564 3.43774 5.90746C3.34533 5.96927 3.27331 6.05708 3.23078 6.15981C3.18825 6.26253 3.17711 6.37555 3.19877 6.4846C3.22043 6.59365 3.27393 6.69383 3.35249 6.7725L8.60249 12.0225C8.70796 12.1278 8.85093 12.187 8.99999 12.187C9.14906 12.187 9.29202 12.1278 9.39749 12.0225L14.6475 6.7725C14.7261 6.69383 14.7796 6.59365 14.8012 6.4846C14.8229 6.37555 14.8117 6.26253 14.7692 6.15981C14.7267 6.05708 14.6547 5.96927 14.5622 5.90746C14.4698 5.84564 14.3612 5.8126 14.25 5.8125H3.74999Z" fill="black" fill-opacity="0.6"/>
</svg>
