<svg width="80" height="80" viewBox="0 0 80 80" fill="none" xmlns="http://www.w3.org/2000/svg">
<rect width="80" height="80" rx="40" fill="#F0F0F0"/>
<g clip-path="url(#clip0_9_75)">
<path fill-rule="evenodd" clip-rule="evenodd" d="M47.4433 41.9434C47.9583 41.4278 48.2476 40.7288 48.2476 40.0001C48.2476 39.2713 47.9583 38.5724 47.4433 38.0567L37.074 27.6837C36.5581 27.1681 35.8585 26.8785 35.1291 26.8787C34.7679 26.8787 34.4103 26.95 34.0767 27.0883C33.743 27.2265 33.4399 27.4292 33.1846 27.6846C32.9292 27.9401 32.7267 28.2433 32.5886 28.577C32.4505 28.9107 32.3794 29.2684 32.3795 29.6295C32.3796 29.9907 32.4508 30.3483 32.5891 30.682C32.7274 31.0156 32.93 31.3187 33.1855 31.5741L41.6096 40.0001L33.1836 48.4261C32.9209 48.6796 32.7112 48.983 32.567 49.3184C32.4227 49.6539 32.3466 50.0147 32.3433 50.3798C32.34 50.745 32.4094 51.1071 32.5475 51.4451C32.6856 51.7832 32.8896 52.0903 33.1477 52.3486C33.4058 52.6069 33.7127 52.8113 34.0506 52.9497C34.3885 53.0882 34.7506 53.1579 35.1158 53.1549C35.4809 53.1519 35.8418 53.0762 36.1774 52.9322C36.513 52.7883 36.8165 52.5789 37.0703 52.3164L47.447 41.9434H47.4433Z" fill="black" fill-opacity="0.6"/>
</g>
<defs>
<clipPath id="clip0_9_75">
<rect width="44" height="44" fill="white" transform="matrix(-1 0 0 1 62 18)"/>
</clipPath>
</defs>
</svg>
